SplineFontDB: 3.2
FontName: PeydaWeb-Black
FullName: PeydaWeb Black
FamilyName: PeydaWeb Black
Weight: Black
Copyright: Copyright (c) 2019 by www.fontiran.com All rights reserved.
Version: Peyda Version 2.000; ttfautohint (v1.8.3)
ItalicAngle: 0
UnderlinePosition: -125
UnderlineWidth: 50
Ascent: 800
Descent: 200
InvalidEm: 0
sfntRevision: 0x00020000
woffMajor: 1
woffMinor: 0
LayerCount: 2
Layer: 0 1 "Back" 1
Layer: 1 1 "Fore" 0
XUID: [1021 420 -1751029034 5709186]
StyleMap: 0x0040
FSType: 4
OS2Version: 4
OS2_WeightWidthSlopeOnly: 0
OS2_UseTypoMetrics: 1
CreationTime: 1587378492
ModificationTime: 1692682544
PfmFamily: 81
TTFWeight: 900
TTFWidth: 5
LineGap: 0
VLineGap: 0
Panose: 0 0 0 0 0 0 0 0 0 0
OS2TypoAscent: 900
OS2TypoAOffset: 0
OS2TypoDescent: -500
OS2TypoDOffset: 0
OS2TypoLinegap: 0
OS2WinAscent: 900
OS2WinAOffset: 0
OS2WinDescent: 500
OS2WinDOffset: 0
HheadAscent: 900
HheadAOffset: 0
HheadDescent: -500
HheadDOffset: 0
OS2SubXSize: 650
OS2SubYSize: 600
OS2SubXOff: 0
OS2SubYOff: 75
OS2SupXSize: 650
OS2SupYSize: 600
OS2SupXOff: 0
OS2SupYOff: 350
OS2StrikeYSize: 50
OS2StrikeYPos: 300
OS2CapHeight: 700
OS2XHeight: 500
OS2Vendor: 'KHDM'
OS2CodePages: 00000041.00000000
OS2UnicodeRanges: 80002023.8000004a.00000008.00000000
Lookup: 1 9 0 "'init' Initial Forms in Arabic lookup 0" { "'init' Initial Forms in Arabic lookup 0 subtable"  } ['init' ('arab' <'dflt' > ) 'zz01' ('arab' <'zz01' > ) ]
Lookup: 1 9 0 "'isol' Isolated Forms in Arabic lookup 1" { "'isol' Isolated Forms in Arabic lookup 1 subtable"  } ['isol' ('arab' <'dflt' > ) 'zz02' ('arab' <'zz01' > ) ]
Lookup: 1 9 0 "'medi' Medial Forms in Arabic lookup 2" { "'medi' Medial Forms in Arabic lookup 2 subtable"  } ['medi' ('arab' <'dflt' > ) 'zz03' ('arab' <'zz01' > ) ]
Lookup: 1 9 0 "'fina' Terminal Forms in Arabic lookup 3" { "'fina' Terminal Forms in Arabic lookup 3 subtable"  } ['fina' ('arab' <'dflt' > ) 'zz04' ('arab' <'zz01' > ) ]

StartChar: A
Encoding: 65 65 4
Width: 609
GlyphClass: 2
Flags: W
LayerCount: 2
Fore
SplineSet
149 674 m 1,0,-1
 461 674 l 1,1,-1
 594 0 l 1,2,-1
 423 0 l 1,3,-1
 408 93 l 1,4,-1
 201 93 l 1,5,-1
 187 0 l 1,6,-1
 15 0 l 1,7,-1
 149 674 l 1,0,-1
377 241 m 1,8,-1
 328 534 l 1,9,-1
 281 534 l 1,10,-1
 232 241 l 1,11,-1
 377 241 l 1,8,-1
EndSplineSet
EndChar

StartChar: B
Encoding: 66 66 5
Width: 571
GlyphClass: 2
Flags: W
LayerCount: 2
Fore
SplineSet
318 672 m 2,0,1
 430 672 430 672 481.5 628.5 c 128,-1,2
 533 585 533 585 533 486 c 0,3,4
 533 439 533 439 519.5 406.5 c 128,-1,5
 506 374 506 374 468 345 c 1,6,7
 505 327 505 327 523 292.5 c 128,-1,8
 541 258 541 258 541 202 c 0,9,10
 541 101 541 101 483 50 c 128,-1,11
 425 -1 425 -1 316 -1 c 2,12,-1
 40 -1 l 1,13,-1
 40 672 l 1,14,-1
 318 672 l 2,0,1
307 147 m 2,15,16
 338 147 338 147 351 160 c 128,-1,17
 364 173 364 173 364 211 c 0,18,19
 364 234 364 234 355 247.5 c 128,-1,20
 346 261 346 261 310 261 c 2,21,-1
 216 261 l 1,22,-1
 216 147 l 1,23,-1
 307 147 l 2,15,16
216 524 m 1,24,-1
 216 409 l 1,25,-1
 306 409 l 2,26,27
 357 409 357 409 357 464 c 0,28,29
 357 492 357 492 344 508 c 128,-1,30
 331 524 331 524 309 524 c 2,31,-1
 216 524 l 1,24,-1
EndSplineSet
EndChar

StartChar: C
Encoding: 67 67 6
Width: 528
GlyphClass: 2
Flags: W
LayerCount: 2
Fore
SplineSet
39 458 m 256,0,1
 48 521 48 521 75 572 c 128,-1,2
 102 623 102 623 152.5 655 c 128,-1,3
 203 687 203 687 286 687 c 0,4,5
 383 687 383 687 498 657 c 1,6,-1
 493 522 l 1,7,8
 443 529 443 529 405 532.5 c 128,-1,9
 367 536 367 536 339 536 c 0,10,11
 300 536 300 536 274.5 520 c 128,-1,12
 249 504 249 504 233.5 476 c 128,-1,13
 218 448 218 448 212 410 c 128,-1,14
 206 372 206 372 206 329 c 0,15,16
 206 297 206 297 208.5 263 c 128,-1,17
 211 229 211 229 223 201.5 c 128,-1,18
 235 174 235 174 260 156 c 128,-1,19
 285 138 285 138 330 138 c 0,20,21
 396 138 396 138 496 150 c 1,22,-1
 496 11 l 1,23,24
 384 -13 384 -13 301 -13 c 0,25,26
 223 -13 223 -13 171 13 c 128,-1,27
 119 39 119 39 87.5 85 c 128,-1,28
 56 131 56 131 43 194.5 c 128,-1,29
 30 258 30 258 30 333 c 0,30,31
 30 395 30 395 39 458 c 256,0,1
EndSplineSet
EndChar

StartChar: D
Encoding: 68 68 7
Width: 599
GlyphClass: 2
Flags: W
LayerCount: 2
Fore
SplineSet
268 674 m 2,0,1
 359 674 359 674 418 650.5 c 128,-1,2
 477 627 477 627 512 584.5 c 128,-1,3
 547 542 547 542 561 481.5 c 128,-1,4
 575 421 575 421 575 347 c 0,5,6
 575 270 575 270 560.5 206 c 128,-1,7
 546 142 546 142 510.5 96.5 c 128,-1,8
 475 51 475 51 416 25.5 c 128,-1,9
 357 0 357 0 268 0 c 2,10,-1
 49 0 l 1,11,-1
 49 674 l 1,12,-1
 268 674 l 2,0,1
220 148 m 1,13,-1
 268 148 l 2,14,15
 313 148 313 148 338.5 160.5 c 128,-1,16
 364 173 364 173 377.5 195.5 c 128,-1,17
 391 218 391 218 395 249.5 c 128,-1,18
 399 281 399 281 399 318 c 256,19,20
 399 355 399 355 396.5 392 c 128,-1,21
 394 429 394 429 381.5 459 c 128,-1,22
 369 489 369 489 342.5 507.5 c 128,-1,23
 316 526 316 526 268 526 c 2,24,-1
 220 526 l 1,25,-1
 220 148 l 1,13,-1
EndSplineSet
EndChar

StartChar: E
Encoding: 69 69 8
Width: 532
GlyphClass: 2
Flags: W
LayerCount: 2
Fore
SplineSet
499 674 m 1,0,-1
 499 526 l 1,1,-1
 220 526 l 1,2,-1
 220 410 l 1,3,-1
 439 410 l 1,4,-1
 439 262 l 1,5,-1
 220 262 l 1,6,-1
 220 148 l 1,7,-1
 499 148 l 1,8,-1
 499 0 l 1,9,-1
 49 0 l 1,10,-1
 49 674 l 1,11,-1
 499 674 l 1,0,-1
EndSplineSet
EndChar

StartChar: F
Encoding: 70 70 9
Width: 508
GlyphClass: 2
Flags: W
LayerCount: 2
Fore
SplineSet
494 674 m 1,0,-1
 494 526 l 1,1,-1
 220 526 l 1,2,-1
 220 363 l 1,3,-1
 439 363 l 1,4,-1
 439 215 l 1,5,-1
 220 215 l 1,6,-1
 220 0 l 1,7,-1
 49 0 l 1,8,-1
 49 674 l 1,9,-1
 494 674 l 1,0,-1
EndSplineSet
EndChar

StartChar: G
Encoding: 71 71 10
Width: 605
GlyphClass: 2
Flags: W
LayerCount: 2
Fore
SplineSet
47 502 m 0,0,1
 62 567 62 567 95.5 608.5 c 128,-1,2
 129 650 129 650 182.5 668.5 c 128,-1,3
 236 687 236 687 313 687 c 0,4,5
 358 687 358 687 408 681.5 c 128,-1,6
 458 676 458 676 514 665 c 2,7,-1
 551 658 l 1,8,-1
 546 527 l 1,9,10
 435 536 435 536 361 536 c 0,11,12
 305 536 305 536 274 512.5 c 128,-1,13
 243 489 243 489 228.5 455 c 128,-1,14
 214 421 214 421 211 384 c 128,-1,15
 208 347 208 347 208 321 c 0,16,17
 208 292 208 292 210.5 259 c 128,-1,18
 213 226 213 226 225 198.5 c 128,-1,19
 237 171 237 171 262 153 c 128,-1,20
 287 135 287 135 332 135 c 2,21,-1
 367 135 l 2,22,23
 381 135 381 135 383 134 c 1,24,-1
 383 222 l 1,25,-1
 319 222 l 1,26,-1
 319 370 l 1,27,-1
 551 370 l 1,28,-1
 551 10 l 1,29,30
 472 -2 472 -2 414.5 -7.5 c 128,-1,31
 357 -13 357 -13 324 -13 c 0,32,33
 242 -13 242 -13 186.5 17 c 128,-1,34
 131 47 131 47 96.5 96.5 c 128,-1,35
 62 146 62 146 47 210 c 128,-1,36
 32 274 32 274 32 342 c 0,37,38
 32 436 32 436 47 502 c 0,0,1
EndSplineSet
EndChar

StartChar: H
Encoding: 72 72 11
Width: 633
GlyphClass: 2
Flags: W
LayerCount: 2
Fore
SplineSet
220 674 m 1,0,-1
 220 413 l 1,1,-1
 420 413 l 1,2,-1
 420 674 l 1,3,-1
 591 674 l 1,4,-1
 591 -1 l 1,5,-1
 420 -1 l 1,6,-1
 420 265 l 1,7,-1
 220 265 l 1,8,-1
 220 -1 l 1,9,-1
 49 -1 l 1,10,-1
 49 674 l 1,11,-1
 220 674 l 1,0,-1
EndSplineSet
EndChar

StartChar: I
Encoding: 73 73 12
Width: 276
GlyphClass: 2
Flags: W
LayerCount: 2
Fore
SplineSet
49 0 m 1,0,-1
 49 674 l 1,1,-1
 220 674 l 1,2,-1
 220 0 l 1,3,-1
 49 0 l 1,0,-1
EndSplineSet
EndChar

StartChar: J
Encoding: 74 74 13
Width: 268
GlyphClass: 2
Flags: W
LayerCount: 2
Fore
SplineSet
21 79 m 1,0,1
 50 79 50 79 63 92.5 c 128,-1,2
 76 106 76 106 76 129 c 2,3,-1
 76 674 l 1,4,-1
 247 674 l 1,5,-1
 247 126 l 2,6,7
 247 25 247 25 191 -22 c 128,-1,8
 135 -69 135 -69 21 -69 c 1,9,-1
 21 79 l 1,0,1
EndSplineSet
EndChar

StartChar: K
Encoding: 75 75 14
Width: 582
GlyphClass: 2
Flags: W
LayerCount: 2
Fore
SplineSet
49 674 m 1,0,-1
 220 674 l 1,1,-1
 220 390 l 1,2,-1
 303 402 l 1,3,-1
 377 674 l 1,4,-1
 571 674 l 1,5,-1
 451 338 l 1,6,-1
 571 0 l 1,7,-1
 376 0 l 1,8,-1
 300 254 l 1,9,-1
 220 242 l 1,10,-1
 220 0 l 1,11,-1
 49 0 l 1,12,-1
 49 674 l 1,0,-1
EndSplineSet
EndChar

StartChar: L
Encoding: 76 76 15
Width: 455
GlyphClass: 2
Flags: W
LayerCount: 2
Fore
SplineSet
49 0 m 1,0,-1
 49 674 l 1,1,-1
 220 674 l 1,2,-1
 220 151 l 1,3,-1
 439 151 l 1,4,-1
 439 0 l 1,5,-1
 49 0 l 1,0,-1
EndSplineSet
EndChar

StartChar: M
Encoding: 77 77 16
Width: 829
GlyphClass: 2
Flags: W
LayerCount: 2
Fore
SplineSet
336 674 m 1,0,-1
 415 225 l 1,1,-1
 494 674 l 1,2,-1
 781 674 l 1,3,-1
 781 0 l 1,4,-1
 610 0 l 1,5,-1
 610 481 l 1,6,-1
 593 481 l 1,7,-1
 498 33 l 1,8,-1
 332 33 l 1,9,-1
 236 481 l 1,10,-1
 220 481 l 1,11,-1
 220 0 l 1,12,-1
 49 0 l 1,13,-1
 49 674 l 1,14,-1
 336 674 l 1,0,-1
EndSplineSet
EndChar

StartChar: N
Encoding: 78 78 17
Width: 663
GlyphClass: 2
Flags: W
LayerCount: 2
Fore
SplineSet
330 674 m 1,0,-1
 438 148 l 1,1,-1
 444 148 l 1,2,-1
 444 674 l 1,3,-1
 615 674 l 1,4,-1
 615 0 l 1,5,-1
 342 0 l 1,6,-1
 226 526 l 1,7,-1
 220 526 l 1,8,-1
 220 0 l 1,9,-1
 49 0 l 1,10,-1
 49 674 l 1,11,-1
 330 674 l 1,0,-1
EndSplineSet
EndChar

StartChar: O
Encoding: 79 79 18
Width: 633
GlyphClass: 2
Flags: W
LayerCount: 2
Fore
SplineSet
31 335 m 256,0,1
 31 456 31 456 59.5 533 c 128,-1,2
 88 610 88 610 150.5 648.5 c 128,-1,3
 213 687 213 687 317 687 c 0,4,5
 422 687 422 687 485 648.5 c 128,-1,6
 548 610 548 610 576.5 533 c 128,-1,7
 605 456 605 456 605 335 c 0,8,9
 605 219 605 219 577.5 143 c 128,-1,10
 550 67 550 67 486.5 27 c 128,-1,11
 423 -13 423 -13 317 -13 c 0,12,13
 214 -13 214 -13 151.5 24 c 128,-1,14
 89 61 89 61 60 137.5 c 128,-1,15
 31 214 31 214 31 335 c 256,0,1
207 334 m 0,16,17
 207 269 207 269 214.5 226.5 c 128,-1,18
 222 184 222 184 246 159.5 c 128,-1,19
 270 135 270 135 317 135 c 0,20,21
 360 135 360 135 384.5 154.5 c 128,-1,22
 409 174 409 174 419 217.5 c 128,-1,23
 429 261 429 261 429 335 c 256,24,25
 429 409 429 409 418.5 452.5 c 128,-1,26
 408 496 408 496 383.5 517.5 c 128,-1,27
 359 539 359 539 317 539 c 0,28,29
 276 539 276 539 252 517.5 c 128,-1,30
 228 496 228 496 217.5 452 c 128,-1,31
 207 408 207 408 207 334 c 0,16,17
EndSplineSet
EndChar

StartChar: P
Encoding: 80 80 19
Width: 573
GlyphClass: 2
Flags: W
LayerCount: 2
Fore
SplineSet
49 0 m 1,0,-1
 49 674 l 1,1,-1
 298 674 l 2,2,3
 424 674 424 674 487.5 613 c 128,-1,4
 551 552 551 552 551 431 c 0,5,6
 551 309 551 309 487 244 c 128,-1,7
 423 179 423 179 298 179 c 2,8,-1
 220 179 l 1,9,-1
 220 0 l 1,10,-1
 49 0 l 1,0,-1
220 324 m 1,11,-1
 297 324 l 2,12,13
 380 324 380 324 380 431 c 0,14,15
 380 483 380 483 360.5 506 c 128,-1,16
 341 529 341 529 297 529 c 2,17,-1
 220 529 l 1,18,-1
 220 324 l 1,11,-1
EndSplineSet
EndChar

StartChar: Q
Encoding: 81 81 20
Width: 633
GlyphClass: 2
Flags: W
LayerCount: 2
Fore
SplineSet
47 491 m 0,0,1
 62 557 62 557 96.5 600.5 c 128,-1,2
 131 644 131 644 185.5 665.5 c 128,-1,3
 240 687 240 687 318 687 c 256,4,5
 396 687 396 687 451 665.5 c 128,-1,6
 506 644 506 644 540 601.5 c 128,-1,7
 574 559 574 559 589.5 494 c 128,-1,8
 605 429 605 429 605 342 c 0,9,10
 605 276 605 276 597.5 228 c 128,-1,11
 590 180 590 180 576.5 145 c 128,-1,12
 563 110 563 110 544.5 85.5 c 128,-1,13
 526 61 526 61 505 43 c 1,14,-1
 587 -90 l 1,15,-1
 432 -162 l 1,16,-1
 341 -13 l 1,17,-1
 318 -13 l 2,18,19
 240 -13 240 -13 185.5 4.5 c 128,-1,20
 131 22 131 22 96.5 62.5 c 128,-1,21
 62 103 62 103 46.5 169.5 c 128,-1,22
 31 236 31 236 31 334 c 0,23,24
 31 424 31 424 47 491 c 0,0,1
210 272 m 0,25,26
 212 238 212 238 223.5 207.5 c 128,-1,27
 235 177 235 177 257 156 c 128,-1,28
 279 135 279 135 318 135 c 0,29,30
 349 135 349 135 370 142 c 128,-1,31
 391 149 391 149 404 170 c 128,-1,32
 417 191 417 191 423 229.5 c 128,-1,33
 429 268 429 268 429 331 c 0,34,35
 429 399 429 399 422.5 440 c 128,-1,36
 416 481 416 481 403 503 c 128,-1,37
 390 525 390 525 370 532 c 128,-1,38
 350 539 350 539 323 539 c 0,39,40
 292 539 292 539 269.5 530.5 c 128,-1,41
 247 522 247 522 233.5 499.5 c 128,-1,42
 220 477 220 477 213.5 436.5 c 128,-1,43
 207 396 207 396 207 332 c 0,44,45
 207 306 207 306 210 272 c 0,25,26
EndSplineSet
EndChar

StartChar: R
Encoding: 82 82 21
Width: 597
GlyphClass: 2
Flags: W
LayerCount: 2
Fore
SplineSet
316 674 m 2,0,1
 441 674 441 674 504 616.5 c 128,-1,2
 567 559 567 559 567 448 c 0,3,4
 567 323 567 323 481 249 c 1,5,-1
 559 0 l 1,6,-1
 371 0 l 1,7,-1
 318 208 l 1,8,-1
 220 208 l 1,9,-1
 220 0 l 1,10,-1
 49 0 l 1,11,-1
 49 674 l 1,12,-1
 316 674 l 2,0,1
220 529 m 1,13,-1
 220 353 l 1,14,-1
 319 353 l 2,15,16
 353 353 353 353 372 378 c 128,-1,17
 391 403 391 403 391 440 c 0,18,19
 391 479 391 479 370.5 504 c 128,-1,20
 350 529 350 529 316 529 c 2,21,-1
 220 529 l 1,13,-1
EndSplineSet
EndChar

StartChar: S
Encoding: 83 83 22
Width: 558
GlyphClass: 2
Flags: W
LayerCount: 2
Fore
SplineSet
99 632 m 0,0,1
 163 686 163 686 272 686 c 0,2,3
 293 686 293 686 314.5 684.5 c 128,-1,4
 336 683 336 683 362.5 679.5 c 128,-1,5
 389 676 389 676 423 670 c 128,-1,6
 457 664 457 664 504 655 c 1,7,-1
 491 523 l 1,8,9
 452 527 452 527 398.5 532.5 c 128,-1,10
 345 538 345 538 291 538 c 0,11,12
 206 538 206 538 206 488 c 0,13,14
 206 473 206 473 226.5 460 c 128,-1,15
 247 447 247 447 272.5 436.5 c 128,-1,16
 298 426 298 426 320 418.5 c 128,-1,17
 342 411 342 411 345 409 c 0,18,19
 380 397 380 397 411.5 379 c 128,-1,20
 443 361 443 361 466.5 336 c 128,-1,21
 490 311 490 311 504 277.5 c 128,-1,22
 518 244 518 244 518 200 c 0,23,24
 518 150 518 150 500 110.5 c 128,-1,25
 482 71 482 71 449.5 43 c 128,-1,26
 417 15 417 15 372 0.5 c 128,-1,27
 327 -14 327 -14 273 -14 c 256,28,29
 219 -14 219 -14 160 -2 c 128,-1,30
 101 10 101 10 44 22 c 1,31,-1
 62 152 l 1,32,33
 196 134 196 134 266 134 c 0,34,35
 347 134 347 134 347 195 c 0,36,37
 347 210 347 210 334 221.5 c 128,-1,38
 321 233 321 233 304 241.5 c 128,-1,39
 287 250 287 250 270 256 c 128,-1,40
 253 262 253 262 244 266 c 0,41,42
 178 286 178 286 137.5 307 c 128,-1,43
 97 328 97 328 74 352.5 c 128,-1,44
 51 377 51 377 43 405 c 128,-1,45
 35 433 35 433 35 467 c 0,46,47
 35 577 35 577 99 632 c 0,0,1
EndSplineSet
EndChar

StartChar: T
Encoding: 84 84 23
Width: 515
GlyphClass: 2
Flags: W
LayerCount: 2
Fore
SplineSet
9 674 m 1,0,-1
 509 674 l 1,1,-1
 509 523 l 1,2,-1
 345 523 l 1,3,-1
 345 -1 l 1,4,-1
 174 -1 l 1,5,-1
 174 523 l 1,6,-1
 9 523 l 1,7,-1
 9 674 l 1,0,-1
EndSplineSet
EndChar

StartChar: U
Encoding: 85 85 24
Width: 641
GlyphClass: 2
Flags: W
LayerCount: 2
Fore
SplineSet
51 241 m 2,0,-1
 51 674 l 1,1,-1
 222 674 l 1,2,-1
 222 237 l 2,3,4
 222 135 222 135 318 135 c 0,5,6
 367 135 367 135 391.5 161 c 128,-1,7
 416 187 416 187 416 237 c 2,8,-1
 416 674 l 1,9,-1
 587 674 l 1,10,-1
 587 241 l 2,11,12
 587 111 587 111 521.5 49 c 128,-1,13
 456 -13 456 -13 320 -13 c 0,14,15
 183 -13 183 -13 117 49 c 128,-1,16
 51 111 51 111 51 241 c 2,0,-1
EndSplineSet
EndChar

StartChar: V
Encoding: 86 86 25
Width: 634
GlyphClass: 2
Flags: W
LayerCount: 2
Fore
SplineSet
17 674 m 1,0,-1
 197 674 l 1,1,-1
 293 148 l 1,2,-1
 332 148 l 1,3,-1
 428 674 l 1,4,-1
 608 674 l 1,5,-1
 463 0 l 1,6,-1
 163 0 l 1,7,-1
 17 674 l 1,0,-1
EndSplineSet
EndChar

StartChar: W
Encoding: 87 87 26
Width: 973
GlyphClass: 2
Flags: W
LayerCount: 2
Fore
SplineSet
14 674 m 1,0,-1
 194 674 l 1,1,-1
 260 145 l 1,2,-1
 268 145 l 1,3,-1
 379 677 l 1,4,-1
 577 677 l 1,5,-1
 689 145 l 1,6,-1
 696 145 l 1,7,-1
 762 674 l 1,8,-1
 942 674 l 1,9,-1
 818 0 l 1,10,-1
 572 0 l 1,11,-1
 478 477 l 1,12,-1
 384 0 l 1,13,-1
 138 0 l 1,14,-1
 14 674 l 1,0,-1
EndSplineSet
EndChar

StartChar: X
Encoding: 88 88 27
Width: 616
GlyphClass: 2
Flags: W
LayerCount: 2
Fore
SplineSet
19 0 m 1,0,-1
 205 319 l 1,1,-1
 19 674 l 1,2,-1
 207 674 l 1,3,-1
 307 448 l 1,4,-1
 411 674 l 1,5,-1
 586 674 l 1,6,-1
 399 329 l 1,7,-1
 586 0 l 1,8,-1
 397 0 l 1,9,-1
 297 207 l 1,10,-1
 194 0 l 1,11,-1
 19 0 l 1,0,-1
EndSplineSet
EndChar

StartChar: Y
Encoding: 89 89 28
Width: 637
GlyphClass: 2
Flags: W
LayerCount: 2
Fore
SplineSet
211 674 m 1,0,-1
 311 431 l 1,1,-1
 411 674 l 1,2,-1
 599 674 l 1,3,-1
 397 266 l 1,4,-1
 397 0 l 1,5,-1
 226 0 l 1,6,-1
 226 266 l 1,7,-1
 22 674 l 1,8,-1
 211 674 l 1,0,-1
EndSplineSet
EndChar

StartChar: Z
Encoding: 90 90 29
Width: 525
GlyphClass: 2
Flags: W
LayerCount: 2
Fore
SplineSet
489 674 m 1,0,-1
 489 538 l 1,1,-1
 247 164 l 1,2,-1
 247 148 l 1,3,-1
 489 148 l 1,4,-1
 489 0 l 1,5,-1
 39 0 l 1,6,-1
 39 135 l 1,7,-1
 281 510 l 1,8,-1
 281 526 l 1,9,-1
 39 526 l 1,10,-1
 39 674 l 1,11,-1
 489 674 l 1,0,-1
EndSplineSet
EndChar

StartChar: a
Encoding: 97 97 30
Width: 500
GlyphClass: 2
Flags: W
LayerCount: 2
Fore
SplineSet
24 153 m 0,0,1
 24 196 24 196 35 225 c 128,-1,2
 46 254 46 254 68.5 273 c 128,-1,3
 91 292 91 292 126 301 c 128,-1,4
 161 310 161 310 210 313 c 2,5,-1
 291 317 l 1,6,-1
 291 341 l 2,7,8
 291 361 291 361 282 367 c 128,-1,9
 273 373 273 373 245 373 c 0,10,11
 198 373 198 373 152.5 372 c 128,-1,12
 107 371 107 371 62 368 c 1,13,-1
 57 480 l 1,14,15
 164 513 164 513 263 513 c 0,16,17
 367 513 367 513 412 472.5 c 128,-1,18
 457 432 457 432 457 341 c 2,19,-1
 457 159 l 2,20,21
 458 152 458 152 458 144.5 c 128,-1,22
 458 137 458 137 459.5 130.5 c 128,-1,23
 461 124 461 124 465 118.5 c 128,-1,24
 469 113 469 113 477 110 c 1,25,-1
 472 -13 l 1,26,27
 443 -13 443 -13 421.5 -12 c 128,-1,28
 400 -11 400 -11 382.5 -7.5 c 128,-1,29
 365 -4 365 -4 349.5 2.5 c 128,-1,30
 334 9 334 9 316 19 c 1,31,32
 250 -13 250 -13 186 -13 c 0,33,34
 24 -13 24 -13 24 153 c 0,0,1
190 156 m 0,35,36
 190 121 190 121 224 121 c 0,37,38
 248 121 248 121 281 127 c 2,39,-1
 291 129 l 1,40,-1
 291 204 l 1,41,-1
 230 200 l 2,42,43
 190 195 190 195 190 156 c 0,35,36
EndSplineSet
EndChar

StartChar: b
Encoding: 98 98 31
Width: 532
GlyphClass: 2
Flags: W
LayerCount: 2
Fore
SplineSet
54 2 m 1,0,-1
 54 690 l 1,1,-1
 220 690 l 1,2,-1
 220 490 l 1,3,4
 241 498 241 498 254.5 502.5 c 128,-1,5
 268 507 268 507 278.5 509.5 c 128,-1,6
 289 512 289 512 298 512.5 c 128,-1,7
 307 513 307 513 320 513 c 0,8,9
 370 513 370 513 407.5 497.5 c 128,-1,10
 445 482 445 482 470 449 c 128,-1,11
 495 416 495 416 507.5 364.5 c 128,-1,12
 520 313 520 313 520 240 c 0,13,14
 520 169 520 169 507.5 120.5 c 128,-1,15
 495 72 495 72 466.5 42 c 128,-1,16
 438 12 438 12 393.5 -1 c 128,-1,17
 349 -14 349 -14 284 -14 c 0,18,19
 225 -14 225 -14 168.5 -8.5 c 128,-1,20
 112 -3 112 -3 54 2 c 1,0,-1
220 139 m 1,21,22
 231 137 231 137 243 136 c 128,-1,23
 255 135 255 135 268 135 c 0,24,25
 315 135 315 135 333.5 158 c 128,-1,26
 352 181 352 181 352 241 c 0,27,28
 352 307 352 307 332 335.5 c 128,-1,29
 312 364 312 364 272 364 c 0,30,31
 265 364 265 364 251.5 363 c 128,-1,32
 238 362 238 362 220 360 c 1,33,-1
 220 139 l 1,21,22
EndSplineSet
EndChar

StartChar: c
Encoding: 99 99 32
Width: 432
GlyphClass: 2
Flags: W
LayerCount: 2
Fore
SplineSet
34 250 m 0,0,1
 34 327 34 327 47 377.5 c 128,-1,2
 60 428 60 428 87 458 c 128,-1,3
 114 488 114 488 156 500 c 128,-1,4
 198 512 198 512 256 512 c 0,5,6
 269 512 269 512 283.5 511 c 128,-1,7
 298 510 298 510 317 507 c 128,-1,8
 336 504 336 504 360.5 499 c 128,-1,9
 385 494 385 494 419 487 c 1,10,-1
 415 357 l 1,11,12
 371 361 371 361 342 363 c 128,-1,13
 313 365 313 365 298 365 c 0,14,15
 269 365 269 365 250.5 361.5 c 128,-1,16
 232 358 232 358 221 346.5 c 128,-1,17
 210 335 210 335 206 313 c 128,-1,18
 202 291 202 291 202 253 c 0,19,20
 202 228 202 228 205 206.5 c 128,-1,21
 208 185 208 185 218 169 c 128,-1,22
 228 153 228 153 247.5 144 c 128,-1,23
 267 135 267 135 299 135 c 2,24,-1
 414 143 l 1,25,-1
 419 12 l 1,26,27
 309 -13 309 -13 241 -13 c 0,28,29
 135 -13 135 -13 84.5 50.5 c 128,-1,30
 34 114 34 114 34 250 c 0,0,1
EndSplineSet
EndChar

StartChar: d
Encoding: 100 100 33
Width: 568
GlyphClass: 2
Flags: W
LayerCount: 2
Fore
SplineSet
84 448 m 0,0,1
 133 513 133 513 230 513 c 0,2,3
 256 513 256 513 338 498 c 1,4,-1
 338 690 l 1,5,-1
 506 690 l 1,6,-1
 506 0 l 1,7,-1
 340 0 l 1,8,-1
 340 14 l 1,9,10
 319 5 319 5 303.5 0 c 128,-1,11
 288 -5 288 -5 275 -8 c 128,-1,12
 262 -11 262 -11 251 -12 c 128,-1,13
 240 -13 240 -13 229 -13 c 0,14,15
 125 -13 125 -13 79.5 51 c 128,-1,16
 34 115 34 115 34 244 c 0,17,18
 34 383 34 383 84 448 c 0,0,1
218 159 m 0,19,20
 233 135 233 135 268 135 c 0,21,22
 281 135 281 135 293 135.5 c 128,-1,23
 305 136 305 136 327 139 c 2,24,-1
 338 139 l 1,25,-1
 338 361 l 1,26,27
 290 370 290 370 267 370 c 0,28,29
 234 370 234 370 218 343 c 128,-1,30
 202 316 202 316 202 247 c 0,31,32
 202 183 202 183 218 159 c 0,19,20
EndSplineSet
EndChar

StartChar: e
Encoding: 101 101 34
Width: 513
GlyphClass: 2
Flags: W
LayerCount: 2
Fore
SplineSet
90 445 m 0,0,1
 146 513 146 513 265 513 c 0,2,3
 374 513 374 513 431.5 457 c 128,-1,4
 489 401 489 401 489 291 c 1,5,-1
 475 193 l 1,6,-1
 201 193 l 1,7,8
 203 177 203 177 208.5 166 c 128,-1,9
 214 155 214 155 224 147.5 c 128,-1,10
 234 140 234 140 250.5 136.5 c 128,-1,11
 267 133 267 133 292 133 c 0,12,13
 332 133 332 133 369 134 c 128,-1,14
 406 135 406 135 444 139 c 2,15,-1
 471 142 l 1,16,-1
 473 21 l 1,17,18
 359 -13 359 -13 259 -13 c 0,19,20
 201 -13 201 -13 159 -0.5 c 128,-1,21
 117 12 117 12 89 41 c 128,-1,22
 61 70 61 70 47.5 117 c 128,-1,23
 34 164 34 164 34 234 c 0,24,25
 34 376 34 376 90 445 c 0,0,1
200 304 m 1,26,-1
 326 304 l 1,27,28
 326 348 326 348 313.5 363 c 128,-1,29
 301 378 301 378 264 378 c 0,30,31
 226 378 226 378 213.5 362 c 128,-1,32
 201 346 201 346 200 304 c 1,26,-1
EndSplineSet
EndChar

StartChar: f
Encoding: 102 102 35
Width: 390
GlyphClass: 2
Flags: W
LayerCount: 2
Fore
SplineSet
30 493 m 1,0,-1
 80 493 l 1,1,-1
 80 510 l 2,2,3
 80 565 80 565 87.5 602 c 128,-1,4
 95 639 95 639 113 661.5 c 128,-1,5
 131 684 131 684 160.5 693.5 c 128,-1,6
 190 703 190 703 233 703 c 2,7,-1
 353 693 l 1,8,-1
 351 553 l 1,9,10
 331 554 331 554 315 555 c 0,11,12
 301 556 301 556 289 557 c 128,-1,13
 277 558 277 558 275 558 c 0,14,15
 263 558 263 558 254.5 545.5 c 128,-1,16
 246 533 246 533 246 509 c 2,17,-1
 246 493 l 1,18,-1
 354 493 l 1,19,-1
 354 353 l 1,20,-1
 246 353 l 1,21,-1
 246 0 l 1,22,-1
 80 0 l 1,23,-1
 80 353 l 1,24,-1
 30 353 l 1,25,-1
 30 493 l 1,0,-1
EndSplineSet
EndChar

StartChar: g
Encoding: 103 103 36
Width: 591
GlyphClass: 2
Flags: W
LayerCount: 2
Fore
SplineSet
50 -37 m 0,0,1
 65 -9 65 -9 102 22 c 1,2,3
 82 36 82 36 71 55 c 128,-1,4
 60 74 60 74 60 92 c 0,5,6
 60 104 60 104 64.5 116.5 c 128,-1,7
 69 129 69 129 75.5 141 c 128,-1,8
 82 153 82 153 89.5 164 c 128,-1,9
 97 175 97 175 102 183 c 1,10,11
 40 240 40 240 40 329 c 0,12,13
 40 374 40 374 55.5 408 c 128,-1,14
 71 442 71 442 99.5 464.5 c 128,-1,15
 128 487 128 487 167.5 498.5 c 128,-1,16
 207 510 207 510 255 510 c 0,17,18
 304 510 304 510 362 497 c 1,19,-1
 530 502 l 1,20,-1
 530 373 l 1,21,-1
 466 381 l 1,22,23
 471 370 471 370 474.5 362.5 c 128,-1,24
 478 355 478 355 479.5 349 c 128,-1,25
 481 343 481 343 481.5 336 c 128,-1,26
 482 329 482 329 482 319 c 0,27,28
 482 229 482 229 428.5 189.5 c 128,-1,29
 375 150 375 150 268 150 c 0,30,31
 237 150 237 150 224 154 c 1,32,33
 219 142 219 142 219 137 c 2,34,-1
 219 124 l 2,35,36
 219 113 219 113 231.5 108 c 128,-1,37
 244 103 244 103 261 101.5 c 128,-1,38
 278 100 278 100 295 100 c 2,39,-1
 319 100 l 2,40,41
 370 98 370 98 405 94.5 c 128,-1,42
 440 91 440 91 470 83 c 0,43,44
 508 69 508 69 521 37 c 128,-1,45
 534 5 534 5 534 -45 c 0,46,47
 534 -139 534 -139 468 -183 c 128,-1,48
 402 -227 402 -227 271 -227 c 0,49,50
 220 -227 220 -227 176.5 -219.5 c 128,-1,51
 133 -212 133 -212 101.5 -196.5 c 128,-1,52
 70 -181 70 -181 52 -156 c 128,-1,53
 34 -131 34 -131 34 -96 c 0,54,55
 34 -65 34 -65 50 -37 c 0,0,1
197 -71 m 0,56,57
 197 -88 197 -88 215 -92 c 128,-1,58
 233 -96 233 -96 281 -97 c 0,59,60
 288 -97 288 -97 294 -97 c 0,61,62
 328 -97 328 -97 348 -86.5 c 128,-1,63
 368 -76 368 -76 368 -62 c 0,64,65
 368 -51 368 -51 356 -44.5 c 128,-1,66
 344 -38 344 -38 329 -35 c 128,-1,67
 314 -32 314 -32 302 -31 c 2,68,-1
 289 -30 l 1,69,-1
 209 -30 l 1,70,71
 202 -40 202 -40 199.5 -53.5 c 128,-1,72
 197 -67 197 -67 197 -71 c 0,56,57
222 292 m 0,73,74
 237 277 237 277 263 277 c 256,75,76
 289 277 289 277 304 291.5 c 128,-1,77
 319 306 319 306 319 330 c 256,78,79
 319 354 319 354 303.5 368.5 c 128,-1,80
 288 383 288 383 262 383 c 256,81,82
 236 383 236 383 221 368.5 c 128,-1,83
 206 354 206 354 206 331 c 0,84,85
 206 306 206 306 222 292 c 0,73,74
EndSplineSet
EndChar

StartChar: h
Encoding: 104 104 37
Width: 521
GlyphClass: 2
Flags: W
LayerCount: 2
Fore
SplineSet
54 0 m 1,0,-1
 54 690 l 1,1,-1
 221 690 l 1,2,-1
 221 478 l 1,3,4
 257 497 257 497 281 505 c 128,-1,5
 305 513 305 513 338 513 c 0,6,7
 381 513 381 513 412.5 499.5 c 128,-1,8
 444 486 444 486 465 457.5 c 128,-1,9
 486 429 486 429 496.5 384 c 128,-1,10
 507 339 507 339 507 275 c 2,11,-1
 507 0 l 1,12,-1
 341 0 l 1,13,-1
 341 271 l 2,14,15
 341 304 341 304 337 323 c 128,-1,16
 333 342 333 342 326 351 c 128,-1,17
 319 360 319 360 309 362.5 c 128,-1,18
 299 365 299 365 288 365 c 0,19,20
 270 365 270 365 252 362.5 c 128,-1,21
 234 360 234 360 220 356 c 1,22,-1
 220 0 l 1,23,-1
 54 0 l 1,0,-1
EndSplineSet
EndChar

StartChar: i
Encoding: 105 105 38
Width: 223
GlyphClass: 2
Flags: W
LayerCount: 2
Fore
SplineSet
27 0 m 1,0,-1
 27 500 l 1,1,-1
 193 500 l 1,2,-1
 193 0 l 1,3,-1
 27 0 l 1,0,-1
193 712 m 1,4,-1
 193 552 l 1,5,-1
 27 552 l 1,6,-1
 27 712 l 1,7,-1
 193 712 l 1,4,-1
EndSplineSet
EndChar

StartChar: j
Encoding: 106 106 39
Width: 249
GlyphClass: 2
Flags: W
LayerCount: 2
Fore
SplineSet
17 -65 m 0,0,1
 33 -46 33 -46 38 -26.5 c 128,-1,2
 43 -7 43 -7 43 30 c 2,3,-1
 43 500 l 1,4,-1
 209 500 l 1,5,-1
 209 29 l 2,6,7
 209 -45 209 -45 193.5 -88 c 128,-1,8
 178 -131 178 -131 140.5 -162.5 c 128,-1,9
 103 -194 103 -194 25 -234 c 1,10,-1
 -40 -113 l 1,11,12
 0 -83 0 -83 17 -65 c 0,0,1
209 712 m 1,13,-1
 209 552 l 1,14,-1
 43 552 l 1,15,-1
 43 712 l 1,16,-1
 209 712 l 1,13,-1
EndSplineSet
EndChar

StartChar: k
Encoding: 107 107 40
Width: 544
GlyphClass: 2
Flags: W
LayerCount: 2
Fore
SplineSet
54 690 m 1,0,-1
 220 690 l 1,1,-1
 220 306 l 1,2,-1
 257 318 l 1,3,-1
 332 500 l 1,4,-1
 517 500 l 1,5,-1
 405 259 l 1,6,-1
 524 0 l 1,7,-1
 337 0 l 1,8,-1
 262 175 l 1,9,-1
 220 163 l 1,10,-1
 220 0 l 1,11,-1
 54 0 l 1,12,-1
 54 690 l 1,0,-1
EndSplineSet
EndChar

StartChar: l
Encoding: 108 108 41
Width: 279
GlyphClass: 2
Flags: W
LayerCount: 2
Fore
SplineSet
52 0 m 1,0,-1
 52 690 l 1,1,-1
 218 690 l 1,2,-1
 218 0 l 1,3,-1
 52 0 l 1,0,-1
EndSplineSet
EndChar

StartChar: m
Encoding: 109 109 42
Width: 779
GlyphClass: 2
Flags: W
LayerCount: 2
Fore
SplineSet
192 500 m 1,0,-1
 192 476 l 1,1,2
 210 486 210 486 224.5 493 c 128,-1,3
 239 500 239 500 251 504.5 c 128,-1,4
 263 509 263 509 274 511 c 128,-1,5
 285 513 285 513 298 513 c 0,6,7
 328 513 328 513 360.5 502 c 128,-1,8
 393 491 393 491 416 468 c 1,9,10
 442 480 442 480 463 488.5 c 128,-1,11
 484 497 484 497 503.5 502.5 c 128,-1,12
 523 508 523 508 542.5 510.5 c 128,-1,13
 562 513 562 513 585 513 c 0,14,15
 629 513 629 513 661.5 502.5 c 128,-1,16
 694 492 694 492 715.5 465 c 128,-1,17
 737 438 737 438 748 392 c 128,-1,18
 759 346 759 346 759 275 c 2,19,-1
 759 0 l 1,20,-1
 593 0 l 1,21,-1
 593 270 l 2,22,23
 593 303 593 303 589 321.5 c 128,-1,24
 585 340 585 340 578 350 c 128,-1,25
 571 360 571 360 560.5 362.5 c 128,-1,26
 550 365 550 365 538 365 c 0,27,28
 534 365 534 365 525 363.5 c 128,-1,29
 516 362 516 362 506 360 c 128,-1,30
 496 358 496 358 486.5 356.5 c 128,-1,31
 477 355 477 355 471 354 c 1,32,33
 472 345 472 345 473 332 c 0,34,35
 473 320 473 320 473.5 302.5 c 128,-1,36
 474 285 474 285 474 259 c 2,37,-1
 474 0 l 1,38,-1
 308 0 l 1,39,-1
 308 257 l 2,40,41
 308 271 308 271 307 289.5 c 128,-1,42
 306 308 306 308 301 325 c 128,-1,43
 296 342 296 342 285.5 353.5 c 128,-1,44
 275 365 275 365 255 365 c 0,45,46
 242 365 242 365 223 361.5 c 128,-1,47
 204 358 204 358 193 357 c 1,48,-1
 193 0 l 1,49,-1
 27 0 l 1,50,-1
 27 500 l 1,51,-1
 192 500 l 1,0,-1
EndSplineSet
EndChar

StartChar: n
Encoding: 110 110 43
Width: 505
GlyphClass: 2
Flags: W
LayerCount: 2
Fore
SplineSet
27 0 m 1,0,-1
 27 500 l 1,1,-1
 192 500 l 1,2,-1
 192 476 l 1,3,4
 226 496 226 496 252 504.5 c 128,-1,5
 278 513 278 513 311 513 c 0,6,7
 353 513 353 513 384.5 500 c 128,-1,8
 416 487 416 487 437 458.5 c 128,-1,9
 458 430 458 430 469 385 c 128,-1,10
 480 340 480 340 480 275 c 2,11,-1
 480 0 l 1,12,-1
 314 0 l 1,13,-1
 314 270 l 2,14,15
 314 306 314 306 310 325 c 128,-1,16
 306 344 306 344 297.5 353 c 128,-1,17
 289 362 289 362 277 363.5 c 128,-1,18
 265 365 265 365 248 365 c 0,19,20
 242 365 242 365 223.5 362 c 128,-1,21
 205 359 205 359 193 357 c 1,22,-1
 193 0 l 1,23,-1
 27 0 l 1,0,-1
EndSplineSet
EndChar

StartChar: o
Encoding: 111 111 44
Width: 517
GlyphClass: 2
Flags: W
LayerCount: 2
Fore
SplineSet
37 369 m 256,0,1
 54 418 54 418 85.5 450 c 128,-1,2
 117 482 117 482 161 497.5 c 128,-1,3
 205 513 205 513 259 513 c 0,4,5
 370 513 370 513 434 447 c 128,-1,6
 498 381 498 381 498 251 c 0,7,8
 498 184 498 184 481 134.5 c 128,-1,9
 464 85 464 85 432.5 52 c 128,-1,10
 401 19 401 19 357 3 c 128,-1,11
 313 -13 313 -13 259 -13 c 0,12,13
 147 -13 147 -13 83.5 55 c 128,-1,14
 20 123 20 123 20 253 c 0,15,16
 20 320 20 320 37 369 c 256,0,1
194 189 m 0,17,18
 200 164 200 164 210 150.5 c 128,-1,19
 220 137 220 137 232.5 132 c 128,-1,20
 245 127 245 127 258 127 c 0,21,22
 273 127 273 127 286 133 c 128,-1,23
 299 139 299 139 309 153.5 c 128,-1,24
 319 168 319 168 324.5 192 c 128,-1,25
 330 216 330 216 330 253 c 0,26,27
 330 293 330 293 324 316.5 c 128,-1,28
 318 340 318 340 308 352.5 c 128,-1,29
 298 365 298 365 285.5 369 c 128,-1,30
 273 373 273 373 261 373 c 0,31,32
 246 373 246 373 232.5 368 c 128,-1,33
 219 363 219 363 209 349.5 c 128,-1,34
 199 336 199 336 193.5 312.5 c 128,-1,35
 188 289 188 289 188 252 c 0,36,37
 188 213 188 213 194 189 c 0,17,18
EndSplineSet
EndChar

StartChar: p
Encoding: 112 112 45
Width: 495
GlyphClass: 2
Flags: W
LayerCount: 2
Fore
SplineSet
27 500 m 1,0,-1
 192 500 l 1,1,-1
 192 478 l 1,2,3
 211 489 211 489 225 496 c 128,-1,4
 239 503 239 503 250.5 507 c 128,-1,5
 262 511 262 511 272.5 512 c 128,-1,6
 283 513 283 513 295 513 c 0,7,8
 394 513 394 513 443 448.5 c 128,-1,9
 492 384 492 384 492 242 c 0,10,11
 492 170 492 170 479 121 c 128,-1,12
 466 72 466 72 439 42.5 c 128,-1,13
 412 13 412 13 370.5 0 c 128,-1,14
 329 -13 329 -13 271 -13 c 0,15,16
 251 -13 251 -13 232 -11.5 c 128,-1,17
 213 -10 213 -10 193 -7 c 1,18,-1
 193 -204 l 1,19,-1
 27 -204 l 1,20,-1
 27 500 l 1,0,-1
220 131 m 256,21,22
 233 130 233 130 241 130 c 0,23,24
 288 130 288 130 306 155.5 c 128,-1,25
 324 181 324 181 324 244 c 0,26,27
 324 306 324 306 307.5 335.5 c 128,-1,28
 291 365 291 365 251 365 c 0,29,30
 237 365 237 365 221 362 c 128,-1,31
 205 359 205 359 193 355 c 1,32,-1
 193 134 l 1,33,34
 207 132 207 132 220 131 c 256,21,22
EndSplineSet
EndChar

StartChar: q
Encoding: 113 113 46
Width: 527
GlyphClass: 2
Flags: W
LayerCount: 2
Fore
SplineSet
48 357 m 0,0,1
 62 404 62 404 92.5 438.5 c 128,-1,2
 123 473 123 473 171.5 493 c 128,-1,3
 220 513 220 513 289 513 c 1,4,-1
 499 499 l 1,5,-1
 499 -204 l 1,6,-1
 332 -204 l 1,7,-1
 333 11 l 1,8,9
 314 4 314 4 300 -0.5 c 128,-1,10
 286 -5 286 -5 275 -8 c 128,-1,11
 264 -11 264 -11 253.5 -12 c 128,-1,12
 243 -13 243 -13 230 -13 c 0,13,14
 180 -13 180 -13 143 1.5 c 128,-1,15
 106 16 106 16 82 48.5 c 128,-1,16
 58 81 58 81 46 132 c 128,-1,17
 34 183 34 183 34 255 c 0,18,19
 34 309 34 309 48 357 c 0,0,1
200 262 m 0,20,21
 200 192 200 192 218 163.5 c 128,-1,22
 236 135 236 135 277 135 c 0,23,24
 289 135 289 135 303 136.5 c 128,-1,25
 317 138 317 138 333 140 c 1,26,-1
 333 367 l 1,27,28
 312 370 312 370 289 370 c 0,29,30
 264 370 264 370 246.5 365.5 c 128,-1,31
 229 361 229 361 219 349 c 128,-1,32
 209 337 209 337 204.5 316 c 128,-1,33
 200 295 200 295 200 262 c 0,20,21
EndSplineSet
EndChar

StartChar: r
Encoding: 114 114 47
Width: 366
GlyphClass: 2
Flags: W
LayerCount: 2
Fore
SplineSet
27 500 m 1,0,-1
 191 500 l 1,1,-1
 191 455 l 1,2,3
 278 500 278 500 339 512 c 1,4,-1
 339 346 l 1,5,6
 305 342 305 342 268 335.5 c 128,-1,7
 231 329 231 329 193 318 c 1,8,-1
 193 0 l 1,9,-1
 27 0 l 1,10,-1
 27 500 l 1,0,-1
EndSplineSet
EndChar

StartChar: s
Encoding: 115 115 48
Width: 460
GlyphClass: 2
Flags: W
LayerCount: 2
Fore
SplineSet
77 469 m 0,0,1
 130 512 130 512 219 512 c 0,2,3
 267 512 267 512 321.5 502 c 128,-1,4
 376 492 376 492 424 483 c 1,5,-1
 422 347 l 1,6,7
 353 355 353 355 307 363 c 128,-1,8
 261 371 261 371 238 372 c 0,9,10
 217 372 217 372 203 368.5 c 128,-1,11
 189 365 189 365 189 346 c 0,12,13
 189 341 189 341 191 336.5 c 128,-1,14
 193 332 193 332 200 328.5 c 128,-1,15
 207 325 207 325 220 321 c 128,-1,16
 233 317 233 317 255 312 c 0,17,18
 294 305 294 305 327 296.5 c 128,-1,19
 360 288 360 288 384.5 272.5 c 128,-1,20
 409 257 409 257 423 231 c 128,-1,21
 437 205 437 205 437 163 c 0,22,23
 437 -13 437 -13 233 -13 c 0,24,25
 185 -13 185 -13 133.5 -4.5 c 128,-1,26
 82 4 82 4 32 14 c 1,27,-1
 36 153 l 1,28,29
 57 149 57 149 82.5 144 c 128,-1,30
 108 139 108 139 133 135.5 c 128,-1,31
 158 132 158 132 179.5 129.5 c 128,-1,32
 201 127 201 127 214 127 c 0,33,34
 238 127 238 127 254.5 130.5 c 128,-1,35
 271 134 271 134 271 147 c 0,36,37
 271 158 271 158 259 165 c 128,-1,38
 247 172 247 172 231 177 c 128,-1,39
 215 182 215 182 199 185.5 c 128,-1,40
 183 189 183 189 175 191 c 0,41,42
 146 199 146 199 118.5 209.5 c 128,-1,43
 91 220 91 220 70 236.5 c 128,-1,44
 49 253 49 253 36 279 c 128,-1,45
 23 305 23 305 23 344 c 0,46,47
 23 425 23 425 77 469 c 0,0,1
EndSplineSet
EndChar

StartChar: t
Encoding: 116 116 49
Width: 375
GlyphClass: 2
Flags: W
LayerCount: 2
Fore
SplineSet
17 500 m 1,0,-1
 69 500 l 1,1,-1
 69 632 l 1,2,-1
 235 632 l 1,3,-1
 235 500 l 1,4,-1
 339 500 l 1,5,-1
 339 360 l 1,6,-1
 235 360 l 1,7,-1
 235 173 l 2,8,9
 235 146 235 146 240.5 141 c 128,-1,10
 246 136 246 136 255 136 c 0,11,12
 258 136 258 136 261 136 c 2,13,-1
 330 136 l 1,14,-1
 337 5 l 1,15,16
 316 0 316 0 301 -3.5 c 128,-1,17
 286 -7 286 -7 274 -9 c 128,-1,18
 262 -11 262 -11 252 -11.5 c 128,-1,19
 242 -12 242 -12 231 -12 c 0,20,21
 184 -12 184 -12 153 -2 c 128,-1,22
 122 8 122 8 103 31 c 128,-1,23
 84 54 84 54 76.5 90.5 c 128,-1,24
 69 127 69 127 69 181 c 2,25,-1
 69 360 l 1,26,-1
 17 360 l 1,27,-1
 17 500 l 1,0,-1
EndSplineSet
EndChar

StartChar: u
Encoding: 117 117 50
Width: 494
GlyphClass: 2
Flags: W
LayerCount: 2
Fore
SplineSet
28 500 m 1,0,-1
 194 500 l 1,1,-1
 194 227 l 2,2,3
 194 211 194 211 195 195 c 128,-1,4
 196 179 196 179 202 165.5 c 128,-1,5
 208 152 208 152 219.5 143.5 c 128,-1,6
 231 135 231 135 252 135 c 2,7,-1
 264 135 l 2,8,9
 269 135 269 135 275.5 136 c 128,-1,10
 282 137 282 137 292 138.5 c 128,-1,11
 302 140 302 140 319 143 c 1,12,-1
 319 500 l 1,13,-1
 485 500 l 1,14,-1
 485 0 l 1,15,-1
 321 0 l 1,16,-1
 321 24 l 1,17,18
 300 13 300 13 283 5.5 c 128,-1,19
 266 -2 266 -2 251 -6 c 128,-1,20
 236 -10 236 -10 222 -11.5 c 128,-1,21
 208 -13 208 -13 192 -13 c 0,22,23
 148 -13 148 -13 117 -1.5 c 128,-1,24
 86 10 86 10 66 38.5 c 128,-1,25
 46 67 46 67 37 115.5 c 128,-1,26
 28 164 28 164 28 238 c 2,27,-1
 28 500 l 1,0,-1
EndSplineSet
EndChar

StartChar: v
Encoding: 118 118 51
Width: 528
GlyphClass: 2
Flags: W
LayerCount: 2
Fore
SplineSet
17 500 m 1,0,-1
 189 500 l 1,1,-1
 249 140 l 1,2,-1
 272 140 l 1,3,-1
 336 500 l 1,4,-1
 504 500 l 1,5,-1
 395 0 l 1,6,-1
 125 0 l 1,7,-1
 17 500 l 1,0,-1
EndSplineSet
EndChar

StartChar: w
Encoding: 119 119 52
Width: 767
GlyphClass: 2
Flags: W
LayerCount: 2
Fore
SplineSet
15 500 m 1,0,-1
 178 500 l 1,1,-1
 217 140 l 1,2,-1
 245 140 l 1,3,-1
 298 490 l 1,4,-1
 468 490 l 1,5,-1
 521 140 l 1,6,-1
 549 140 l 1,7,-1
 589 500 l 1,8,-1
 752 500 l 1,9,-1
 670 0 l 1,10,-1
 428 0 l 1,11,-1
 383 260 l 1,12,-1
 339 0 l 1,13,-1
 97 0 l 1,14,-1
 15 500 l 1,0,-1
EndSplineSet
EndChar

StartChar: x
Encoding: 120 120 53
Width: 515
GlyphClass: 2
Flags: W
LayerCount: 2
Fore
SplineSet
18 500 m 1,0,-1
 194 500 l 1,1,-1
 251 367 l 1,2,-1
 310 500 l 1,3,-1
 486 500 l 1,4,-1
 353 257 l 1,5,-1
 487 0 l 1,6,-1
 311 0 l 1,7,-1
 251 131 l 1,8,-1
 194 0 l 1,9,-1
 18 0 l 1,10,-1
 144 251 l 1,11,-1
 18 500 l 1,0,-1
EndSplineSet
EndChar

StartChar: y
Encoding: 121 121 54
Width: 532
GlyphClass: 2
Flags: W
LayerCount: 2
Fore
SplineSet
17 500 m 1,0,-1
 179 500 l 1,1,-1
 252 140 l 1,2,-1
 270 140 l 1,3,-1
 342 500 l 1,4,-1
 504 500 l 1,5,-1
 346 -204 l 1,6,-1
 185 -204 l 1,7,-1
 234 0 l 1,8,-1
 130 0 l 1,9,-1
 17 500 l 1,0,-1
EndSplineSet
EndChar

StartChar: z
Encoding: 122 122 55
Width: 385
GlyphClass: 2
Flags: W
LayerCount: 2
Fore
SplineSet
383 500 m 1,0,-1
 383 352 l 1,1,-1
 210 149 l 1,2,-1
 383 149 l 1,3,-1
 383 0 l 1,4,-1
 12 0 l 1,5,-1
 12 149 l 1,6,-1
 184 352 l 1,7,-1
 12 352 l 1,8,-1
 12 500 l 1,9,-1
 383 500 l 1,0,-1
EndSplineSet
EndChar

StartChar: uni0621
Encoding: 1569 1569 56
AltUni2: 00fe80.ffffffff.0
Width: 406
GlyphClass: 2
Flags: W
LayerCount: 2
Fore
SplineSet
111 131 m 1,0,1
 110 131 110 131 102.5 136 c 128,-1,2
 95 141 95 141 87 157 c 2,3,-1
 81 170 l 2,4,5
 69 197 69 197 69 222 c 128,-1,6
 69 247 69 247 78 268 c 128,-1,7
 87 289 87 289 104.5 305.5 c 128,-1,8
 122 322 122 322 144 331 c 2,9,-1
 243 372 l 1,10,-1
 291 253 l 1,11,-1
 200 216 l 2,12,13
 195 214 195 214 195 209 c 0,14,15
 195 205 195 205 198 198 c 0,16,17
 200 194 200 194 201.5 190.5 c 128,-1,18
 203 187 203 187 207 179 c 1,19,-1
 321 239 l 1,20,-1
 376 129 l 1,21,-1
 93 -15 l 1,22,-1
 40 95 l 1,23,-1
 111 131 l 1,0,1
EndSplineSet
Substitution2: "'fina' Terminal Forms in Arabic lookup 3 subtable" uni0621
Substitution2: "'medi' Medial Forms in Arabic lookup 2 subtable" uni0621
Substitution2: "'isol' Isolated Forms in Arabic lookup 1 subtable" uni0621
Substitution2: "'init' Initial Forms in Arabic lookup 0 subtable" uni0621
EndChar

StartChar: uni0627
Encoding: 1575 1575 57
AltUni2: 00fe8d.ffffffff.0
Width: 214
GlyphClass: 2
Flags: W
AnchorPoint: "Anchor-1" 100 -150 basechar 0
AnchorPoint: "Anchor-0" 100 50 basechar 0
LayerCount: 2
Fore
SplineSet
40 0 m 1,0,-1
 40 706 l 1,1,-1
 184 706 l 1,2,-1
 184 0 l 1,3,-1
 40 0 l 1,0,-1
EndSplineSet
Substitution2: "'fina' Terminal Forms in Arabic lookup 3 subtable" uniFE8E
Substitution2: "'medi' Medial Forms in Arabic lookup 2 subtable" uniFE8E
Substitution2: "'isol' Isolated Forms in Arabic lookup 1 subtable" uni0627
Substitution2: "'init' Initial Forms in Arabic lookup 0 subtable" uni0627
EndChar

StartChar: uniFE8E
Encoding: 65166 65166 58
Width: 255
GlyphClass: 2
Flags: W
AnchorPoint: "Anchor-1" 150 -150 basechar 0
AnchorPoint: "Anchor-0" 100 50 basechar 0
LayerCount: 2
Fore
SplineSet
40 195 m 2,0,-1
 40 707 l 1,1,-1
 185 707 l 1,2,-1
 185 198 l 2,3,4
 185 186 185 186 193 178 c 128,-1,5
 201 170 201 170 213 170 c 2,6,-1
 255 170 l 2,7,8
 261 170 261 170 265 165.5 c 128,-1,9
 269 161 269 161 269 155 c 2,10,-1
 269 14 l 2,11,12
 269 0 269 0 255 0 c 2,13,-1
 235 0 l 2,14,15
 195 0 195 0 159 15.5 c 128,-1,16
 123 31 123 31 97 57 c 128,-1,17
 71 83 71 83 55.5 119 c 128,-1,18
 40 155 40 155 40 195 c 2,0,-1
EndSplineSet
EndChar

StartChar: uni0623
Encoding: 1571 1571 59
AltUni2: 00fe83.ffffffff.0
Width: 194
GlyphClass: 2
Flags: W
AnchorPoint: "Anchor-1" 120 -150 basechar 0
AnchorPoint: "Anchor-0" 120 300 basechar 0
LayerCount: 2
Fore
SplineSet
168 631 m 1,0,-1
 168 0 l 1,1,-1
 23 0 l 1,2,-1
 23 631 l 1,3,-1
 168 631 l 1,0,-1
-33 772 m 1,4,-1
 31 799 l 1,5,6
 30 799 30 799 24 801.5 c 128,-1,7
 18 804 18 804 12 818 c 0,8,9
 10 822 10 822 9 825 c 2,10,-1
 5 833 l 2,11,12
 -6 859 -6 859 -6 881 c 0,13,14
 -6 901 -6 901 7.5 929.5 c 128,-1,15
 21 958 21 958 60 975 c 2,16,-1
 147 1011 l 1,17,-1
 189 906 l 1,18,-1
 109 874 l 2,19,20
 106 872 106 872 105.5 870 c 128,-1,21
 105 868 105 868 105 868 c 2,22,23
 105 865 105 865 108 859 c 0,24,25
 110 855 110 855 111 851.5 c 128,-1,26
 112 848 112 848 115 841 c 1,27,-1
 215 894 l 1,28,-1
 264 798 l 1,29,-1
 15 671 l 1,30,-1
 -33 772 l 1,4,-1
EndSplineSet
Substitution2: "'fina' Terminal Forms in Arabic lookup 3 subtable" uniFE84
Substitution2: "'medi' Medial Forms in Arabic lookup 2 subtable" uniFE84
Substitution2: "'isol' Isolated Forms in Arabic lookup 1 subtable" uni0623
Substitution2: "'init' Initial Forms in Arabic lookup 0 subtable" uni0623
EndChar

StartChar: uniFE84
Encoding: 65156 65156 60
Width: 257
GlyphClass: 2
Flags: W
AnchorPoint: "Anchor-1" 120 -150 basechar 0
AnchorPoint: "Anchor-0" 120 300 basechar 0
LayerCount: 2
Fore
SplineSet
171 629 m 1,0,-1
 171 198 l 2,1,2
 171 187 171 187 179.5 178.5 c 128,-1,3
 188 170 188 170 199 170 c 2,4,-1
 257 170 l 2,5,6
 263 170 263 170 267 165 c 128,-1,7
 271 160 271 160 271 155 c 2,8,-1
 271 14 l 2,9,10
 271 9 271 9 267 4.5 c 128,-1,11
 263 0 263 0 257 0 c 2,12,-1
 221 0 l 2,13,14
 181 0 181 0 145.5 15.5 c 128,-1,15
 110 31 110 31 83.5 57 c 128,-1,16
 57 83 57 83 42 119 c 128,-1,17
 27 155 27 155 27 195 c 2,18,-1
 27 629 l 1,19,-1
 171 629 l 1,0,-1
-33 773 m 1,20,-1
 31 800 l 1,21,22
 30 800 30 800 24 802 c 128,-1,23
 18 804 18 804 12 818 c 2,24,-1
 9 825 l 2,25,26
 7 828 7 828 6.5 830.5 c 128,-1,27
 6 833 6 833 5 834 c 0,28,29
 -6 859 -6 859 -6 882 c 0,30,31
 -6 901 -6 901 7.5 929.5 c 128,-1,32
 21 958 21 958 60 975 c 2,33,-1
 147 1011 l 1,34,-1
 189 907 l 1,35,-1
 109 874 l 2,36,37
 104 873 104 873 104 869 c 0,38,39
 104 866 104 866 106 863 c 2,40,-1
 115 842 l 1,41,-1
 215 895 l 1,42,-1
 264 798 l 1,43,-1
 15 672 l 1,44,-1
 -33 773 l 1,20,-1
EndSplineSet
EndChar

StartChar: uni0625
Encoding: 1573 1573 61
AltUni2: 00fe87.ffffffff.0
Width: 234
GlyphClass: 2
Flags: W
AnchorPoint: "Anchor-1" 100 -400 basechar 0
AnchorPoint: "Anchor-0" 150 50 basechar 0
LayerCount: 2
Fore
SplineSet
190 706 m 1,0,-1
 190 0 l 1,1,-1
 45 0 l 1,2,-1
 45 706 l 1,3,-1
 190 706 l 1,0,-1
32 -236 m 1,4,5
 31 -236 31 -236 25 -234 c 128,-1,6
 19 -232 19 -232 13 -218 c 0,7,8
 11 -214 11 -214 10 -211 c 0,9,10
 8 -208 8 -208 7.5 -205.5 c 128,-1,11
 7 -203 7 -203 6 -202 c 0,12,13
 -4 -179 -4 -179 -4 -157 c 128,-1,14
 -4 -135 -4 -135 4 -116 c 128,-1,15
 12 -97 12 -97 27 -83 c 128,-1,16
 42 -69 42 -69 61 -61 c 2,17,-1
 148 -25 l 1,18,-1
 190 -129 l 1,19,-1
 111 -162 l 2,20,21
 106 -164 106 -164 106 -169 c 0,22,23
 106 -172 106 -172 109 -178 c 0,24,25
 111 -181 111 -181 112 -184 c 128,-1,26
 113 -187 113 -187 117 -194 c 1,27,-1
 217 -142 l 1,28,-1
 265 -238 l 1,29,-1
 17 -364 l 1,30,-1
 -32 -263 l 1,31,-1
 32 -236 l 1,4,5
EndSplineSet
Substitution2: "'fina' Terminal Forms in Arabic lookup 3 subtable" uniFE88
Substitution2: "'medi' Medial Forms in Arabic lookup 2 subtable" uniFE88
Substitution2: "'isol' Isolated Forms in Arabic lookup 1 subtable" uni0625
Substitution2: "'init' Initial Forms in Arabic lookup 0 subtable" uni0625
EndChar

StartChar: uniFE88
Encoding: 65160 65160 62
Width: 274
GlyphClass: 2
Flags: W
AnchorPoint: "Anchor-1" 150 -400 basechar 0
AnchorPoint: "Anchor-0" 100 50 basechar 0
LayerCount: 2
Fore
SplineSet
185 707 m 1,0,-1
 185 198 l 2,1,2
 185 186 185 186 193 178 c 128,-1,3
 201 170 201 170 213 170 c 2,4,-1
 274 170 l 2,5,6
 280 170 280 170 284 165.5 c 128,-1,7
 288 161 288 161 288 155 c 2,8,-1
 288 14 l 2,9,10
 288 0 288 0 274 0 c 2,11,-1
 235 0 l 2,12,13
 195 0 195 0 159 15.5 c 128,-1,14
 123 31 123 31 97 57 c 128,-1,15
 71 83 71 83 55.5 119 c 128,-1,16
 40 155 40 155 40 195 c 2,17,-1
 40 707 l 1,18,-1
 185 707 l 1,0,-1
-11 -263 m 1,19,-1
 53 -236 l 1,20,21
 52 -236 52 -236 46 -234 c 128,-1,22
 40 -232 40 -232 34 -218 c 2,23,-1
 31 -211 l 2,24,25
 29 -208 29 -208 28.5 -205.5 c 128,-1,26
 28 -203 28 -203 27 -202 c 0,27,28
 17 -179 17 -179 17 -157 c 128,-1,29
 17 -135 17 -135 25 -116 c 128,-1,30
 33 -97 33 -97 48 -83 c 128,-1,31
 63 -69 63 -69 82 -61 c 2,32,-1
 169 -25 l 1,33,-1
 211 -129 l 1,34,-1
 132 -162 l 2,35,36
 129 -163 129 -163 128 -165.5 c 128,-1,37
 127 -168 127 -168 127 -169 c 0,38,39
 127 -171 127 -171 128 -173 c 2,40,-1
 138 -194 l 1,41,-1
 238 -142 l 1,42,-1
 286 -238 l 1,43,-1
 38 -364 l 1,44,-1
 -11 -263 l 1,19,-1
EndSplineSet
EndChar

StartChar: uni0622
Encoding: 1570 1570 63
AltUni2: 00fe81.ffffffff.0
Width: 299
GlyphClass: 2
Flags: W
AnchorPoint: "Anchor-1" 100 -150 basechar 0
AnchorPoint: "Anchor-0" 120 150 basechar 0
LayerCount: 2
Fore
SplineSet
96 631 m 1,0,-1
 241 631 l 1,1,-1
 241 0 l 1,2,-1
 96 0 l 1,3,-1
 96 631 l 1,0,-1
-30 643 m 1,4,-1
 -30 700 l 2,5,6
 -30 729 -30 729 -21 749.5 c 128,-1,7
 -12 770 -12 770 3.5 783 c 128,-1,8
 19 796 19 796 38.5 802.5 c 128,-1,9
 58 809 58 809 79 809 c 2,10,-1
 280 809 l 1,11,-1
 280 685 l 1,12,-1
 68 685 l 2,13,14
 59 685 59 685 59 677 c 2,15,-1
 59 643 l 1,16,-1
 -30 643 l 1,4,-1
EndSplineSet
Substitution2: "'fina' Terminal Forms in Arabic lookup 3 subtable" uniFE82
Substitution2: "'medi' Medial Forms in Arabic lookup 2 subtable" uniFE82
Substitution2: "'isol' Isolated Forms in Arabic lookup 1 subtable" uni0622
Substitution2: "'init' Initial Forms in Arabic lookup 0 subtable" uni0622
PairPos2: "'kern' Horizontal Kerning in Arabic lookup 6 subtable" uniFB92.alt dx=-50 dy=0 dh=-50 dv=0 dx=0 dy=0 dh=0 dv=0
PairPos2: "'kern' Horizontal Kerning in Arabic lookup 6 subtable" uniFB90.alt dx=-50 dy=0 dh=-50 dv=0 dx=0 dy=0 dh=0 dv=0
PairPos2: "'kern' Horizontal Kerning in Arabic lookup 6 subtable" uniFB8E.alt dx=-50 dy=0 dh=-50 dv=0 dx=0 dy=0 dh=0 dv=0
PairPos2: "'kern' Horizontal Kerning in Arabic lookup 6 subtable" uniFEBFFBFD dx=-50 dy=0 dh=-50 dv=0 dx=0 dy=0 dh=0 dv=0
PairPos2: "'kern' Horizontal Kerning in Arabic lookup 6 subtable" uniFEBBFBFD dx=-50 dy=0 dh=-50 dv=0 dx=0 dy=0 dh=0 dv=0
PairPos2: "'kern' Horizontal Kerning in Arabic lookup 6 subtable" uniFEB7FBFD dx=-50 dy=0 dh=-50 dv=0 dx=0 dy=0 dh=0 dv=0
PairPos2: "'kern' Horizontal Kerning in Arabic lookup 6 subtable" uniFEB3FBFD dx=-50 dy=0 dh=-50 dv=0 dx=0 dy=0 dh=0 dv=0
PairPos2: "'kern' Horizontal Kerning in Arabic lookup 6 subtable" uniFEF5 dx=20 dy=0 dh=20 dv=0 dx=0 dy=0 dh=0 dv=0
PairPos2: "'kern' Horizontal Kerning in Arabic lookup 6 subtable" uniFEF7 dx=20 dy=0 dh=20 dv=0 dx=0 dy=0 dh=0 dv=0
PairPos2: "'kern' Horizontal Kerning in Arabic lookup 6 subtable" uniFEFB dx=20 dy=0 dh=20 dv=0 dx=0 dy=0 dh=0 dv=0
PairPos2: "'kern' Horizontal Kerning in Arabic lookup 6 subtable" uniFBFE dx=-50 dy=0 dh=-50 dv=0 dx=0 dy=0 dh=0 dv=0
PairPos2: "'kern' Horizontal Kerning in Arabic lookup 6 subtable" uniFEF3 dx=-50 dy=0 dh=-50 dv=0 dx=0 dy=0 dh=0 dv=0
PairPos2: "'kern' Horizontal Kerning in Arabic lookup 6 subtable" uni0629 dx=-50 dy=0 dh=-50 dv=0 dx=0 dy=0 dh=0 dv=0
PairPos2: "'kern' Horizontal Kerning in Arabic lookup 6 subtable" uni06C0 dx=-30 dy=0 dh=-30 dv=0 dx=0 dy=0 dh=0 dv=0
PairPos2: "'kern' Horizontal Kerning in Arabic lookup 6 subtable" uniFEEB dx=-50 dy=0 dh=-50 dv=0 dx=0 dy=0 dh=0 dv=0
PairPos2: "'kern' Horizontal Kerning in Arabic lookup 6 subtable" uni0647 dx=-50 dy=0 dh=-50 dv=0 dx=0 dy=0 dh=0 dv=0
PairPos2: "'kern' Horizontal Kerning in Arabic lookup 6 subtable" uniFEE7 dx=-40 dy=0 dh=-40 dv=0 dx=0 dy=0 dh=0 dv=0
PairPos2: "'kern' Horizontal Kerning in Arabic lookup 6 subtable" uniFEE3 dx=-50 dy=0 dh=-50 dv=0 dx=0 dy=0 dh=0 dv=0
PairPos2: "'kern' Horizontal Kerning in Arabic lookup 6 subtable" uni0645 dx=-50 dy=0 dh=-50 dv=0 dx=0 dy=0 dh=0 dv=0
PairPos2: "'kern' Horizontal Kerning in Arabic lookup 6 subtable" uniFEDF dx=50 dy=0 dh=50 dv=0 dx=0 dy=0 dh=0 dv=0
PairPos2: "'kern' Horizontal Kerning in Arabic lookup 6 subtable" uni0644 dx=40 dy=0 dh=40 dv=0 dx=0 dy=0 dh=0 dv=0
PairPos2: "'kern' Horizontal Kerning in Arabic lookup 6 subtable" uniFB94 dx=80 dy=0 dh=80 dv=0 dx=0 dy=0 dh=0 dv=0
PairPos2: "'kern' Horizontal Kerning in Arabic lookup 6 subtable" uniFB90 dx=60 dy=0 dh=60 dv=0 dx=0 dy=0 dh=0 dv=0
PairPos2: "'kern' Horizontal Kerning in Arabic lookup 6 subtable" uni06A9 dx=60 dy=0 dh=60 dv=0 dx=0 dy=0 dh=0 dv=0
PairPos2: "'kern' Horizontal Kerning in Arabic lookup 6 subtable" uniFEDB dx=60 dy=0 dh=60 dv=0 dx=0 dy=0 dh=0 dv=0
PairPos2: "'kern' Horizontal Kerning in Arabic lookup 6 subtable" uniFED7 dx=-50 dy=0 dh=-50 dv=0 dx=0 dy=0 dh=0 dv=0
PairPos2: "'kern' Horizontal Kerning in Arabic lookup 6 subtable" uniFED3 dx=-50 dy=0 dh=-50 dv=0 dx=0 dy=0 dh=0 dv=0
PairPos2: "'kern' Horizontal Kerning in Arabic lookup 6 subtable" uni0641 dx=-50 dy=0 dh=-50 dv=0 dx=0 dy=0 dh=0 dv=0
PairPos2: "'kern' Horizontal Kerning in Arabic lookup 6 subtable" uniFECF dx=-50 dy=0 dh=-50 dv=0 dx=0 dy=0 dh=0 dv=0
PairPos2: "'kern' Horizontal Kerning in Arabic lookup 6 subtable" uni063A dx=-50 dy=0 dh=-50 dv=0 dx=0 dy=0 dh=0 dv=0
PairPos2: "'kern' Horizontal Kerning in Arabic lookup 6 subtable" uniFECB dx=-50 dy=0 dh=-50 dv=0 dx=0 dy=0 dh=0 dv=0
PairPos2: "'kern' Horizontal Kerning in Arabic lookup 6 subtable" uni0639 dx=-50 dy=0 dh=-50 dv=0 dx=0 dy=0 dh=0 dv=0
PairPos2: "'kern' Horizontal Kerning in Arabic lookup 6 subtable" uniFEC7 dx=-50 dy=0 dh=-50 dv=0 dx=0 dy=0 dh=0 dv=0
PairPos2: "'kern' Horizontal Kerning in Arabic lookup 6 subtable" uni0638 dx=-50 dy=0 dh=-50 dv=0 dx=0 dy=0 dh=0 dv=0
PairPos2: "'kern' Horizontal Kerning in Arabic lookup 6 subtable" uniFEC3 dx=-50 dy=0 dh=-50 dv=0 dx=0 dy=0 dh=0 dv=0
PairPos2: "'kern' Horizontal Kerning in Arabic lookup 6 subtable" uni0637 dx=-50 dy=0 dh=-50 dv=0 dx=0 dy=0 dh=0 dv=0
PairPos2: "'kern' Horizontal Kerning in Arabic lookup 6 subtable" uniFEBB dx=-50 dy=0 dh=-50 dv=0 dx=0 dy=0 dh=0 dv=0
PairPos2: "'kern' Horizontal Kerning in Arabic lookup 6 subtable" uni0635 dx=-50 dy=0 dh=-50 dv=0 dx=0 dy=0 dh=0 dv=0
PairPos2: "'kern' Horizontal Kerning in Arabic lookup 6 subtable" uniFEB7 dx=-50 dy=0 dh=-50 dv=0 dx=0 dy=0 dh=0 dv=0
PairPos2: "'kern' Horizontal Kerning in Arabic lookup 6 subtable" uni0634 dx=-50 dy=0 dh=-50 dv=0 dx=0 dy=0 dh=0 dv=0
PairPos2: "'kern' Horizontal Kerning in Arabic lookup 6 subtable" uniFEB3 dx=-50 dy=0 dh=-50 dv=0 dx=0 dy=0 dh=0 dv=0
PairPos2: "'kern' Horizontal Kerning in Arabic lookup 6 subtable" uni0633 dx=-50 dy=0 dh=-50 dv=0 dx=0 dy=0 dh=0 dv=0
PairPos2: "'kern' Horizontal Kerning in Arabic lookup 6 subtable" uni0630 dx=-50 dy=0 dh=-50 dv=0 dx=0 dy=0 dh=0 dv=0
PairPos2: "'kern' Horizontal Kerning in Arabic lookup 6 subtable" uni062F dx=-50 dy=0 dh=-50 dv=0 dx=0 dy=0 dh=0 dv=0
PairPos2: "'kern' Horizontal Kerning in Arabic lookup 6 subtable" uniFEA7 dx=-50 dy=0 dh=-50 dv=0 dx=0 dy=0 dh=0 dv=0
PairPos2: "'kern' Horizontal Kerning in Arabic lookup 6 subtable" uni062E dx=-50 dy=0 dh=-50 dv=0 dx=0 dy=0 dh=0 dv=0
PairPos2: "'kern' Horizontal Kerning in Arabic lookup 6 subtable" uniFEA3 dx=-50 dy=0 dh=-50 dv=0 dx=0 dy=0 dh=0 dv=0
PairPos2: "'kern' Horizontal Kerning in Arabic lookup 6 subtable" uni062D dx=-50 dy=0 dh=-50 dv=0 dx=0 dy=0 dh=0 dv=0
PairPos2: "'kern' Horizontal Kerning in Arabic lookup 6 subtable" uniFB7C dx=-50 dy=0 dh=-50 dv=0 dx=0 dy=0 dh=0 dv=0
PairPos2: "'kern' Horizontal Kerning in Arabic lookup 6 subtable" uni0686 dx=-50 dy=0 dh=-50 dv=0 dx=0 dy=0 dh=0 dv=0
PairPos2: "'kern' Horizontal Kerning in Arabic lookup 6 subtable" uniFE9F dx=-50 dy=0 dh=-50 dv=0 dx=0 dy=0 dh=0 dv=0
PairPos2: "'kern' Horizontal Kerning in Arabic lookup 6 subtable" uni062C dx=-50 dy=0 dh=-50 dv=0 dx=0 dy=0 dh=0 dv=0
PairPos2: "'kern' Horizontal Kerning in Arabic lookup 6 subtable" uniFE9B dx=10 dy=0 dh=10 dv=0 dx=0 dy=0 dh=0 dv=0
PairPos2: "'kern' Horizontal Kerning in Arabic lookup 6 subtable" uni062B dx=-50 dy=0 dh=-50 dv=0 dx=0 dy=0 dh=0 dv=0
PairPos2: "'kern' Horizontal Kerning in Arabic lookup 6 subtable" uniFE97 dx=-25 dy=0 dh=-25 dv=0 dx=0 dy=0 dh=0 dv=0
PairPos2: "'kern' Horizontal Kerning in Arabic lookup 6 subtable" uni062A dx=-50 dy=0 dh=-50 dv=0 dx=0 dy=0 dh=0 dv=0
PairPos2: "'kern' Horizontal Kerning in Arabic lookup 6 subtable" uniFB58 dx=-50 dy=0 dh=-50 dv=0 dx=0 dy=0 dh=0 dv=0
PairPos2: "'kern' Horizontal Kerning in Arabic lookup 6 subtable" uni067E dx=-50 dy=0 dh=-50 dv=0 dx=0 dy=0 dh=0 dv=0
PairPos2: "'kern' Horizontal Kerning in Arabic lookup 6 subtable" uniFE91 dx=-50 dy=0 dh=-50 dv=0 dx=0 dy=0 dh=0 dv=0
PairPos2: "'kern' Horizontal Kerning in Arabic lookup 6 subtable" uni0628 dx=-50 dy=0 dh=-50 dv=0 dx=0 dy=0 dh=0 dv=0
PairPos2: "'kern' Horizontal Kerning in Arabic lookup 6 subtable" uni0622 dx=40 dy=0 dh=40 dv=0 dx=0 dy=0 dh=0 dv=0
PairPos2: "'kern' Horizontal Kerning in Arabic lookup 6 subtable" uni0623 dx=80 dy=0 dh=80 dv=0 dx=0 dy=0 dh=0 dv=0
PairPos2: "'kern' Horizontal Kerning in Arabic lookup 6 subtable" uni0627 dx=40 dy=0 dh=40 dv=0 dx=0 dy=0 dh=0 dv=0
EndChar

StartChar: uniFE82
Encoding: 65154 65154 64
Width: 315
GlyphClass: 2
Flags: W
AnchorPoint: "Anchor-1" 100 -150 basechar 0
AnchorPoint: "Anchor-0" 120 150 basechar 0
LayerCount: 2
Fore
SplineSet
245 631 m 1,0,-1
 245 198 l 2,1,2
 245 187 245 187 253.5 178.5 c 128,-1,3
 262 170 262 170 273 170 c 2,4,-1
 315 170 l 2,5,6
 321 170 321 170 325 165.5 c 128,-1,7
 329 161 329 161 329 155 c 2,8,-1
 329 14 l 2,9,10
 329 9 329 9 325 4.5 c 128,-1,11
 321 0 321 0 315 0 c 2,12,-1
 295 0 l 2,13,14
 255 0 255 0 219 15.5 c 128,-1,15
 183 31 183 31 157 57 c 128,-1,16
 131 83 131 83 115.5 118.5 c 128,-1,17
 100 154 100 154 100 194 c 2,18,-1
 100 631 l 1,19,-1
 245 631 l 1,0,-1
-30 643 m 1,20,-1
 -30 700 l 2,21,22
 -30 729 -30 729 -21 749.5 c 128,-1,23
 -12 770 -12 770 3.5 783 c 128,-1,24
 19 796 19 796 38.5 802.5 c 128,-1,25
 58 809 58 809 79 809 c 2,26,-1
 280 809 l 1,27,-1
 280 685 l 1,28,-1
 68 685 l 2,29,30
 59 685 59 685 59 677 c 2,31,-1
 59 643 l 1,32,-1
 -30 643 l 1,20,-1
EndSplineSet
PairPos2: "'kern' Horizontal Kerning in Arabic lookup 6 subtable" uniFB92.alt dx=-50 dy=0 dh=-50 dv=0 dx=0 dy=0 dh=0 dv=0
PairPos2: "'kern' Horizontal Kerning in Arabic lookup 6 subtable" uniFB90.alt dx=-50 dy=0 dh=-50 dv=0 dx=0 dy=0 dh=0 dv=0
PairPos2: "'kern' Horizontal Kerning in Arabic lookup 6 subtable" uniFB8E.alt dx=-50 dy=0 dh=-50 dv=0 dx=0 dy=0 dh=0 dv=0
PairPos2: "'kern' Horizontal Kerning in Arabic lookup 6 subtable" uniFEBFFBFD dx=-50 dy=0 dh=-50 dv=0 dx=0 dy=0 dh=0 dv=0
PairPos2: "'kern' Horizontal Kerning in Arabic lookup 6 subtable" uniFEBBFBFD dx=-50 dy=0 dh=-50 dv=0 dx=0 dy=0 dh=0 dv=0
PairPos2: "'kern' Horizontal Kerning in Arabic lookup 6 subtable" uniFEB7FBFD dx=-50 dy=0 dh=-50 dv=0 dx=0 dy=0 dh=0 dv=0
PairPos2: "'kern' Horizontal Kerning in Arabic lookup 6 subtable" uniFEB3FBFD dx=-50 dy=0 dh=-50 dv=0 dx=0 dy=0 dh=0 dv=0
PairPos2: "'kern' Horizontal Kerning in Arabic lookup 6 subtable" uniFEF5 dx=20 dy=0 dh=20 dv=0 dx=0 dy=0 dh=0 dv=0
PairPos2: "'kern' Horizontal Kerning in Arabic lookup 6 subtable" uniFEF7 dx=20 dy=0 dh=20 dv=0 dx=0 dy=0 dh=0 dv=0
PairPos2: "'kern' Horizontal Kerning in Arabic lookup 6 subtable" uniFEFB dx=20 dy=0 dh=20 dv=0 dx=0 dy=0 dh=0 dv=0
PairPos2: "'kern' Horizontal Kerning in Arabic lookup 6 subtable" uniFBFE dx=-50 dy=0 dh=-50 dv=0 dx=0 dy=0 dh=0 dv=0
PairPos2: "'kern' Horizontal Kerning in Arabic lookup 6 subtable" uniFEF3 dx=-50 dy=0 dh=-50 dv=0 dx=0 dy=0 dh=0 dv=0
PairPos2: "'kern' Horizontal Kerning in Arabic lookup 6 subtable" uni0629 dx=-50 dy=0 dh=-50 dv=0 dx=0 dy=0 dh=0 dv=0
PairPos2: "'kern' Horizontal Kerning in Arabic lookup 6 subtable" uni06C0 dx=-30 dy=0 dh=-30 dv=0 dx=0 dy=0 dh=0 dv=0
PairPos2: "'kern' Horizontal Kerning in Arabic lookup 6 subtable" uniFEEB dx=-50 dy=0 dh=-50 dv=0 dx=0 dy=0 dh=0 dv=0
PairPos2: "'kern' Horizontal Kerning in Arabic lookup 6 subtable" uni0647 dx=-50 dy=0 dh=-50 dv=0 dx=0 dy=0 dh=0 dv=0
PairPos2: "'kern' Horizontal Kerning in Arabic lookup 6 subtable" uniFEE7 dx=-40 dy=0 dh=-40 dv=0 dx=0 dy=0 dh=0 dv=0
PairPos2: "'kern' Horizontal Kerning in Arabic lookup 6 subtable" uniFEE3 dx=-50 dy=0 dh=-50 dv=0 dx=0 dy=0 dh=0 dv=0
PairPos2: "'kern' Horizontal Kerning in Arabic lookup 6 subtable" uni0645 dx=-50 dy=0 dh=-50 dv=0 dx=0 dy=0 dh=0 dv=0
PairPos2: "'kern' Horizontal Kerning in Arabic lookup 6 subtable" uniFEDF dx=50 dy=0 dh=50 dv=0 dx=0 dy=0 dh=0 dv=0
PairPos2: "'kern' Horizontal Kerning in Arabic lookup 6 subtable" uni0644 dx=40 dy=0 dh=40 dv=0 dx=0 dy=0 dh=0 dv=0
PairPos2: "'kern' Horizontal Kerning in Arabic lookup 6 subtable" uniFB94 dx=80 dy=0 dh=80 dv=0 dx=0 dy=0 dh=0 dv=0
PairPos2: "'kern' Horizontal Kerning in Arabic lookup 6 subtable" uniFB90 dx=60 dy=0 dh=60 dv=0 dx=0 dy=0 dh=0 dv=0
PairPos2: "'kern' Horizontal Kerning in Arabic lookup 6 subtable" uni06A9 dx=60 dy=0 dh=60 dv=0 dx=0 dy=0 dh=0 dv=0
PairPos2: "'kern' Horizontal Kerning in Arabic lookup 6 subtable" uniFEDB dx=60 dy=0 dh=60 dv=0 dx=0 dy=0 dh=0 dv=0
PairPos2: "'kern' Horizontal Kerning in Arabic lookup 6 subtable" uniFED7 dx=-50 dy=0 dh=-50 dv=0 dx=0 dy=0 dh=0 dv=0
PairPos2: "'kern' Horizontal Kerning in Arabic lookup 6 subtable" uniFED3 dx=-50 dy=0 dh=-50 dv=0 dx=0 dy=0 dh=0 dv=0
PairPos2: "'kern' Horizontal Kerning in Arabic lookup 6 subtable" uni0641 dx=-50 dy=0 dh=-50 dv=0 dx=0 dy=0 dh=0 dv=0
PairPos2: "'kern' Horizontal Kerning in Arabic lookup 6 subtable" uniFECF dx=-50 dy=0 dh=-50 dv=0 dx=0 dy=0 dh=0 dv=0
PairPos2: "'kern' Horizontal Kerning in Arabic lookup 6 subtable" uni063A dx=-50 dy=0 dh=-50 dv=0 dx=0 dy=0 dh=0 dv=0
PairPos2: "'kern' Horizontal Kerning in Arabic lookup 6 subtable" uniFECB dx=-50 dy=0 dh=-50 dv=0 dx=0 dy=0 dh=0 dv=0
PairPos2: "'kern' Horizontal Kerning in Arabic lookup 6 subtable" uni0639 dx=-50 dy=0 dh=-50 dv=0 dx=0 dy=0 dh=0 dv=0
PairPos2: "'kern' Horizontal Kerning in Arabic lookup 6 subtable" uniFEC7 dx=-50 dy=0 dh=-50 dv=0 dx=0 dy=0 dh=0 dv=0
PairPos2: "'kern' Horizontal Kerning in Arabic lookup 6 subtable" uni0638 dx=-50 dy=0 dh=-50 dv=0 dx=0 dy=0 dh=0 dv=0
PairPos2: "'kern' Horizontal Kerning in Arabic lookup 6 subtable" uniFEC3 dx=-50 dy=0 dh=-50 dv=0 dx=0 dy=0 dh=0 dv=0
PairPos2: "'kern' Horizontal Kerning in Arabic lookup 6 subtable" uni0637 dx=-50 dy=0 dh=-50 dv=0 dx=0 dy=0 dh=0 dv=0
PairPos2: "'kern' Horizontal Kerning in Arabic lookup 6 subtable" uniFEBB dx=-50 dy=0 dh=-50 dv=0 dx=0 dy=0 dh=0 dv=0
PairPos2: "'kern' Horizontal Kerning in Arabic lookup 6 subtable" uni0635 dx=-50 dy=0 dh=-50 dv=0 dx=0 dy=0 dh=0 dv=0
PairPos2: "'kern' Horizontal Kerning in Arabic lookup 6 subtable" uniFEB7 dx=-50 dy=0 dh=-50 dv=0 dx=0 dy=0 dh=0 dv=0
PairPos2: "'kern' Horizontal Kerning in Arabic lookup 6 subtable" uni0634 dx=-50 dy=0 dh=-50 dv=0 dx=0 dy=0 dh=0 dv=0
PairPos2: "'kern' Horizontal Kerning in Arabic lookup 6 subtable" uniFEB3 dx=-50 dy=0 dh=-50 dv=0 dx=0 dy=0 dh=0 dv=0
PairPos2: "'kern' Horizontal Kerning in Arabic lookup 6 subtable" uni0633 dx=-50 dy=0 dh=-50 dv=0 dx=0 dy=0 dh=0 dv=0
PairPos2: "'kern' Horizontal Kerning in Arabic lookup 6 subtable" uni0630 dx=-50 dy=0 dh=-50 dv=0 dx=0 dy=0 dh=0 dv=0
PairPos2: "'kern' Horizontal Kerning in Arabic lookup 6 subtable" uni062F dx=-50 dy=0 dh=-50 dv=0 dx=0 dy=0 dh=0 dv=0
PairPos2: "'kern' Horizontal Kerning in Arabic lookup 6 subtable" uniFEA7 dx=-50 dy=0 dh=-50 dv=0 dx=0 dy=0 dh=0 dv=0
PairPos2: "'kern' Horizontal Kerning in Arabic lookup 6 subtable" uni062E dx=-50 dy=0 dh=-50 dv=0 dx=0 dy=0 dh=0 dv=0
PairPos2: "'kern' Horizontal Kerning in Arabic lookup 6 subtable" uniFEA3 dx=-50 dy=0 dh=-50 dv=0 dx=0 dy=0 dh=0 dv=0
PairPos2: "'kern' Horizontal Kerning in Arabic lookup 6 subtable" uni062D dx=-50 dy=0 dh=-50 dv=0 dx=0 dy=0 dh=0 dv=0
PairPos2: "'kern' Horizontal Kerning in Arabic lookup 6 subtable" uniFB7C dx=-50 dy=0 dh=-50 dv=0 dx=0 dy=0 dh=0 dv=0
PairPos2: "'kern' Horizontal Kerning in Arabic lookup 6 subtable" uni0686 dx=-50 dy=0 dh=-50 dv=0 dx=0 dy=0 dh=0 dv=0
PairPos2: "'kern' Horizontal Kerning in Arabic lookup 6 subtable" uniFE9F dx=-50 dy=0 dh=-50 dv=0 dx=0 dy=0 dh=0 dv=0
PairPos2: "'kern' Horizontal Kerning in Arabic lookup 6 subtable" uni062C dx=-50 dy=0 dh=-50 dv=0 dx=0 dy=0 dh=0 dv=0
PairPos2: "'kern' Horizontal Kerning in Arabic lookup 6 subtable" uniFE9B dx=10 dy=0 dh=10 dv=0 dx=0 dy=0 dh=0 dv=0
PairPos2: "'kern' Horizontal Kerning in Arabic lookup 6 subtable" uni062B dx=-50 dy=0 dh=-50 dv=0 dx=0 dy=0 dh=0 dv=0
PairPos2: "'kern' Horizontal Kerning in Arabic lookup 6 subtable" uniFE97 dx=-25 dy=0 dh=-25 dv=0 dx=0 dy=0 dh=0 dv=0
PairPos2: "'kern' Horizontal Kerning in Arabic lookup 6 subtable" uni062A dx=-50 dy=0 dh=-50 dv=0 dx=0 dy=0 dh=0 dv=0
PairPos2: "'kern' Horizontal Kerning in Arabic lookup 6 subtable" uniFB58 dx=-50 dy=0 dh=-50 dv=0 dx=0 dy=0 dh=0 dv=0
PairPos2: "'kern' Horizontal Kerning in Arabic lookup 6 subtable" uni067E dx=-50 dy=0 dh=-50 dv=0 dx=0 dy=0 dh=0 dv=0
PairPos2: "'kern' Horizontal Kerning in Arabic lookup 6 subtable" uniFE91 dx=-50 dy=0 dh=-50 dv=0 dx=0 dy=0 dh=0 dv=0
PairPos2: "'kern' Horizontal Kerning in Arabic lookup 6 subtable" uni0628 dx=-50 dy=0 dh=-50 dv=0 dx=0 dy=0 dh=0 dv=0
PairPos2: "'kern' Horizontal Kerning in Arabic lookup 6 subtable" uni0622 dx=40 dy=0 dh=40 dv=0 dx=0 dy=0 dh=0 dv=0
PairPos2: "'kern' Horizontal Kerning in Arabic lookup 6 subtable" uni0623 dx=80 dy=0 dh=80 dv=0 dx=0 dy=0 dh=0 dv=0
PairPos2: "'kern' Horizontal Kerning in Arabic lookup 6 subtable" uni0627 dx=40 dy=0 dh=40 dv=0 dx=0 dy=0 dh=0 dv=0
EndChar

StartChar: uni0671
Encoding: 1649 1649 65
AltUni2: 00fb50.ffffffff.0
Width: 381
GlyphClass: 2
Flags: W
AnchorPoint: "Anchor-1" 170 -150 basechar 0
AnchorPoint: "Anchor-0" 180 220 basechar 0
LayerCount: 2
Fore
SplineSet
259 631 m 1,0,-1
 259 0 l 1,1,-1
 114 0 l 1,2,-1
 114 631 l 1,3,-1
 259 631 l 1,0,-1
-40 786 m 1,4,-1
 18 786 l 2,5,6
 24 788 24 788 24 792 c 2,7,-1
 24 871 l 1,8,-1
 113 871 l 1,9,-1
 113 843 l 2,10,11
 113 836 113 836 114 831.5 c 128,-1,12
 115 827 115 827 116 824 c 256,13,14
 117 821 117 821 119 819 c 1,15,-1
 177 883 l 2,16,17
 199 907 199 907 227 918 c 128,-1,18
 255 929 255 929 284 929 c 2,19,-1
 308 929 l 2,20,21
 332 929 332 929 352.5 920 c 128,-1,22
 373 911 373 911 388 895.5 c 128,-1,23
 403 880 403 880 412 859.5 c 128,-1,24
 421 839 421 839 421 816 c 2,25,-1
 421 795 l 2,26,27
 421 774 421 774 411.5 753.5 c 128,-1,28
 402 733 402 733 386 717.5 c 128,-1,29
 370 702 370 702 350 692 c 128,-1,30
 330 682 330 682 309 682 c 2,31,-1
 185 682 l 2,32,33
 153 682 153 682 124 688 c 128,-1,34
 95 694 95 694 79 713 c 1,35,36
 64 694 64 694 47 688 c 128,-1,37
 30 682 30 682 13 682 c 2,38,-1
 -40 682 l 1,39,-1
 -40 786 l 1,4,-1
327 787 m 1,40,-1
 327 813 l 2,41,42
 327 815 327 815 323 817 c 2,43,-1
 255 817 l 2,44,45
 247 816 247 816 237.5 812.5 c 128,-1,46
 228 809 228 809 220 801 c 2,47,-1
 205 787 l 1,48,-1
 327 787 l 1,40,-1
EndSplineSet
Substitution2: "'fina' Terminal Forms in Arabic lookup 3 subtable" uniFB51
Substitution2: "'medi' Medial Forms in Arabic lookup 2 subtable" uniFB51
Substitution2: "'isol' Isolated Forms in Arabic lookup 1 subtable" uni0671
Substitution2: "'init' Initial Forms in Arabic lookup 0 subtable" uni0671
EndChar

StartChar: uniFB51
Encoding: 64337 64337 66
Width: 339
GlyphClass: 2
Flags: W
AnchorPoint: "Anchor-1" 170 -150 basechar 0
AnchorPoint: "Anchor-0" 180 220 basechar 0
LayerCount: 2
Fore
SplineSet
104 195 m 2,0,-1
 104 631 l 1,1,-1
 249 631 l 1,2,-1
 249 198 l 2,3,4
 249 197 249 197 249 196 c 0,5,6
 249 186 249 186 257 178 c 128,-1,7
 265 170 265 170 276 170 c 2,8,-1
 339 170 l 2,9,10
 345 170 345 170 349 165.5 c 128,-1,11
 353 161 353 161 353 155 c 2,12,-1
 353 15 l 2,13,14
 353 0 353 0 339 0 c 2,15,-1
 299 0 l 2,16,17
 259 0 259 0 223 15.5 c 128,-1,18
 187 31 187 31 161 57 c 128,-1,19
 135 83 135 83 119.5 119 c 128,-1,20
 104 155 104 155 104 195 c 2,0,-1
-40 682 m 1,21,-1
 -40 786 l 1,22,-1
 18 786 l 2,23,24
 24 788 24 788 24 792 c 2,25,-1
 24 871 l 1,26,-1
 113 871 l 1,27,-1
 113 843 l 2,28,29
 113 836 113 836 114 831.5 c 128,-1,30
 115 827 115 827 116 824 c 256,31,32
 117 821 117 821 119 819 c 1,33,-1
 177 883 l 2,34,35
 199 907 199 907 227 918 c 128,-1,36
 255 929 255 929 284 929 c 2,37,-1
 308 929 l 2,38,39
 332 929 332 929 352.5 920 c 128,-1,40
 373 911 373 911 388 895.5 c 128,-1,41
 403 880 403 880 412 859.5 c 128,-1,42
 421 839 421 839 421 816 c 2,43,-1
 421 795 l 2,44,45
 421 774 421 774 411.5 753.5 c 128,-1,46
 402 733 402 733 386 717.5 c 128,-1,47
 370 702 370 702 350 692 c 128,-1,48
 330 682 330 682 309 682 c 2,49,-1
 185 682 l 2,50,51
 153 682 153 682 124 688 c 128,-1,52
 95 694 95 694 79 713 c 1,53,54
 64 694 64 694 47 688 c 128,-1,55
 30 682 30 682 13 682 c 2,56,-1
 -40 682 l 1,21,-1
327 787 m 1,57,-1
 327 813 l 2,58,59
 327 815 327 815 323 817 c 2,60,-1
 255 817 l 2,61,62
 247 816 247 816 237.5 812.5 c 128,-1,63
 228 809 228 809 220 801 c 2,64,-1
 205 787 l 1,65,-1
 327 787 l 1,57,-1
EndSplineSet
EndChar

StartChar: uni0628
Encoding: 1576 1576 67
AltUni2: 00fe8f.ffffffff.0
Width: 866
GlyphClass: 2
Flags: W
AnchorPoint: "Anchor-1" 430 -300 basechar 0
AnchorPoint: "Anchor-0" 450 -300 basechar 0
LayerCount: 2
Fore
SplineSet
40 223 m 2,0,-1
 40 427 l 1,1,-1
 185 427 l 1,2,-1
 185 233 l 2,3,4
 185 207 185 207 203.5 188.5 c 128,-1,5
 222 170 222 170 248 170 c 2,6,-1
 663 170 l 2,7,8
 675 170 675 170 683 178.5 c 128,-1,9
 691 187 691 187 691 198 c 2,10,-1
 691 427 l 1,11,-1
 836 427 l 1,12,-1
 836 199 l 2,13,14
 836 158 836 158 820.5 121.5 c 128,-1,15
 805 85 805 85 778 58 c 128,-1,16
 751 31 751 31 714.5 15.5 c 128,-1,17
 678 0 678 0 637 0 c 2,18,-1
 259 0 l 2,19,20
 214 0 214 0 174 17.5 c 128,-1,21
 134 35 134 35 104 65.5 c 128,-1,22
 74 96 74 96 57 136.5 c 128,-1,23
 40 177 40 177 40 223 c 2,0,-1
501 -118 m 1,24,-1
 501 -253 l 1,25,-1
 371 -253 l 1,26,-1
 371 -118 l 1,27,-1
 501 -118 l 1,24,-1
EndSplineSet
Substitution2: "'fina' Terminal Forms in Arabic lookup 3 subtable" uniFE90
Substitution2: "'medi' Medial Forms in Arabic lookup 2 subtable" uniFE92
Substitution2: "'isol' Isolated Forms in Arabic lookup 1 subtable" uni0628
Substitution2: "'init' Initial Forms in Arabic lookup 0 subtable" uniFE91
EndChar

StartChar: uniFE90
Encoding: 65168 65168 68
Width: 899
GlyphClass: 2
Flags: W
AnchorPoint: "Anchor-1" 430 -300 basechar 0
AnchorPoint: "Anchor-0" 450 -300 basechar 0
LayerCount: 2
Fore
SplineSet
40 222 m 2,0,-1
 40 426 l 1,1,-1
 184 426 l 1,2,-1
 184 231 l 2,3,4
 184 205 184 205 202.5 187 c 128,-1,5
 221 169 221 169 247 169 c 2,6,-1
 669 169 l 2,7,8
 681 169 681 169 689 177 c 128,-1,9
 697 185 697 185 697 196 c 2,10,-1
 697 397 l 1,11,-1
 841 397 l 1,12,-1
 841 199 l 2,13,14
 841 188 841 188 849 179 c 128,-1,15
 857 170 857 170 869 170 c 2,16,-1
 899 170 l 2,17,18
 905 170 905 170 909 165.5 c 128,-1,19
 913 161 913 161 913 156 c 2,20,-1
 913 13 l 2,21,22
 913 8 913 8 908.5 4 c 128,-1,23
 904 0 904 0 899 0 c 2,24,-1
 892 0 l 2,25,26
 857 0 857 0 826 11.5 c 128,-1,27
 795 23 795 23 769 51 c 1,28,29
 742 22 742 22 710 10.5 c 128,-1,30
 678 -1 678 -1 642 -1 c 2,31,-1
 262 -1 l 2,32,33
 216 -1 216 -1 175.5 16.5 c 128,-1,34
 135 34 135 34 105 64.5 c 128,-1,35
 75 95 75 95 57.5 135.5 c 128,-1,36
 40 176 40 176 40 222 c 2,0,-1
371 -118 m 1,37,-1
 501 -118 l 1,38,-1
 501 -253 l 1,39,-1
 371 -253 l 1,40,-1
 371 -118 l 1,37,-1
EndSplineSet
EndChar

StartChar: uniFE92
Encoding: 65170 65170 69
Width: 344
GlyphClass: 2
Flags: W
AnchorPoint: "Anchor-1" 170 -300 basechar 0
AnchorPoint: "Anchor-0" 170 -200 basechar 0
LayerCount: 2
Fore
SplineSet
-14 155 m 2,0,1
 -14 161 -14 161 -9.5 165.5 c 128,-1,2
 -5 170 -5 170 0 170 c 2,3,-1
 67 170 l 2,4,5
 79 170 79 170 89 177.5 c 128,-1,6
 99 185 99 185 101 198 c 2,7,-1
 141 398 l 1,8,-1
 283 372 l 1,9,-1
 250 205 l 2,10,11
 249 200 249 200 249 196 c 0,12,13
 249 186 249 186 255 178 c 128,-1,14
 261 170 261 170 275 170 c 2,15,-1
 345 170 l 2,16,17
 351 170 351 170 355.5 165 c 128,-1,18
 360 160 360 160 360 155 c 2,19,-1
 360 14 l 2,20,21
 360 9 360 9 355.5 4.5 c 128,-1,22
 351 0 351 0 345 0 c 2,23,-1
 275 0 l 2,24,25
 244 0 244 0 217 11.5 c 128,-1,26
 190 23 190 23 167 52 c 1,27,28
 141 23 141 23 111.5 11.5 c 128,-1,29
 82 0 82 0 50 0 c 2,30,-1
 0 0 l 2,31,32
 -5 0 -5 0 -9.5 4.5 c 128,-1,33
 -14 9 -14 9 -14 14 c 2,34,-1
 -14 155 l 2,0,1
232 -121 m 1,35,-1
 232 -256 l 1,36,-1
 102 -256 l 1,37,-1
 102 -121 l 1,38,-1
 232 -121 l 1,35,-1
EndSplineSet
EndChar

StartChar: uniFE91
Encoding: 65169 65169 70
Width: 324
GlyphClass: 2
Flags: W
AnchorPoint: "Anchor-1" 120 -300 basechar 0
AnchorPoint: "Anchor-0" 130 -200 basechar 0
LayerCount: 2
Fore
SplineSet
-14 154 m 2,0,1
 -14 160 -14 160 -10 165 c 128,-1,2
 -6 170 -6 170 0 170 c 2,3,-1
 122 170 l 2,4,5
 134 170 134 170 142 178.5 c 128,-1,6
 150 187 150 187 150 198 c 2,7,-1
 150 427 l 1,8,-1
 294 427 l 1,9,-1
 294 199 l 2,10,11
 294 158 294 158 278.5 121.5 c 128,-1,12
 263 85 263 85 236 58 c 128,-1,13
 209 31 209 31 172.5 15.5 c 128,-1,14
 136 0 136 0 95 0 c 2,15,-1
 0 0 l 2,16,17
 -6 0 -6 0 -10 4.5 c 128,-1,18
 -14 9 -14 9 -14 14 c 2,19,-1
 -14 154 l 2,0,1
132 -120 m 1,20,-1
 132 -255 l 1,21,-1
 2 -255 l 1,22,-1
 2 -120 l 1,23,-1
 132 -120 l 1,20,-1
EndSplineSet
EndChar

StartChar: uni067E
Encoding: 1662 1662 71
AltUni2: 00fb56.ffffffff.0
Width: 872
GlyphClass: 2
Flags: W
AnchorPoint: "Anchor-1" 450 -400 basechar 0
AnchorPoint: "Anchor-0" 450 -300 basechar 0
LayerCount: 2
Fore
SplineSet
185 427 m 1,0,-1
 185 233 l 2,1,2
 185 207 185 207 203.5 188.5 c 128,-1,3
 222 170 222 170 248 170 c 2,4,-1
 669 170 l 2,5,6
 681 170 681 170 689 178.5 c 128,-1,7
 697 187 697 187 697 198 c 2,8,-1
 697 427 l 1,9,-1
 842 427 l 1,10,-1
 842 199 l 2,11,12
 842 158 842 158 826.5 121.5 c 128,-1,13
 811 85 811 85 784 58 c 128,-1,14
 757 31 757 31 720.5 15.5 c 128,-1,15
 684 0 684 0 643 0 c 2,16,-1
 263 0 l 2,17,18
 217 0 217 0 176.5 17.5 c 128,-1,19
 136 35 136 35 105.5 65.5 c 128,-1,20
 75 96 75 96 57.5 136.5 c 128,-1,21
 40 177 40 177 40 223 c 2,22,-1
 40 427 l 1,23,-1
 185 427 l 1,0,-1
302 -255 m 1,24,-1
 302 -120 l 1,25,-1
 562 -120 l 1,26,-1
 562 -255 l 1,27,-1
 500 -255 l 1,28,-1
 500 -360 l 1,29,-1
 370 -360 l 1,30,-1
 370 -255 l 1,31,-1
 302 -255 l 1,24,-1
EndSplineSet
Substitution2: "'fina' Terminal Forms in Arabic lookup 3 subtable" uniFB57
Substitution2: "'medi' Medial Forms in Arabic lookup 2 subtable" uniFB59
Substitution2: "'isol' Isolated Forms in Arabic lookup 1 subtable" uni067E
Substitution2: "'init' Initial Forms in Arabic lookup 0 subtable" uniFB58
EndChar

StartChar: uniFB57
Encoding: 64343 64343 72
Width: 898
GlyphClass: 2
Flags: W
AnchorPoint: "Anchor-1" 470 -400 basechar 0
AnchorPoint: "Anchor-0" 450 -300 basechar 0
LayerCount: 2
Fore
SplineSet
184 427 m 1,0,-1
 184 232 l 2,1,2
 184 206 184 206 202.5 188 c 128,-1,3
 221 170 221 170 247 170 c 2,4,-1
 669 170 l 2,5,6
 681 170 681 170 689 178 c 128,-1,7
 697 186 697 186 697 197 c 2,8,-1
 697 398 l 1,9,-1
 841 398 l 1,10,-1
 841 200 l 2,11,12
 841 189 841 189 849 180 c 128,-1,13
 857 171 857 171 869 171 c 2,14,-1
 899 171 l 2,15,16
 905 171 905 171 909 166.5 c 128,-1,17
 913 162 913 162 913 157 c 2,18,-1
 913 14 l 2,19,20
 913 9 913 9 908.5 5 c 128,-1,21
 904 1 904 1 899 1 c 2,22,-1
 892 1 l 2,23,24
 857 1 857 1 826 12.5 c 128,-1,25
 795 24 795 24 769 52 c 1,26,27
 742 23 742 23 710 11.5 c 128,-1,28
 678 0 678 0 642 0 c 2,29,-1
 262 0 l 2,30,31
 216 0 216 0 175.5 17.5 c 128,-1,32
 135 35 135 35 105 65.5 c 128,-1,33
 75 96 75 96 57.5 136.5 c 128,-1,34
 40 177 40 177 40 223 c 2,35,-1
 40 427 l 1,36,-1
 184 427 l 1,0,-1
332 -120 m 1,37,-1
 592 -120 l 1,38,-1
 592 -255 l 1,39,-1
 530 -255 l 1,40,-1
 530 -360 l 1,41,-1
 400 -360 l 1,42,-1
 400 -255 l 1,43,-1
 332 -255 l 1,44,-1
 332 -120 l 1,37,-1
EndSplineSet
EndChar

StartChar: uniFB59
Encoding: 64345 64345 73
Width: 371
GlyphClass: 2
Flags: W
AnchorPoint: "Anchor-1" 170 -400 basechar 0
AnchorPoint: "Anchor-0" 170 -200 basechar 0
LayerCount: 2
Fore
SplineSet
-14 155 m 2,0,1
 -14 161 -14 161 -9.5 165.5 c 128,-1,2
 -5 170 -5 170 0 170 c 2,3,-1
 86 170 l 2,4,5
 98 170 98 170 108 177.5 c 128,-1,6
 118 185 118 185 120 198 c 2,7,-1
 160 398 l 1,8,-1
 302 372 l 1,9,-1
 269 205 l 2,10,11
 268 200 268 200 268 196 c 0,12,13
 268 186 268 186 274 178 c 128,-1,14
 280 170 280 170 294 170 c 2,15,-1
 371 170 l 2,16,17
 377 170 377 170 381 165 c 128,-1,18
 385 160 385 160 385 155 c 2,19,-1
 385 14 l 2,20,21
 385 9 385 9 381 4.5 c 128,-1,22
 377 0 377 0 371 0 c 2,23,-1
 294 0 l 2,24,25
 263 0 263 0 236 11.5 c 128,-1,26
 209 23 209 23 186 52 c 1,27,28
 160 23 160 23 130.5 11.5 c 128,-1,29
 101 0 101 0 69 0 c 2,30,-1
 0 0 l 2,31,32
 -5 0 -5 0 -9.5 4.5 c 128,-1,33
 -14 9 -14 9 -14 14 c 2,34,-1
 -14 155 l 2,0,1
57 -120 m 1,35,-1
 317 -120 l 1,36,-1
 317 -255 l 1,37,-1
 255 -255 l 1,38,-1
 255 -360 l 1,39,-1
 125 -360 l 1,40,-1
 125 -255 l 1,41,-1
 57 -255 l 1,42,-1
 57 -120 l 1,35,-1
EndSplineSet
EndChar

StartChar: uniFB58
Encoding: 64344 64344 74
Width: 442
GlyphClass: 2
Flags: W
AnchorPoint: "Anchor-1" 150 -400 basechar 0
AnchorPoint: "Anchor-0" 170 -200 basechar 0
LayerCount: 2
Fore
SplineSet
-14 154 m 2,0,1
 -14 160 -14 160 -10 165 c 128,-1,2
 -6 170 -6 170 0 170 c 2,3,-1
 230 170 l 2,4,5
 242 170 242 170 250 178.5 c 128,-1,6
 258 187 258 187 258 198 c 2,7,-1
 258 427 l 1,8,-1
 402 427 l 1,9,-1
 402 199 l 2,10,11
 402 158 402 158 386.5 121.5 c 128,-1,12
 371 85 371 85 344 58 c 128,-1,13
 317 31 317 31 280.5 15.5 c 128,-1,14
 244 0 244 0 203 0 c 2,15,-1
 0 0 l 2,16,17
 -6 0 -6 0 -10 4.5 c 128,-1,18
 -14 9 -14 9 -14 14 c 2,19,-1
 -14 154 l 2,0,1
21 -120 m 1,20,-1
 281 -120 l 1,21,-1
 281 -255 l 1,22,-1
 219 -255 l 1,23,-1
 219 -360 l 1,24,-1
 89 -360 l 1,25,-1
 89 -255 l 1,26,-1
 21 -255 l 1,27,-1
 21 -120 l 1,20,-1
EndSplineSet
EndChar

StartChar: uni062A
Encoding: 1578 1578 75
AltUni2: 00fe95.ffffffff.0
Width: 872
GlyphClass: 2
Flags: W
AnchorPoint: "Anchor-1" 400 -150 basechar 0
AnchorPoint: "Anchor-0" 420 -50 basechar 0
LayerCount: 2
Fore
SplineSet
40 223 m 2,0,-1
 40 427 l 1,1,-1
 185 427 l 1,2,-1
 185 233 l 2,3,4
 185 207 185 207 203.5 188.5 c 128,-1,5
 222 170 222 170 248 170 c 2,6,-1
 669 170 l 2,7,8
 681 170 681 170 689 178.5 c 128,-1,9
 697 187 697 187 697 198 c 2,10,-1
 697 427 l 1,11,-1
 842 427 l 1,12,-1
 842 199 l 2,13,14
 842 158 842 158 826.5 121.5 c 128,-1,15
 811 85 811 85 784 58 c 128,-1,16
 757 31 757 31 720.5 15.5 c 128,-1,17
 684 0 684 0 643 0 c 2,18,-1
 263 0 l 2,19,20
 217 0 217 0 176.5 17.5 c 128,-1,21
 136 35 136 35 105.5 65.5 c 128,-1,22
 75 96 75 96 57.5 136.5 c 128,-1,23
 40 177 40 177 40 223 c 2,0,-1
310 427 m 1,24,-1
 310 562 l 1,25,-1
 570 562 l 1,26,-1
 570 427 l 1,27,-1
 310 427 l 1,24,-1
EndSplineSet
Substitution2: "'fina' Terminal Forms in Arabic lookup 3 subtable" uniFE96
Substitution2: "'medi' Medial Forms in Arabic lookup 2 subtable" uniFE98
Substitution2: "'isol' Isolated Forms in Arabic lookup 1 subtable" uni062A
Substitution2: "'init' Initial Forms in Arabic lookup 0 subtable" uniFE97
EndChar

StartChar: uniFE96
Encoding: 65174 65174 76
Width: 898
GlyphClass: 2
Flags: W
AnchorPoint: "Anchor-1" 400 -150 basechar 0
AnchorPoint: "Anchor-0" 420 -50 basechar 0
LayerCount: 2
Fore
SplineSet
40 223 m 2,0,-1
 40 427 l 1,1,-1
 184 427 l 1,2,-1
 184 232 l 2,3,4
 184 206 184 206 202.5 188 c 128,-1,5
 221 170 221 170 247 170 c 2,6,-1
 669 170 l 2,7,8
 681 170 681 170 689 178 c 128,-1,9
 697 186 697 186 697 197 c 2,10,-1
 697 398 l 1,11,-1
 841 398 l 1,12,-1
 841 200 l 2,13,14
 841 189 841 189 849 180 c 128,-1,15
 857 171 857 171 869 171 c 2,16,-1
 899 171 l 2,17,18
 905 171 905 171 909 166.5 c 128,-1,19
 913 162 913 162 913 157 c 2,20,-1
 913 14 l 2,21,22
 913 9 913 9 908.5 5 c 128,-1,23
 904 1 904 1 899 1 c 2,24,-1
 892 1 l 2,25,26
 857 1 857 1 826 12.5 c 128,-1,27
 795 24 795 24 769 52 c 1,28,29
 742 23 742 23 710 11.5 c 128,-1,30
 678 0 678 0 642 0 c 2,31,-1
 262 0 l 2,32,33
 216 0 216 0 175.5 17.5 c 128,-1,34
 135 35 135 35 105 65.5 c 128,-1,35
 75 96 75 96 57.5 136.5 c 128,-1,36
 40 177 40 177 40 223 c 2,0,-1
310 427 m 1,37,-1
 310 562 l 1,38,-1
 570 562 l 1,39,-1
 570 427 l 1,40,-1
 310 427 l 1,37,-1
EndSplineSet
EndChar

StartChar: uniFE98
Encoding: 65176 65176 77
Width: 361
GlyphClass: 2
Flags: W
AnchorPoint: "Anchor-1" 150 -150 basechar 0
AnchorPoint: "Anchor-0" 180 0 basechar 0
LayerCount: 2
Fore
SplineSet
-14 155 m 2,0,1
 -14 161 -14 161 -9.5 165.5 c 128,-1,2
 -5 170 -5 170 0 170 c 2,3,-1
 86 170 l 2,4,5
 98 170 98 170 108 177.5 c 128,-1,6
 118 185 118 185 120 198 c 2,7,-1
 160 398 l 1,8,-1
 302 372 l 1,9,-1
 269 205 l 2,10,11
 268 200 268 200 268 196 c 0,12,13
 268 186 268 186 274 178 c 128,-1,14
 280 170 280 170 294 170 c 2,15,-1
 361 170 l 2,16,17
 367 170 367 170 371.5 165 c 128,-1,18
 376 160 376 160 376 155 c 2,19,-1
 376 14 l 2,20,21
 376 9 376 9 371.5 4.5 c 128,-1,22
 367 0 367 0 361 0 c 2,23,-1
 294 0 l 2,24,25
 263 0 263 0 236 11.5 c 128,-1,26
 209 23 209 23 186 52 c 1,27,28
 160 23 160 23 130.5 11.5 c 128,-1,29
 101 0 101 0 69 0 c 2,30,-1
 0 0 l 2,31,32
 -5 0 -5 0 -9.5 4.5 c 128,-1,33
 -14 9 -14 9 -14 14 c 2,34,-1
 -14 155 l 2,0,1
46 602 m 1,35,-1
 306 602 l 1,36,-1
 306 467 l 1,37,-1
 46 467 l 1,38,-1
 46 602 l 1,35,-1
EndSplineSet
EndChar

StartChar: uniFE97
Encoding: 65175 65175 78
Width: 326
GlyphClass: 2
Flags: W
AnchorPoint: "Anchor-1" 120 -150 basechar 0
AnchorPoint: "Anchor-0" 120 50 basechar 0
LayerCount: 2
Fore
SplineSet
-14 154 m 2,0,1
 -14 160 -14 160 -10 165 c 128,-1,2
 -6 170 -6 170 0 170 c 2,3,-1
 122 170 l 2,4,5
 134 170 134 170 142 178.5 c 128,-1,6
 150 187 150 187 150 198 c 2,7,-1
 150 427 l 1,8,-1
 294 427 l 1,9,-1
 294 199 l 2,10,11
 294 158 294 158 278.5 121.5 c 128,-1,12
 263 85 263 85 236 58 c 128,-1,13
 209 31 209 31 172.5 15.5 c 128,-1,14
 136 0 136 0 95 0 c 2,15,-1
 0 0 l 2,16,17
 -6 0 -6 0 -10 4.5 c 128,-1,18
 -14 9 -14 9 -14 14 c 2,19,-1
 -14 154 l 2,0,1
36 631 m 1,20,-1
 296 631 l 1,21,-1
 296 496 l 1,22,-1
 36 496 l 1,23,-1
 36 631 l 1,20,-1
EndSplineSet
EndChar

StartChar: uni062B
Encoding: 1579 1579 79
AltUni2: 00fe99.ffffffff.0
Width: 872
GlyphClass: 2
Flags: W
AnchorPoint: "Anchor-1" 400 -150 basechar 0
AnchorPoint: "Anchor-0" 420 0 basechar 0
LayerCount: 2
Fore
SplineSet
40 223 m 2,0,-1
 40 427 l 1,1,-1
 185 427 l 1,2,-1
 185 233 l 2,3,4
 185 207 185 207 203.5 188.5 c 128,-1,5
 222 170 222 170 248 170 c 2,6,-1
 669 170 l 2,7,8
 681 170 681 170 689 178.5 c 128,-1,9
 697 187 697 187 697 198 c 2,10,-1
 697 427 l 1,11,-1
 842 427 l 1,12,-1
 842 199 l 2,13,14
 842 158 842 158 826.5 121.5 c 128,-1,15
 811 85 811 85 784 58 c 128,-1,16
 757 31 757 31 720.5 15.5 c 128,-1,17
 684 0 684 0 643 0 c 2,18,-1
 263 0 l 2,19,20
 217 0 217 0 176.5 17.5 c 128,-1,21
 136 35 136 35 105.5 65.5 c 128,-1,22
 75 96 75 96 57.5 136.5 c 128,-1,23
 40 177 40 177 40 223 c 2,0,-1
316 562 m 1,24,-1
 378 562 l 1,25,-1
 378 667 l 1,26,-1
 508 667 l 1,27,-1
 508 562 l 1,28,-1
 576 562 l 1,29,-1
 576 427 l 1,30,-1
 316 427 l 1,31,-1
 316 562 l 1,24,-1
EndSplineSet
Substitution2: "'fina' Terminal Forms in Arabic lookup 3 subtable" uniFE9A
Substitution2: "'medi' Medial Forms in Arabic lookup 2 subtable" uniFE9C
Substitution2: "'isol' Isolated Forms in Arabic lookup 1 subtable" uni062B
Substitution2: "'init' Initial Forms in Arabic lookup 0 subtable" uniFE9B
EndChar

StartChar: uniFE9A
Encoding: 65178 65178 80
Width: 898
GlyphClass: 2
Flags: W
AnchorPoint: "Anchor-1" 400 -150 basechar 0
AnchorPoint: "Anchor-0" 420 0 basechar 0
LayerCount: 2
Fore
SplineSet
40 223 m 2,0,-1
 40 427 l 1,1,-1
 184 427 l 1,2,-1
 184 232 l 2,3,4
 184 206 184 206 202.5 188 c 128,-1,5
 221 170 221 170 247 170 c 2,6,-1
 669 170 l 2,7,8
 681 170 681 170 689 178 c 128,-1,9
 697 186 697 186 697 197 c 2,10,-1
 697 398 l 1,11,-1
 841 398 l 1,12,-1
 841 200 l 2,13,14
 841 189 841 189 849 180 c 128,-1,15
 857 171 857 171 869 171 c 2,16,-1
 899 171 l 2,17,18
 905 171 905 171 909 166.5 c 128,-1,19
 913 162 913 162 913 157 c 2,20,-1
 913 14 l 2,21,22
 913 9 913 9 908.5 5 c 128,-1,23
 904 1 904 1 899 1 c 2,24,-1
 892 1 l 2,25,26
 857 1 857 1 826 12.5 c 128,-1,27
 795 24 795 24 769 52 c 1,28,29
 742 23 742 23 710 11.5 c 128,-1,30
 678 0 678 0 642 0 c 2,31,-1
 262 0 l 2,32,33
 216 0 216 0 175.5 17.5 c 128,-1,34
 135 35 135 35 105 65.5 c 128,-1,35
 75 96 75 96 57.5 136.5 c 128,-1,36
 40 177 40 177 40 223 c 2,0,-1
316 562 m 1,37,-1
 378 562 l 1,38,-1
 378 667 l 1,39,-1
 508 667 l 1,40,-1
 508 562 l 1,41,-1
 576 562 l 1,42,-1
 576 427 l 1,43,-1
 316 427 l 1,44,-1
 316 562 l 1,37,-1
EndSplineSet
EndChar

StartChar: uniFE9C
Encoding: 65180 65180 81
Width: 362
GlyphClass: 2
Flags: W
AnchorPoint: "Anchor-1" 150 -150 basechar 0
AnchorPoint: "Anchor-0" 180 50 basechar 0
LayerCount: 2
Fore
SplineSet
-14 155 m 2,0,1
 -14 161 -14 161 -9.5 165.5 c 128,-1,2
 -5 170 -5 170 0 170 c 2,3,-1
 86 170 l 2,4,5
 98 170 98 170 108 177.5 c 128,-1,6
 118 185 118 185 120 198 c 2,7,-1
 160 398 l 1,8,-1
 302 372 l 1,9,-1
 269 205 l 2,10,11
 268 200 268 200 268 196 c 0,12,13
 268 186 268 186 274 178 c 128,-1,14
 280 170 280 170 294 170 c 2,15,-1
 361 170 l 2,16,17
 367 170 367 170 371.5 165 c 128,-1,18
 376 160 376 160 376 155 c 2,19,-1
 376 14 l 2,20,21
 376 9 376 9 371.5 4.5 c 128,-1,22
 367 0 367 0 361 0 c 2,23,-1
 294 0 l 2,24,25
 263 0 263 0 236 11.5 c 128,-1,26
 209 23 209 23 186 52 c 1,27,28
 160 23 160 23 130.5 11.5 c 128,-1,29
 101 0 101 0 69 0 c 2,30,-1
 0 0 l 2,31,32
 -5 0 -5 0 -9.5 4.5 c 128,-1,33
 -14 9 -14 9 -14 14 c 2,34,-1
 -14 155 l 2,0,1
48 602 m 1,35,-1
 110 602 l 1,36,-1
 110 707 l 1,37,-1
 240 707 l 1,38,-1
 240 602 l 1,39,-1
 308 602 l 1,40,-1
 308 467 l 1,41,-1
 48 467 l 1,42,-1
 48 602 l 1,35,-1
EndSplineSet
EndChar

StartChar: uniFE9B
Encoding: 65179 65179 82
Width: 326
GlyphClass: 2
Flags: W
AnchorPoint: "Anchor-1" 120 -150 basechar 0
AnchorPoint: "Anchor-0" 120 100 basechar 0
LayerCount: 2
Fore
SplineSet
-14 154 m 2,0,1
 -14 160 -14 160 -10 165 c 128,-1,2
 -6 170 -6 170 0 170 c 2,3,-1
 122 170 l 2,4,5
 134 170 134 170 142 178.5 c 128,-1,6
 150 187 150 187 150 198 c 2,7,-1
 150 427 l 1,8,-1
 294 427 l 1,9,-1
 294 199 l 2,10,11
 294 158 294 158 278.5 121.5 c 128,-1,12
 263 85 263 85 236 58 c 128,-1,13
 209 31 209 31 172.5 15.5 c 128,-1,14
 136 0 136 0 95 0 c 2,15,-1
 0 0 l 2,16,17
 -6 0 -6 0 -10 4.5 c 128,-1,18
 -14 9 -14 9 -14 14 c 2,19,-1
 -14 154 l 2,0,1
98 631 m 1,20,-1
 98 736 l 1,21,-1
 228 736 l 1,22,-1
 228 631 l 1,23,-1
 296 631 l 1,24,-1
 296 496 l 1,25,-1
 36 496 l 1,26,-1
 36 631 l 1,27,-1
 98 631 l 1,20,-1
EndSplineSet
EndChar

StartChar: uni062C
Encoding: 1580 1580 83
AltUni2: 00fe9d.ffffffff.0
Width: 709
GlyphClass: 2
Flags: W
AnchorPoint: "Anchor-1" 250 -450 basechar 0
AnchorPoint: "Anchor-0" 250 -100 basechar 0
LayerCount: 2
Fore
SplineSet
40 280 m 1,0,-1
 70 381 l 2,1,2
 80 414 80 414 101.5 439 c 128,-1,3
 123 464 123 464 151 479 c 128,-1,4
 179 494 179 494 199.5 496 c 128,-1,5
 220 498 220 498 229 498 c 0,6,7
 252 498 252 498 274 492 c 2,8,-1
 679 371 l 1,9,-1
 641 237 l 1,10,-1
 568 258 l 2,11,12
 558 261 558 261 553 261.5 c 128,-1,13
 548 262 548 262 546 262 c 0,14,15
 541 262 541 262 538 261 c 0,16,17
 532 260 532 260 528 258 c 2,18,-1
 264 60 l 2,19,20
 243 44 243 44 232 20.5 c 128,-1,21
 221 -3 221 -3 221 -29 c 256,22,23
 221 -55 221 -55 230.5 -77 c 128,-1,24
 240 -99 240 -99 257 -116 c 128,-1,25
 274 -133 274 -133 296.5 -142.5 c 128,-1,26
 319 -152 319 -152 344 -152 c 2,27,-1
 623 -152 l 1,28,-1
 623 -322 l 1,29,-1
 344 -322 l 2,30,31
 285 -322 285 -322 233 -300 c 128,-1,32
 181 -278 181 -278 142.5 -239.5 c 128,-1,33
 104 -201 104 -201 81.5 -150.5 c 128,-1,34
 59 -100 59 -100 59 -43 c 0,35,36
 59 17 59 17 84.5 67.5 c 128,-1,37
 110 118 110 118 155 150 c 0,38,39
 191 176 191 176 214 192.5 c 128,-1,40
 237 209 237 209 255.5 222.5 c 128,-1,41
 274 236 274 236 292 250 c 128,-1,42
 310 264 310 264 335 283 c 0,43,44
 354 297 354 297 369 307 c 0,45,46
 379 313 379 313 381 314 c 1,47,-1
 214 363 l 2,48,49
 213 363 213 363 212 363 c 0,50,51
 210 363 210 363 207 362 c 128,-1,52
 204 361 204 361 202 356 c 2,53,-1
 164 248 l 1,54,-1
 40 280 l 1,0,-1
407 -59 m 1,55,-1
 407 76 l 1,56,-1
 537 76 l 1,57,-1
 537 -59 l 1,58,-1
 407 -59 l 1,55,-1
EndSplineSet
Substitution2: "'fina' Terminal Forms in Arabic lookup 3 subtable" uniFE9E
Substitution2: "'medi' Medial Forms in Arabic lookup 2 subtable" uniFEA0
Substitution2: "'isol' Isolated Forms in Arabic lookup 1 subtable" uni062C
Substitution2: "'init' Initial Forms in Arabic lookup 0 subtable" uniFE9F
EndChar

StartChar: uniFE9E
Encoding: 65182 65182 84
Width: 706
GlyphClass: 2
Flags: W
AnchorPoint: "Anchor-1" 250 -450 basechar 0
AnchorPoint: "Anchor-0" 250 -100 basechar 0
LayerCount: 2
Fore
SplineSet
40 279 m 1,0,-1
 70 380 l 2,1,2
 80 413 80 413 101 438 c 128,-1,3
 122 463 122 463 150 478 c 128,-1,4
 178 493 178 493 199 495 c 128,-1,5
 220 497 220 497 229 497 c 0,6,7
 252 497 252 497 274 491 c 2,8,-1
 679 370 l 1,9,-1
 641 236 l 1,10,-1
 568 257 l 2,11,12
 556 261 556 261 547 261 c 0,13,14
 542 261 542 261 538 260 c 0,15,16
 532 259 532 259 528 257 c 1,17,-1
 528 198 l 2,18,19
 528 186 528 186 536 178 c 128,-1,20
 544 170 544 170 556 170 c 2,21,-1
 706 170 l 2,22,23
 712 170 712 170 715.5 165.5 c 128,-1,24
 719 161 719 161 720 156 c 2,25,-1
 720 14 l 2,26,27
 720 9 720 9 716 4.5 c 128,-1,28
 712 0 712 0 706 0 c 2,29,-1
 596 0 l 2,30,31
 558 0 558 0 527 13.5 c 128,-1,32
 496 27 496 27 474 50.5 c 128,-1,33
 452 74 452 74 439 104 c 128,-1,34
 426 134 426 134 423 167 c 2,35,-1
 423 172 l 1,36,-1
 264 59 l 2,37,38
 243 44 243 44 232 19.5 c 128,-1,39
 221 -5 221 -5 221 -31 c 0,40,41
 221 -56 221 -56 230.5 -78.5 c 128,-1,42
 240 -101 240 -101 257 -117.5 c 128,-1,43
 274 -134 274 -134 296.5 -143.5 c 128,-1,44
 319 -153 319 -153 344 -153 c 2,45,-1
 623 -153 l 1,46,-1
 623 -323 l 1,47,-1
 344 -323 l 2,48,49
 285 -323 285 -323 233 -301 c 128,-1,50
 181 -279 181 -279 142.5 -240.5 c 128,-1,51
 104 -202 104 -202 81.5 -151.5 c 128,-1,52
 59 -101 59 -101 59 -44 c 0,53,54
 59 16 59 16 84.5 66.5 c 128,-1,55
 110 117 110 117 155 149 c 0,56,57
 182 168 182 168 199 180.5 c 128,-1,58
 216 193 216 193 228 202 c 128,-1,59
 240 211 240 211 249.5 218 c 128,-1,60
 259 225 259 225 270.5 233.5 c 128,-1,61
 282 242 282 242 297 253.5 c 128,-1,62
 312 265 312 265 335 282 c 0,63,64
 354 296 354 296 369 306 c 0,65,66
 378 312 378 312 381 313 c 1,67,-1
 214 362 l 2,68,69
 213 362 213 362 212 362 c 0,70,71
 210 362 210 362 207 361 c 128,-1,72
 204 360 204 360 202 355 c 2,73,-1
 164 247 l 1,74,-1
 40 279 l 1,0,-1
435 50 m 1,75,-1
 435 -85 l 1,76,-1
 305 -85 l 1,77,-1
 305 50 l 1,78,-1
 435 50 l 1,75,-1
EndSplineSet
EndChar

StartChar: uniFEA0
Encoding: 65184 65184 85
Width: 685
GlyphClass: 2
Flags: W
AnchorPoint: "Anchor-1" 350 -350 basechar 0
AnchorPoint: "Anchor-0" 250 -200 basechar 0
LayerCount: 2
Fore
SplineSet
-10 165 m 0,0,1
 -5 170 -5 170 0 170 c 2,2,-1
 202 170 l 2,3,4
 240 170 240 170 278 182 c 128,-1,5
 316 194 316 194 341 224 c 2,6,-1
 373 270 l 2,7,8
 378 276 378 276 379 279 c 2,9,-1
 381 281 l 1,10,-1
 190 337 l 2,11,12
 188 337 188 337 187 337 c 0,13,14
 180 337 180 337 178 330 c 2,15,-1
 140 222 l 1,16,-1
 16 254 l 1,17,-1
 46 355 l 2,18,19
 57 391 57 391 79.5 416.5 c 128,-1,20
 102 442 102 442 130.5 455.5 c 128,-1,21
 159 469 159 469 179 471 c 128,-1,22
 199 473 199 473 207 473 c 0,23,24
 230 473 230 473 251 466 c 2,25,-1
 655 345 l 1,26,-1
 617 211 l 1,27,-1
 544 232 l 2,28,29
 531 236 531 236 523 236 c 0,30,31
 520 236 520 236 514.5 235 c 128,-1,32
 509 234 509 234 504 232 c 1,33,-1
 504 198 l 2,34,35
 504 187 504 187 512 178.5 c 128,-1,36
 520 170 520 170 532 170 c 2,37,-1
 685 170 l 2,38,39
 690 170 690 170 694.5 166.5 c 128,-1,40
 699 163 699 163 699 156 c 2,41,-1
 699 14 l 2,42,43
 699 9 699 9 695 4.5 c 128,-1,44
 691 0 691 0 685 0 c 2,45,-1
 585 0 l 2,46,47
 525 0 525 0 481 30.5 c 128,-1,48
 437 61 437 61 413 112 c 1,49,-1
 397 91 l 1,50,51
 352 43 352 43 289.5 22 c 128,-1,52
 227 1 227 1 161 0 c 2,53,-1
 0 0 l 2,54,55
 -6 0 -6 0 -10 4.5 c 128,-1,56
 -14 9 -14 9 -14 14 c 2,57,-1
 -14 154 l 2,58,59
 -14 160 -14 160 -10 165 c 0,0,1
409 -120 m 1,60,-1
 409 -255 l 1,61,-1
 279 -255 l 1,62,-1
 279 -120 l 1,63,-1
 409 -120 l 1,60,-1
EndSplineSet
EndChar

StartChar: uniFE9F
Encoding: 65183 65183 86
Width: 685
GlyphClass: 2
Flags: W
AnchorPoint: "Anchor-1" 350 -350 basechar 0
AnchorPoint: "Anchor-0" 250 -200 basechar 0
LayerCount: 2
Fore
SplineSet
-14 154 m 2,0,1
 -14 160 -14 160 -9.5 165 c 128,-1,2
 -5 170 -5 170 0 170 c 2,3,-1
 202 170 l 2,4,5
 240 170 240 170 278 182 c 128,-1,6
 316 194 316 194 341 224 c 2,7,-1
 373 270 l 2,8,9
 378 276 378 276 379 279 c 2,10,-1
 381 281 l 1,11,-1
 190 337 l 2,12,13
 188 338 188 338 186 338 c 0,14,15
 180 338 180 338 178 330 c 2,16,-1
 140 222 l 1,17,-1
 18 254 l 1,18,-1
 47 355 l 2,19,20
 58 391 58 391 80 416.5 c 128,-1,21
 102 442 102 442 130.5 455.5 c 128,-1,22
 159 469 159 469 178.5 471 c 128,-1,23
 198 473 198 473 206 473 c 0,24,25
 229 473 229 473 251 466 c 2,26,-1
 655 345 l 1,27,-1
 617 211 l 1,28,-1
 553 230 l 2,29,30
 536 234 536 234 526 234 c 0,31,32
 524 234 524 234 517.5 233.5 c 128,-1,33
 511 233 511 233 500 219 c 2,34,-1
 397 91 l 2,35,36
 376 66 376 66 349 48.5 c 128,-1,37
 322 31 322 31 291.5 20.5 c 128,-1,38
 261 10 261 10 227.5 5 c 128,-1,39
 194 0 194 0 161 0 c 2,40,-1
 0 0 l 2,41,42
 -6 0 -6 0 -10 4.5 c 128,-1,43
 -14 9 -14 9 -14 14 c 2,44,-1
 -14 154 l 2,0,1
283 -120 m 1,45,-1
 413 -120 l 1,46,-1
 413 -255 l 1,47,-1
 283 -255 l 1,48,-1
 283 -120 l 1,45,-1
EndSplineSet
EndChar

StartChar: uni0686
Encoding: 1670 1670 87
AltUni2: 00fb7a.ffffffff.0
Width: 709
GlyphClass: 2
Flags: W
AnchorPoint: "Anchor-1" 250 -450 basechar 0
AnchorPoint: "Anchor-0" 250 -100 basechar 0
LayerCount: 2
Fore
SplineSet
40 280 m 1,0,-1
 70 381 l 2,1,2
 80 414 80 414 101.5 439 c 128,-1,3
 123 464 123 464 151 479 c 128,-1,4
 179 494 179 494 199.5 496 c 128,-1,5
 220 498 220 498 229 498 c 0,6,7
 252 498 252 498 274 492 c 2,8,-1
 679 371 l 1,9,-1
 641 237 l 1,10,-1
 568 258 l 2,11,12
 558 261 558 261 553 261.5 c 128,-1,13
 548 262 548 262 546 262 c 0,14,15
 541 262 541 262 538 261 c 0,16,17
 532 260 532 260 528 258 c 2,18,-1
 264 60 l 2,19,20
 243 44 243 44 232 20.5 c 128,-1,21
 221 -3 221 -3 221 -29 c 256,22,23
 221 -55 221 -55 230.5 -77 c 128,-1,24
 240 -99 240 -99 257 -116 c 128,-1,25
 274 -133 274 -133 296.5 -142.5 c 128,-1,26
 319 -152 319 -152 344 -152 c 2,27,-1
 623 -152 l 1,28,-1
 623 -322 l 1,29,-1
 344 -322 l 2,30,31
 285 -322 285 -322 233 -300 c 128,-1,32
 181 -278 181 -278 142.5 -239.5 c 128,-1,33
 104 -201 104 -201 81.5 -150.5 c 128,-1,34
 59 -100 59 -100 59 -43 c 0,35,36
 59 17 59 17 84.5 67.5 c 128,-1,37
 110 118 110 118 155 150 c 0,38,39
 191 176 191 176 214 192.5 c 128,-1,40
 237 209 237 209 255.5 222.5 c 128,-1,41
 274 236 274 236 292 250 c 128,-1,42
 310 264 310 264 335 283 c 0,43,44
 354 297 354 297 369 307 c 0,45,46
 379 313 379 313 381 314 c 1,47,-1
 214 363 l 2,48,49
 213 363 213 363 212 363 c 0,50,51
 210 363 210 363 207 362 c 128,-1,52
 204 361 204 361 202 356 c 2,53,-1
 164 248 l 1,54,-1
 40 280 l 1,0,-1
369 94 m 1,55,-1
 586 94 l 1,56,-1
 586 -14 l 1,57,-1
 534 -14 l 1,58,-1
 534 -122 l 1,59,-1
 426 -122 l 1,60,-1
 426 -14 l 1,61,-1
 369 -14 l 1,62,-1
 369 94 l 1,55,-1
EndSplineSet
Substitution2: "'fina' Terminal Forms in Arabic lookup 3 subtable" uniFB7B
Substitution2: "'medi' Medial Forms in Arabic lookup 2 subtable" uniFB7D
Substitution2: "'isol' Isolated Forms in Arabic lookup 1 subtable" uni0686
Substitution2: "'init' Initial Forms in Arabic lookup 0 subtable" uniFB7C
EndChar

StartChar: uniFB7B
Encoding: 64379 64379 88
Width: 706
GlyphClass: 2
Flags: W
AnchorPoint: "Anchor-1" 250 -450 basechar 0
AnchorPoint: "Anchor-0" 250 -100 basechar 0
LayerCount: 2
Fore
SplineSet
40 279 m 1,0,-1
 70 380 l 2,1,2
 80 413 80 413 101 438 c 128,-1,3
 122 463 122 463 150 478 c 128,-1,4
 178 493 178 493 199 495 c 128,-1,5
 220 497 220 497 229 497 c 0,6,7
 252 497 252 497 274 491 c 2,8,-1
 679 370 l 1,9,-1
 641 236 l 1,10,-1
 568 257 l 2,11,12
 556 261 556 261 547 261 c 0,13,14
 542 261 542 261 538 260 c 0,15,16
 532 259 532 259 528 257 c 1,17,-1
 528 198 l 2,18,19
 528 186 528 186 536 178 c 128,-1,20
 544 170 544 170 556 170 c 2,21,-1
 706 170 l 2,22,23
 712 170 712 170 715.5 165.5 c 128,-1,24
 719 161 719 161 720 156 c 2,25,-1
 720 14 l 2,26,27
 720 9 720 9 716 4.5 c 128,-1,28
 712 0 712 0 706 0 c 2,29,-1
 596 0 l 2,30,31
 558 0 558 0 527 13.5 c 128,-1,32
 496 27 496 27 474 50.5 c 128,-1,33
 452 74 452 74 439 104 c 128,-1,34
 426 134 426 134 423 167 c 2,35,-1
 423 172 l 1,36,-1
 264 59 l 2,37,38
 243 44 243 44 232 19.5 c 128,-1,39
 221 -5 221 -5 221 -31 c 0,40,41
 221 -56 221 -56 230.5 -78.5 c 128,-1,42
 240 -101 240 -101 257 -117.5 c 128,-1,43
 274 -134 274 -134 296.5 -143.5 c 128,-1,44
 319 -153 319 -153 344 -153 c 2,45,-1
 623 -153 l 1,46,-1
 623 -323 l 1,47,-1
 344 -323 l 2,48,49
 285 -323 285 -323 233 -301 c 128,-1,50
 181 -279 181 -279 142.5 -240.5 c 128,-1,51
 104 -202 104 -202 81.5 -151.5 c 128,-1,52
 59 -101 59 -101 59 -44 c 0,53,54
 59 16 59 16 84.5 66.5 c 128,-1,55
 110 117 110 117 155 149 c 0,56,57
 182 168 182 168 199 180.5 c 128,-1,58
 216 193 216 193 228 202 c 128,-1,59
 240 211 240 211 249.5 218 c 128,-1,60
 259 225 259 225 270.5 233.5 c 128,-1,61
 282 242 282 242 297 253.5 c 128,-1,62
 312 265 312 265 335 282 c 0,63,64
 354 296 354 296 369 306 c 0,65,66
 378 312 378 312 381 313 c 1,67,-1
 214 362 l 2,68,69
 213 362 213 362 212 362 c 0,70,71
 210 362 210 362 207 361 c 128,-1,72
 204 360 204 360 202 355 c 2,73,-1
 164 247 l 1,74,-1
 40 279 l 1,0,-1
269 -47 m 1,75,-1
 269 35 l 1,76,-1
 458 35 l 1,77,-1
 458 -47 l 1,78,-1
 405 -47 l 1,79,-1
 405 -119 l 1,80,-1
 323 -119 l 1,81,-1
 323 -47 l 1,82,-1
 269 -47 l 1,75,-1
EndSplineSet
EndChar

StartChar: uniFB7D
Encoding: 64381 64381 89
Width: 685
GlyphClass: 2
Flags: W
AnchorPoint: "Anchor-1" 350 -400 basechar 0
AnchorPoint: "Anchor-0" 250 -200 basechar 0
LayerCount: 2
Fore
SplineSet
-14 14 m 2,0,-1
 -14 154 l 2,1,2
 -14 160 -14 160 -9.5 165 c 128,-1,3
 -5 170 -5 170 0 170 c 2,4,-1
 202 170 l 2,5,6
 240 170 240 170 278 182 c 128,-1,7
 316 194 316 194 341 224 c 2,8,-1
 373 270 l 2,9,10
 378 276 378 276 379 279 c 2,11,-1
 381 281 l 1,12,-1
 190 337 l 2,13,14
 188 337 188 337 187 337 c 0,15,16
 180 337 180 337 178 330 c 2,17,-1
 140 222 l 1,18,-1
 16 254 l 1,19,-1
 46 355 l 2,20,21
 57 391 57 391 79.5 416.5 c 128,-1,22
 102 442 102 442 130.5 455.5 c 128,-1,23
 159 469 159 469 179 471 c 128,-1,24
 199 473 199 473 207 473 c 0,25,26
 230 473 230 473 251 466 c 2,27,-1
 655 345 l 1,28,-1
 617 211 l 1,29,-1
 544 232 l 2,30,31
 531 236 531 236 523 236 c 0,32,33
 520 236 520 236 514.5 235 c 128,-1,34
 509 234 509 234 504 232 c 1,35,-1
 504 198 l 2,36,37
 504 187 504 187 512 178.5 c 128,-1,38
 520 170 520 170 532 170 c 2,39,-1
 685 170 l 2,40,41
 690 170 690 170 694.5 166.5 c 128,-1,42
 699 163 699 163 699 156 c 2,43,-1
 699 14 l 2,44,45
 699 9 699 9 695 4.5 c 128,-1,46
 691 0 691 0 685 0 c 2,47,-1
 585 0 l 2,48,49
 525 0 525 0 481 30.5 c 128,-1,50
 437 61 437 61 413 112 c 1,51,-1
 397 91 l 1,52,53
 352 43 352 43 289.5 22 c 128,-1,54
 227 1 227 1 161 0 c 2,55,-1
 0 0 l 2,56,57
 -6 0 -6 0 -10 4.5 c 128,-1,58
 -14 9 -14 9 -14 14 c 2,0,-1
192 -255 m 1,59,-1
 192 -120 l 1,60,-1
 452 -120 l 1,61,-1
 452 -255 l 1,62,-1
 390 -255 l 1,63,-1
 390 -360 l 1,64,-1
 260 -360 l 1,65,-1
 260 -255 l 1,66,-1
 192 -255 l 1,59,-1
EndSplineSet
EndChar

StartChar: uniFB7C
Encoding: 64380 64380 90
Width: 685
GlyphClass: 2
Flags: W
AnchorPoint: "Anchor-1" 350 -400 basechar 0
AnchorPoint: "Anchor-0" 250 -250 basechar 0
LayerCount: 2
Fore
SplineSet
-14 154 m 2,0,1
 -14 160 -14 160 -9.5 165 c 128,-1,2
 -5 170 -5 170 0 170 c 2,3,-1
 202 170 l 2,4,5
 240 170 240 170 278 182 c 128,-1,6
 316 194 316 194 341 224 c 2,7,-1
 373 270 l 2,8,9
 378 276 378 276 379 279 c 2,10,-1
 381 281 l 1,11,-1
 190 337 l 2,12,13
 188 338 188 338 186 338 c 0,14,15
 180 338 180 338 178 330 c 2,16,-1
 140 222 l 1,17,-1
 18 254 l 1,18,-1
 47 355 l 2,19,20
 58 391 58 391 80 416.5 c 128,-1,21
 102 442 102 442 130.5 455.5 c 128,-1,22
 159 469 159 469 178.5 471 c 128,-1,23
 198 473 198 473 206 473 c 0,24,25
 229 473 229 473 251 466 c 2,26,-1
 655 345 l 1,27,-1
 617 211 l 1,28,-1
 553 230 l 2,29,30
 536 234 536 234 526 234 c 0,31,32
 524 234 524 234 517.5 233.5 c 128,-1,33
 511 233 511 233 500 219 c 2,34,-1
 397 91 l 2,35,36
 376 66 376 66 349 48.5 c 128,-1,37
 322 31 322 31 291.5 20.5 c 128,-1,38
 261 10 261 10 227.5 5 c 128,-1,39
 194 0 194 0 161 0 c 2,40,-1
 0 0 l 2,41,42
 -6 0 -6 0 -10 4.5 c 128,-1,43
 -14 9 -14 9 -14 14 c 2,44,-1
 -14 154 l 2,0,1
207 -120 m 1,45,-1
 467 -120 l 1,46,-1
 467 -255 l 1,47,-1
 405 -255 l 1,48,-1
 405 -360 l 1,49,-1
 275 -360 l 1,50,-1
 275 -255 l 1,51,-1
 207 -255 l 1,52,-1
 207 -120 l 1,45,-1
EndSplineSet
EndChar

StartChar: uni062D
Encoding: 1581 1581 91
AltUni2: 00fea1.ffffffff.0
Width: 709
GlyphClass: 2
Flags: W
AnchorPoint: "Anchor-1" 250 -450 basechar 0
AnchorPoint: "Anchor-0" 250 -100 basechar 0
LayerCount: 2
Fore
SplineSet
40 280 m 1,0,-1
 70 381 l 2,1,2
 80 414 80 414 101.5 439 c 128,-1,3
 123 464 123 464 151 479 c 128,-1,4
 179 494 179 494 199.5 496 c 128,-1,5
 220 498 220 498 229 498 c 0,6,7
 252 498 252 498 274 492 c 2,8,-1
 679 371 l 1,9,-1
 641 237 l 1,10,-1
 568 258 l 2,11,12
 558 261 558 261 553 261.5 c 128,-1,13
 548 262 548 262 546 262 c 0,14,15
 541 262 541 262 538 261 c 0,16,17
 532 260 532 260 528 258 c 2,18,-1
 264 60 l 2,19,20
 243 44 243 44 232 20.5 c 128,-1,21
 221 -3 221 -3 221 -29 c 256,22,23
 221 -55 221 -55 230.5 -77 c 128,-1,24
 240 -99 240 -99 257 -116 c 128,-1,25
 274 -133 274 -133 296.5 -142.5 c 128,-1,26
 319 -152 319 -152 344 -152 c 2,27,-1
 623 -152 l 1,28,-1
 623 -322 l 1,29,-1
 344 -322 l 2,30,31
 285 -322 285 -322 233 -300 c 128,-1,32
 181 -278 181 -278 142.5 -239.5 c 128,-1,33
 104 -201 104 -201 81.5 -150.5 c 128,-1,34
 59 -100 59 -100 59 -43 c 0,35,36
 59 17 59 17 84.5 67.5 c 128,-1,37
 110 118 110 118 155 150 c 0,38,39
 191 176 191 176 214 192.5 c 128,-1,40
 237 209 237 209 255.5 222.5 c 128,-1,41
 274 236 274 236 292 250 c 128,-1,42
 310 264 310 264 335 283 c 0,43,44
 354 297 354 297 369 307 c 0,45,46
 379 313 379 313 381 314 c 1,47,-1
 214 363 l 2,48,49
 213 363 213 363 212 363 c 0,50,51
 210 363 210 363 207 362 c 128,-1,52
 204 361 204 361 202 356 c 2,53,-1
 164 248 l 1,54,-1
 40 280 l 1,0,-1
EndSplineSet
Substitution2: "'fina' Terminal Forms in Arabic lookup 3 subtable" uniFEA2
Substitution2: "'medi' Medial Forms in Arabic lookup 2 subtable" uniFEA4
Substitution2: "'isol' Isolated Forms in Arabic lookup 1 subtable" uni062D
Substitution2: "'init' Initial Forms in Arabic lookup 0 subtable" uniFEA3
EndChar

StartChar: uniFEA2
Encoding: 65186 65186 92
Width: 706
GlyphClass: 2
Flags: W
AnchorPoint: "Anchor-1" 250 -450 basechar 0
AnchorPoint: "Anchor-0" 250 -100 basechar 0
LayerCount: 2
Fore
SplineSet
70 380 m 2,0,1
 80 413 80 413 101 438 c 128,-1,2
 122 463 122 463 150 478 c 128,-1,3
 178 493 178 493 199 495 c 128,-1,4
 220 497 220 497 229 497 c 0,5,6
 252 497 252 497 274 491 c 2,7,-1
 679 370 l 1,8,-1
 641 236 l 1,9,-1
 568 257 l 2,10,11
 556 261 556 261 547 261 c 0,12,13
 542 261 542 261 538 260 c 0,14,15
 532 259 532 259 528 257 c 1,16,-1
 528 198 l 2,17,18
 528 186 528 186 536 178 c 128,-1,19
 544 170 544 170 556 170 c 2,20,-1
 706 170 l 2,21,22
 712 170 712 170 715.5 165.5 c 128,-1,23
 719 161 719 161 720 156 c 2,24,-1
 720 14 l 2,25,26
 720 9 720 9 716 4.5 c 128,-1,27
 712 0 712 0 706 0 c 2,28,-1
 596 0 l 2,29,30
 558 0 558 0 527 13.5 c 128,-1,31
 496 27 496 27 474 50.5 c 128,-1,32
 452 74 452 74 439 104 c 128,-1,33
 426 134 426 134 423 167 c 2,34,-1
 423 172 l 1,35,-1
 264 59 l 2,36,37
 243 44 243 44 232 19.5 c 128,-1,38
 221 -5 221 -5 221 -31 c 0,39,40
 221 -56 221 -56 230.5 -78.5 c 128,-1,41
 240 -101 240 -101 257 -117.5 c 128,-1,42
 274 -134 274 -134 296.5 -143.5 c 128,-1,43
 319 -153 319 -153 344 -153 c 2,44,-1
 623 -153 l 1,45,-1
 623 -323 l 1,46,-1
 344 -323 l 2,47,48
 285 -323 285 -323 233 -301 c 128,-1,49
 181 -279 181 -279 142.5 -240.5 c 128,-1,50
 104 -202 104 -202 81.5 -151.5 c 128,-1,51
 59 -101 59 -101 59 -44 c 0,52,53
 59 16 59 16 84.5 66.5 c 128,-1,54
 110 117 110 117 155 149 c 0,55,56
 182 168 182 168 199 180.5 c 128,-1,57
 216 193 216 193 228 202 c 128,-1,58
 240 211 240 211 249.5 218 c 128,-1,59
 259 225 259 225 270.5 233.5 c 128,-1,60
 282 242 282 242 297 253.5 c 128,-1,61
 312 265 312 265 335 282 c 0,62,63
 354 296 354 296 369 306 c 0,64,65
 378 312 378 312 381 313 c 1,66,-1
 214 362 l 2,67,68
 213 362 213 362 212 362 c 0,69,70
 210 362 210 362 207 361 c 128,-1,71
 204 360 204 360 202 355 c 2,72,-1
 164 247 l 1,73,-1
 40 279 l 1,74,-1
 70 380 l 2,0,1
EndSplineSet
EndChar

StartChar: uniFEA4
Encoding: 65188 65188 93
Width: 685
GlyphClass: 2
Flags: W
AnchorPoint: "Anchor-1" 250 -150 basechar 0
AnchorPoint: "Anchor-0" 250 -200 basechar 0
LayerCount: 2
Fore
SplineSet
-14 14 m 2,0,-1
 -14 154 l 2,1,2
 -14 160 -14 160 -9.5 165 c 128,-1,3
 -5 170 -5 170 0 170 c 2,4,-1
 202 170 l 2,5,6
 240 170 240 170 278 182 c 128,-1,7
 316 194 316 194 341 224 c 2,8,-1
 373 270 l 2,9,10
 378 276 378 276 379 279 c 2,11,-1
 381 281 l 1,12,-1
 190 337 l 2,13,14
 188 337 188 337 187 337 c 0,15,16
 180 337 180 337 178 330 c 2,17,-1
 140 222 l 1,18,-1
 16 254 l 1,19,-1
 46 355 l 2,20,21
 57 391 57 391 79.5 416.5 c 128,-1,22
 102 442 102 442 130.5 455.5 c 128,-1,23
 159 469 159 469 179 471 c 128,-1,24
 199 473 199 473 207 473 c 0,25,26
 230 473 230 473 251 466 c 2,27,-1
 655 345 l 1,28,-1
 617 211 l 1,29,-1
 544 232 l 2,30,31
 531 236 531 236 523 236 c 0,32,33
 520 236 520 236 514.5 235 c 128,-1,34
 509 234 509 234 504 232 c 1,35,-1
 504 198 l 2,36,37
 504 187 504 187 512 178.5 c 128,-1,38
 520 170 520 170 532 170 c 2,39,-1
 685 170 l 2,40,41
 690 170 690 170 694.5 166.5 c 128,-1,42
 699 163 699 163 699 156 c 2,43,-1
 699 14 l 2,44,45
 699 9 699 9 695 4.5 c 128,-1,46
 691 0 691 0 685 0 c 2,47,-1
 585 0 l 2,48,49
 525 0 525 0 481 30.5 c 128,-1,50
 437 61 437 61 413 112 c 1,51,-1
 397 91 l 1,52,53
 352 43 352 43 289.5 22 c 128,-1,54
 227 1 227 1 161 0 c 2,55,-1
 0 0 l 2,56,57
 -6 0 -6 0 -10 4.5 c 128,-1,58
 -14 9 -14 9 -14 14 c 2,0,-1
EndSplineSet
EndChar

StartChar: uniFEA3
Encoding: 65187 65187 94
Width: 685
GlyphClass: 2
Flags: W
AnchorPoint: "Anchor-1" 250 -150 basechar 0
AnchorPoint: "Anchor-0" 250 -200 basechar 0
LayerCount: 2
Fore
SplineSet
-14 154 m 2,0,1
 -14 160 -14 160 -9.5 165 c 128,-1,2
 -5 170 -5 170 0 170 c 2,3,-1
 202 170 l 2,4,5
 240 170 240 170 278 182 c 128,-1,6
 316 194 316 194 341 224 c 2,7,-1
 373 270 l 2,8,9
 378 276 378 276 379 279 c 2,10,-1
 381 281 l 1,11,-1
 190 337 l 2,12,13
 188 338 188 338 186 338 c 0,14,15
 180 338 180 338 178 330 c 2,16,-1
 140 222 l 1,17,-1
 18 254 l 1,18,-1
 47 355 l 2,19,20
 58 391 58 391 80 416.5 c 128,-1,21
 102 442 102 442 130.5 455.5 c 128,-1,22
 159 469 159 469 178.5 471 c 128,-1,23
 198 473 198 473 206 473 c 0,24,25
 229 473 229 473 251 466 c 2,26,-1
 655 345 l 1,27,-1
 617 211 l 1,28,-1
 553 230 l 2,29,30
 536 234 536 234 526 234 c 0,31,32
 524 234 524 234 517.5 233.5 c 128,-1,33
 511 233 511 233 500 219 c 2,34,-1
 397 91 l 2,35,36
 376 66 376 66 349 48.5 c 128,-1,37
 322 31 322 31 291.5 20.5 c 128,-1,38
 261 10 261 10 227.5 5 c 128,-1,39
 194 0 194 0 161 0 c 2,40,-1
 0 0 l 2,41,42
 -6 0 -6 0 -10 4.5 c 128,-1,43
 -14 9 -14 9 -14 14 c 2,44,-1
 -14 154 l 2,0,1
EndSplineSet
EndChar

StartChar: uni062E
Encoding: 1582 1582 95
AltUni2: 00fea5.ffffffff.0
Width: 709
GlyphClass: 2
Flags: W
AnchorPoint: "Anchor-1" 250 -450 basechar 0
AnchorPoint: "Anchor-0" 250 50 basechar 0
LayerCount: 2
Fore
SplineSet
40 280 m 1,0,-1
 70 381 l 2,1,2
 80 414 80 414 101.5 439 c 128,-1,3
 123 464 123 464 151 479 c 128,-1,4
 179 494 179 494 199.5 496 c 128,-1,5
 220 498 220 498 229 498 c 0,6,7
 252 498 252 498 274 492 c 2,8,-1
 679 371 l 1,9,-1
 641 237 l 1,10,-1
 568 258 l 2,11,12
 558 261 558 261 553 261.5 c 128,-1,13
 548 262 548 262 546 262 c 0,14,15
 541 262 541 262 538 261 c 0,16,17
 532 260 532 260 528 258 c 2,18,-1
 264 60 l 2,19,20
 243 44 243 44 232 20.5 c 128,-1,21
 221 -3 221 -3 221 -29 c 256,22,23
 221 -55 221 -55 230.5 -77 c 128,-1,24
 240 -99 240 -99 257 -116 c 128,-1,25
 274 -133 274 -133 296.5 -142.5 c 128,-1,26
 319 -152 319 -152 344 -152 c 2,27,-1
 623 -152 l 1,28,-1
 623 -322 l 1,29,-1
 344 -322 l 2,30,31
 285 -322 285 -322 233 -300 c 128,-1,32
 181 -278 181 -278 142.5 -239.5 c 128,-1,33
 104 -201 104 -201 81.5 -150.5 c 128,-1,34
 59 -100 59 -100 59 -43 c 0,35,36
 59 17 59 17 84.5 67.5 c 128,-1,37
 110 118 110 118 155 150 c 0,38,39
 191 176 191 176 214 192.5 c 128,-1,40
 237 209 237 209 255.5 222.5 c 128,-1,41
 274 236 274 236 292 250 c 128,-1,42
 310 264 310 264 335 283 c 0,43,44
 354 297 354 297 369 307 c 0,45,46
 379 313 379 313 381 314 c 1,47,-1
 214 363 l 2,48,49
 213 363 213 363 212 363 c 0,50,51
 210 363 210 363 207 362 c 128,-1,52
 204 361 204 361 202 356 c 2,53,-1
 164 248 l 1,54,-1
 40 280 l 1,0,-1
137 702 m 1,55,-1
 267 702 l 1,56,-1
 267 567 l 1,57,-1
 137 567 l 1,58,-1
 137 702 l 1,55,-1
EndSplineSet
Substitution2: "'fina' Terminal Forms in Arabic lookup 3 subtable" uniFEA6
Substitution2: "'medi' Medial Forms in Arabic lookup 2 subtable" uniFEA8
Substitution2: "'isol' Isolated Forms in Arabic lookup 1 subtable" uni062E
Substitution2: "'init' Initial Forms in Arabic lookup 0 subtable" uniFEA7
EndChar

StartChar: uniFEA6
Encoding: 65190 65190 96
Width: 706
GlyphClass: 2
Flags: W
AnchorPoint: "Anchor-1" 250 -450 basechar 0
AnchorPoint: "Anchor-0" 250 50 basechar 0
LayerCount: 2
Fore
SplineSet
40 279 m 1,0,-1
 70 380 l 2,1,2
 80 413 80 413 101 438 c 128,-1,3
 122 463 122 463 150 478 c 128,-1,4
 178 493 178 493 199 495 c 128,-1,5
 220 497 220 497 229 497 c 0,6,7
 252 497 252 497 274 491 c 2,8,-1
 679 370 l 1,9,-1
 641 236 l 1,10,-1
 568 257 l 2,11,12
 556 261 556 261 547 261 c 0,13,14
 542 261 542 261 538 260 c 0,15,16
 532 259 532 259 528 257 c 1,17,-1
 528 198 l 2,18,19
 528 186 528 186 536 178 c 128,-1,20
 544 170 544 170 556 170 c 2,21,-1
 706 170 l 2,22,23
 712 170 712 170 715.5 165.5 c 128,-1,24
 719 161 719 161 720 156 c 2,25,-1
 720 14 l 2,26,27
 720 9 720 9 716 4.5 c 128,-1,28
 712 0 712 0 706 0 c 2,29,-1
 596 0 l 2,30,31
 558 0 558 0 527 13.5 c 128,-1,32
 496 27 496 27 474 50.5 c 128,-1,33
 452 74 452 74 439 104 c 128,-1,34
 426 134 426 134 423 167 c 2,35,-1
 423 172 l 1,36,-1
 264 59 l 2,37,38
 243 44 243 44 232 19.5 c 128,-1,39
 221 -5 221 -5 221 -31 c 0,40,41
 221 -56 221 -56 230.5 -78.5 c 128,-1,42
 240 -101 240 -101 257 -117.5 c 128,-1,43
 274 -134 274 -134 296.5 -143.5 c 128,-1,44
 319 -153 319 -153 344 -153 c 2,45,-1
 623 -153 l 1,46,-1
 623 -323 l 1,47,-1
 344 -323 l 2,48,49
 285 -323 285 -323 233 -301 c 128,-1,50
 181 -279 181 -279 142.5 -240.5 c 128,-1,51
 104 -202 104 -202 81.5 -151.5 c 128,-1,52
 59 -101 59 -101 59 -44 c 0,53,54
 59 16 59 16 84.5 66.5 c 128,-1,55
 110 117 110 117 155 149 c 0,56,57
 182 168 182 168 199 180.5 c 128,-1,58
 216 193 216 193 228 202 c 128,-1,59
 240 211 240 211 249.5 218 c 128,-1,60
 259 225 259 225 270.5 233.5 c 128,-1,61
 282 242 282 242 297 253.5 c 128,-1,62
 312 265 312 265 335 282 c 0,63,64
 354 296 354 296 369 306 c 0,65,66
 378 312 378 312 381 313 c 1,67,-1
 214 362 l 2,68,69
 213 362 213 362 212 362 c 0,70,71
 210 362 210 362 207 361 c 128,-1,72
 204 360 204 360 202 355 c 2,73,-1
 164 247 l 1,74,-1
 40 279 l 1,0,-1
137 702 m 1,75,-1
 267 702 l 1,76,-1
 267 567 l 1,77,-1
 137 567 l 1,78,-1
 137 702 l 1,75,-1
EndSplineSet
EndChar

StartChar: uniFEA8
Encoding: 65192 65192 97
Width: 685
GlyphClass: 2
Flags: W
AnchorPoint: "Anchor-1" 250 -150 basechar 0
AnchorPoint: "Anchor-0" 200 0 basechar 0
LayerCount: 2
Fore
SplineSet
-10 165 m 0,0,1
 -5 170 -5 170 0 170 c 2,2,-1
 202 170 l 2,3,4
 240 170 240 170 278 182 c 128,-1,5
 316 194 316 194 341 224 c 2,6,-1
 373 270 l 2,7,8
 378 276 378 276 379 279 c 2,9,-1
 381 281 l 1,10,-1
 190 337 l 2,11,12
 188 337 188 337 187 337 c 0,13,14
 180 337 180 337 178 330 c 2,15,-1
 140 222 l 1,16,-1
 16 254 l 1,17,-1
 46 355 l 2,18,19
 57 391 57 391 79.5 416.5 c 128,-1,20
 102 442 102 442 130.5 455.5 c 128,-1,21
 159 469 159 469 179 471 c 128,-1,22
 199 473 199 473 207 473 c 0,23,24
 230 473 230 473 251 466 c 2,25,-1
 655 345 l 1,26,-1
 617 211 l 1,27,-1
 544 232 l 2,28,29
 531 236 531 236 523 236 c 0,30,31
 520 236 520 236 514.5 235 c 128,-1,32
 509 234 509 234 504 232 c 1,33,-1
 504 198 l 2,34,35
 504 187 504 187 512 178.5 c 128,-1,36
 520 170 520 170 532 170 c 2,37,-1
 685 170 l 2,38,39
 690 170 690 170 694.5 166.5 c 128,-1,40
 699 163 699 163 699 156 c 2,41,-1
 699 14 l 2,42,43
 699 9 699 9 695 4.5 c 128,-1,44
 691 0 691 0 685 0 c 2,45,-1
 585 0 l 2,46,47
 525 0 525 0 481 30.5 c 128,-1,48
 437 61 437 61 413 112 c 1,49,-1
 397 91 l 1,50,51
 352 43 352 43 289.5 22 c 128,-1,52
 227 1 227 1 161 0 c 2,53,-1
 0 0 l 2,54,55
 -6 0 -6 0 -10 4.5 c 128,-1,56
 -14 9 -14 9 -14 14 c 2,57,-1
 -14 154 l 2,58,59
 -14 160 -14 160 -10 165 c 0,0,1
149 542 m 1,60,-1
 149 677 l 1,61,-1
 279 677 l 1,62,-1
 279 542 l 1,63,-1
 149 542 l 1,60,-1
EndSplineSet
EndChar

StartChar: uniFEA7
Encoding: 65191 65191 98
Width: 685
GlyphClass: 2
Flags: W
AnchorPoint: "Anchor-1" 250 -150 basechar 0
AnchorPoint: "Anchor-0" 200 0 basechar 0
LayerCount: 2
Fore
SplineSet
-14 154 m 2,0,1
 -14 160 -14 160 -9.5 165 c 128,-1,2
 -5 170 -5 170 0 170 c 2,3,-1
 202 170 l 2,4,5
 240 170 240 170 278 182 c 128,-1,6
 316 194 316 194 341 224 c 2,7,-1
 373 270 l 2,8,9
 378 276 378 276 379 279 c 2,10,-1
 381 281 l 1,11,-1
 190 337 l 2,12,13
 188 338 188 338 186 338 c 0,14,15
 180 338 180 338 178 330 c 2,16,-1
 140 222 l 1,17,-1
 18 254 l 1,18,-1
 47 355 l 2,19,20
 58 391 58 391 80 416.5 c 128,-1,21
 102 442 102 442 130.5 455.5 c 128,-1,22
 159 469 159 469 178.5 471 c 128,-1,23
 198 473 198 473 206 473 c 0,24,25
 229 473 229 473 251 466 c 2,26,-1
 655 345 l 1,27,-1
 617 211 l 1,28,-1
 553 230 l 2,29,30
 536 234 536 234 526 234 c 0,31,32
 524 234 524 234 517.5 233.5 c 128,-1,33
 511 233 511 233 500 219 c 2,34,-1
 397 91 l 2,35,36
 376 66 376 66 349 48.5 c 128,-1,37
 322 31 322 31 291.5 20.5 c 128,-1,38
 261 10 261 10 227.5 5 c 128,-1,39
 194 0 194 0 161 0 c 2,40,-1
 0 0 l 2,41,42
 -6 0 -6 0 -10 4.5 c 128,-1,43
 -14 9 -14 9 -14 14 c 2,44,-1
 -14 154 l 2,0,1
149 677 m 1,45,-1
 279 677 l 1,46,-1
 279 542 l 1,47,-1
 149 542 l 1,48,-1
 149 677 l 1,45,-1
EndSplineSet
EndChar

StartChar: uni062F
Encoding: 1583 1583 99
AltUni2: 00fea9.ffffffff.0
Width: 568
GlyphClass: 2
Flags: W
AnchorPoint: "Anchor-1" 250 -150 basechar 0
AnchorPoint: "Anchor-0" 200 -100 basechar 0
LayerCount: 2
Fore
SplineSet
40 153 m 2,0,-1
 40 303 l 1,1,-1
 160 303 l 1,2,-1
 160 186 l 2,3,4
 160 170 160 170 177 170 c 2,5,-1
 344 170 l 2,6,7
 374 170 374 170 383.5 185 c 128,-1,8
 393 200 393 200 393 211 c 0,9,10
 393 224 393 224 384 240 c 2,11,-1
 254 475 l 1,12,-1
 377 554 l 1,13,-1
 513 311 l 2,14,15
 538 267 538 267 538 215 c 0,16,17
 538 212 538 212 537 183.5 c 128,-1,18
 536 155 536 155 512 108.5 c 128,-1,19
 488 62 488 62 445 31 c 128,-1,20
 402 0 402 0 346 0 c 2,21,-1
 193 0 l 2,22,23
 162 0 162 0 134 12 c 128,-1,24
 106 24 106 24 85 45 c 128,-1,25
 64 66 64 66 52 94 c 128,-1,26
 40 122 40 122 40 153 c 2,0,-1
EndSplineSet
Substitution2: "'fina' Terminal Forms in Arabic lookup 3 subtable" uniFEAA
Substitution2: "'medi' Medial Forms in Arabic lookup 2 subtable" uniFEAA
Substitution2: "'isol' Isolated Forms in Arabic lookup 1 subtable" uni062F
Substitution2: "'init' Initial Forms in Arabic lookup 0 subtable" uni062F
EndChar

StartChar: uniFEAA
Encoding: 65194 65194 100
Width: 587
GlyphClass: 2
Flags: W
AnchorPoint: "Anchor-1" 250 -150 basechar 0
AnchorPoint: "Anchor-0" 200 -100 basechar 0
LayerCount: 2
Fore
SplineSet
40 152 m 2,0,-1
 40 302 l 1,1,-1
 160 302 l 1,2,-1
 160 186 l 2,3,4
 160 170 160 170 177 170 c 2,5,-1
 321 170 l 2,6,7
 342 170 342 170 356 181.5 c 128,-1,8
 370 193 370 193 370 208 c 0,9,10
 370 214 370 214 368 220 c 2,11,-1
 283 525 l 1,12,-1
 420 575 l 1,13,-1
 527 194 l 2,14,15
 530 183 530 183 539 176.5 c 128,-1,16
 548 170 548 170 559 170 c 2,17,-1
 587 170 l 2,18,19
 592 170 592 170 596.5 165 c 128,-1,20
 601 160 601 160 601 154 c 2,21,-1
 601 14 l 2,22,23
 601 9 601 9 597 4.5 c 128,-1,24
 593 0 593 0 587 0 c 2,25,-1
 572 0 l 2,26,27
 531 0 531 0 500.5 16 c 128,-1,28
 470 32 470 32 449 52 c 1,29,30
 421 23 421 23 388 11.5 c 128,-1,31
 355 0 355 0 319 0 c 2,32,-1
 193 0 l 2,33,34
 162 0 162 0 134 12 c 128,-1,35
 106 24 106 24 85 44.5 c 128,-1,36
 64 65 64 65 52 93 c 128,-1,37
 40 121 40 121 40 152 c 2,0,-1
EndSplineSet
EndChar

StartChar: uni0630
Encoding: 1584 1584 101
AltUni2: 00feab.ffffffff.0
Width: 568
GlyphClass: 2
Flags: W
AnchorPoint: "Anchor-1" 250 -100 basechar 0
AnchorPoint: "Anchor-0" 250 100 basechar 0
LayerCount: 2
Fore
SplineSet
40 303 m 1,0,-1
 160 303 l 1,1,-1
 160 186 l 2,2,3
 160 170 160 170 177 170 c 2,4,-1
 344 170 l 2,5,6
 374 170 374 170 383.5 185 c 128,-1,7
 393 200 393 200 393 211 c 0,8,9
 393 224 393 224 384 240 c 2,10,-1
 254 475 l 1,11,-1
 377 554 l 1,12,-1
 513 311 l 2,13,14
 538 267 538 267 538 215 c 0,15,16
 538 212 538 212 537 183.5 c 128,-1,17
 536 155 536 155 512 108.5 c 128,-1,18
 488 62 488 62 445 31 c 128,-1,19
 402 0 402 0 346 0 c 2,20,-1
 193 0 l 2,21,22
 162 0 162 0 134 12 c 128,-1,23
 106 24 106 24 85 45 c 128,-1,24
 64 66 64 66 52 94 c 128,-1,25
 40 122 40 122 40 153 c 2,26,-1
 40 303 l 1,0,-1
212 621 m 1,27,-1
 212 756 l 1,28,-1
 342 756 l 1,29,-1
 342 621 l 1,30,-1
 212 621 l 1,27,-1
EndSplineSet
Substitution2: "'fina' Terminal Forms in Arabic lookup 3 subtable" uniFEAC
Substitution2: "'medi' Medial Forms in Arabic lookup 2 subtable" uniFEAC
Substitution2: "'isol' Isolated Forms in Arabic lookup 1 subtable" uni0630
Substitution2: "'init' Initial Forms in Arabic lookup 0 subtable" uni0630
EndChar

StartChar: uniFEAC
Encoding: 65196 65196 102
Width: 593
GlyphClass: 2
Flags: W
AnchorPoint: "Anchor-1" 250 -100 basechar 0
AnchorPoint: "Anchor-0" 300 100 basechar 0
LayerCount: 2
Fore
SplineSet
40 152 m 2,0,-1
 40 302 l 1,1,-1
 160 302 l 1,2,-1
 160 186 l 2,3,4
 160 170 160 170 177 170 c 2,5,-1
 321 170 l 2,6,7
 342 170 342 170 356 181.5 c 128,-1,8
 370 193 370 193 370 208 c 0,9,10
 370 214 370 214 368 220 c 2,11,-1
 283 525 l 1,12,-1
 420 575 l 1,13,-1
 527 194 l 2,14,15
 530 183 530 183 539 176.5 c 128,-1,16
 548 170 548 170 559 170 c 2,17,-1
 587 170 l 2,18,19
 592 170 592 170 596.5 165 c 128,-1,20
 601 160 601 160 601 154 c 2,21,-1
 601 14 l 2,22,23
 601 9 601 9 597 4.5 c 128,-1,24
 593 0 593 0 587 0 c 2,25,-1
 572 0 l 2,26,27
 531 0 531 0 500.5 16 c 128,-1,28
 470 32 470 32 449 52 c 1,29,30
 421 23 421 23 388 11.5 c 128,-1,31
 355 0 355 0 319 0 c 2,32,-1
 193 0 l 2,33,34
 162 0 162 0 134 12 c 128,-1,35
 106 24 106 24 85 44.5 c 128,-1,36
 64 65 64 65 52 93 c 128,-1,37
 40 121 40 121 40 152 c 2,0,-1
269 780 m 1,38,-1
 399 780 l 1,39,-1
 399 645 l 1,40,-1
 269 645 l 1,41,-1
 269 780 l 1,38,-1
EndSplineSet
EndChar

StartChar: uni0631
Encoding: 1585 1585 103
AltUni2: 00fead.ffffffff.0
Width: 379
GlyphClass: 2
Flags: W
AnchorPoint: "Anchor-1" 150 -300 basechar 0
AnchorPoint: "Anchor-0" 150 -200 basechar 0
LayerCount: 2
Fore
SplineSet
122 -75 m 2,0,1
 155 -64 155 -64 175 -36.5 c 128,-1,2
 195 -9 195 -9 195 26 c 2,3,-1
 195 396 l 1,4,-1
 339 396 l 1,5,-1
 339 41 l 2,6,7
 339 -2 339 -2 326 -41.5 c 128,-1,8
 313 -81 313 -81 289.5 -114 c 128,-1,9
 266 -147 266 -147 233 -172 c 128,-1,10
 200 -197 200 -197 160 -210 c 2,11,-1
 2 -264 l 1,12,-1
 -41 -131 l 1,13,-1
 122 -75 l 2,0,1
EndSplineSet
Substitution2: "'fina' Terminal Forms in Arabic lookup 3 subtable" uniFEAE
Substitution2: "'medi' Medial Forms in Arabic lookup 2 subtable" uniFEAE
Substitution2: "'isol' Isolated Forms in Arabic lookup 1 subtable" uni0631
Substitution2: "'init' Initial Forms in Arabic lookup 0 subtable" uni0631
PairPos2: "'kern' Horizontal Kerning in Arabic lookup 6 subtable" uniFB94.alt dx=-140 dy=0 dh=-140 dv=0 dx=0 dy=0 dh=0 dv=0
PairPos2: "'kern' Horizontal Kerning in Arabic lookup 6 subtable" uniFB92.alt dx=-140 dy=0 dh=-140 dv=0 dx=0 dy=0 dh=0 dv=0
PairPos2: "'kern' Horizontal Kerning in Arabic lookup 6 subtable" uniFB90.alt dx=-140 dy=0 dh=-140 dv=0 dx=0 dy=0 dh=0 dv=0
PairPos2: "'kern' Horizontal Kerning in Arabic lookup 6 subtable" uniFB8E.alt dx=-140 dy=0 dh=-140 dv=0 dx=0 dy=0 dh=0 dv=0
PairPos2: "'kern' Horizontal Kerning in Arabic lookup 6 subtable" uniFEBFFBFD dx=-80 dy=0 dh=-80 dv=0 dx=0 dy=0 dh=0 dv=0
PairPos2: "'kern' Horizontal Kerning in Arabic lookup 6 subtable" uniFEBBFBFD dx=-140 dy=0 dh=-140 dv=0 dx=0 dy=0 dh=0 dv=0
PairPos2: "'kern' Horizontal Kerning in Arabic lookup 6 subtable" uniFEB7FBFD dx=-80 dy=0 dh=-80 dv=0 dx=0 dy=0 dh=0 dv=0
PairPos2: "'kern' Horizontal Kerning in Arabic lookup 6 subtable" uniFEB3FBFD dx=-140 dy=0 dh=-140 dv=0 dx=0 dy=0 dh=0 dv=0
PairPos2: "'kern' Horizontal Kerning in Arabic lookup 6 subtable" uniFEF5 dx=-140 dy=0 dh=-140 dv=0 dx=0 dy=0 dh=0 dv=0
PairPos2: "'kern' Horizontal Kerning in Arabic lookup 6 subtable" uniFEF7 dx=-140 dy=0 dh=-140 dv=0 dx=0 dy=0 dh=0 dv=0
PairPos2: "'kern' Horizontal Kerning in Arabic lookup 6 subtable" uniFEFB dx=-140 dy=0 dh=-140 dv=0 dx=0 dy=0 dh=0 dv=0
PairPos2: "'kern' Horizontal Kerning in Arabic lookup 6 subtable" uniFBFE dx=-40 dy=0 dh=-40 dv=0 dx=0 dy=0 dh=0 dv=0
PairPos2: "'kern' Horizontal Kerning in Arabic lookup 6 subtable" uniFEF3 dx=-40 dy=0 dh=-40 dv=0 dx=0 dy=0 dh=0 dv=0
PairPos2: "'kern' Horizontal Kerning in Arabic lookup 6 subtable" uni0629 dx=-140 dy=0 dh=-140 dv=0 dx=0 dy=0 dh=0 dv=0
PairPos2: "'kern' Horizontal Kerning in Arabic lookup 6 subtable" uni06C0 dx=-140 dy=0 dh=-140 dv=0 dx=0 dy=0 dh=0 dv=0
PairPos2: "'kern' Horizontal Kerning in Arabic lookup 6 subtable" uniFEEB dx=-140 dy=0 dh=-140 dv=0 dx=0 dy=0 dh=0 dv=0
PairPos2: "'kern' Horizontal Kerning in Arabic lookup 6 subtable" uni0647 dx=-140 dy=0 dh=-140 dv=0 dx=0 dy=0 dh=0 dv=0
PairPos2: "'kern' Horizontal Kerning in Arabic lookup 6 subtable" uniFEE7 dx=-140 dy=0 dh=-140 dv=0 dx=0 dy=0 dh=0 dv=0
PairPos2: "'kern' Horizontal Kerning in Arabic lookup 6 subtable" uniFEE3 dx=-140 dy=0 dh=-140 dv=0 dx=0 dy=0 dh=0 dv=0
PairPos2: "'kern' Horizontal Kerning in Arabic lookup 6 subtable" uni0645 dx=-140 dy=0 dh=-140 dv=0 dx=0 dy=0 dh=0 dv=0
PairPos2: "'kern' Horizontal Kerning in Arabic lookup 6 subtable" uniFEDF dx=-140 dy=0 dh=-140 dv=0 dx=0 dy=0 dh=0 dv=0
PairPos2: "'kern' Horizontal Kerning in Arabic lookup 6 subtable" uniFB94 dx=-140 dy=0 dh=-140 dv=0 dx=0 dy=0 dh=0 dv=0
PairPos2: "'kern' Horizontal Kerning in Arabic lookup 6 subtable" uni06AF dx=-140 dy=0 dh=-140 dv=0 dx=0 dy=0 dh=0 dv=0
PairPos2: "'kern' Horizontal Kerning in Arabic lookup 6 subtable" uniFB90 dx=-160 dy=0 dh=-160 dv=0 dx=0 dy=0 dh=0 dv=0
PairPos2: "'kern' Horizontal Kerning in Arabic lookup 6 subtable" uni06A9 dx=-160 dy=0 dh=-160 dv=0 dx=0 dy=0 dh=0 dv=0
PairPos2: "'kern' Horizontal Kerning in Arabic lookup 6 subtable" uniFEDB dx=-160 dy=0 dh=-160 dv=0 dx=0 dy=0 dh=0 dv=0
PairPos2: "'kern' Horizontal Kerning in Arabic lookup 6 subtable" uniFED7 dx=-140 dy=0 dh=-140 dv=0 dx=0 dy=0 dh=0 dv=0
PairPos2: "'kern' Horizontal Kerning in Arabic lookup 6 subtable" uniFED3 dx=-140 dy=0 dh=-140 dv=0 dx=0 dy=0 dh=0 dv=0
PairPos2: "'kern' Horizontal Kerning in Arabic lookup 6 subtable" uni0641 dx=-140 dy=0 dh=-140 dv=0 dx=0 dy=0 dh=0 dv=0
PairPos2: "'kern' Horizontal Kerning in Arabic lookup 6 subtable" uniFECF dx=-140 dy=0 dh=-140 dv=0 dx=0 dy=0 dh=0 dv=0
PairPos2: "'kern' Horizontal Kerning in Arabic lookup 6 subtable" uni063A dx=-60 dy=0 dh=-60 dv=0 dx=0 dy=0 dh=0 dv=0
PairPos2: "'kern' Horizontal Kerning in Arabic lookup 6 subtable" uniFECB dx=-140 dy=0 dh=-140 dv=0 dx=0 dy=0 dh=0 dv=0
PairPos2: "'kern' Horizontal Kerning in Arabic lookup 6 subtable" uni0639 dx=-60 dy=0 dh=-60 dv=0 dx=0 dy=0 dh=0 dv=0
PairPos2: "'kern' Horizontal Kerning in Arabic lookup 6 subtable" uniFEC7 dx=-140 dy=0 dh=-140 dv=0 dx=0 dy=0 dh=0 dv=0
PairPos2: "'kern' Horizontal Kerning in Arabic lookup 6 subtable" uni0638 dx=-140 dy=0 dh=-140 dv=0 dx=0 dy=0 dh=0 dv=0
PairPos2: "'kern' Horizontal Kerning in Arabic lookup 6 subtable" uniFEC3 dx=-140 dy=0 dh=-140 dv=0 dx=0 dy=0 dh=0 dv=0
PairPos2: "'kern' Horizontal Kerning in Arabic lookup 6 subtable" uni0637 dx=-140 dy=0 dh=-140 dv=0 dx=0 dy=0 dh=0 dv=0
PairPos2: "'kern' Horizontal Kerning in Arabic lookup 6 subtable" uniFEBB dx=-140 dy=0 dh=-140 dv=0 dx=0 dy=0 dh=0 dv=0
PairPos2: "'kern' Horizontal Kerning in Arabic lookup 6 subtable" uni0635 dx=-140 dy=0 dh=-140 dv=0 dx=0 dy=0 dh=0 dv=0
PairPos2: "'kern' Horizontal Kerning in Arabic lookup 6 subtable" uniFEB7 dx=-140 dy=0 dh=-140 dv=0 dx=0 dy=0 dh=0 dv=0
PairPos2: "'kern' Horizontal Kerning in Arabic lookup 6 subtable" uni0634 dx=-80 dy=0 dh=-80 dv=0 dx=0 dy=0 dh=0 dv=0
PairPos2: "'kern' Horizontal Kerning in Arabic lookup 6 subtable" uniFEB3 dx=-140 dy=0 dh=-140 dv=0 dx=0 dy=0 dh=0 dv=0
PairPos2: "'kern' Horizontal Kerning in Arabic lookup 6 subtable" uni0633 dx=-140 dy=0 dh=-140 dv=0 dx=0 dy=0 dh=0 dv=0
PairPos2: "'kern' Horizontal Kerning in Arabic lookup 6 subtable" uni0630 dx=-140 dy=0 dh=-140 dv=0 dx=0 dy=0 dh=0 dv=0
PairPos2: "'kern' Horizontal Kerning in Arabic lookup 6 subtable" uni062F dx=-140 dy=0 dh=-140 dv=0 dx=0 dy=0 dh=0 dv=0
PairPos2: "'kern' Horizontal Kerning in Arabic lookup 6 subtable" uniFEA7 dx=-120 dy=0 dh=-120 dv=0 dx=0 dy=0 dh=0 dv=0
PairPos2: "'kern' Horizontal Kerning in Arabic lookup 6 subtable" uni062E dx=-5 dy=0 dh=-5 dv=0 dx=0 dy=0 dh=0 dv=0
PairPos2: "'kern' Horizontal Kerning in Arabic lookup 6 subtable" uniFEA3 dx=-120 dy=0 dh=-120 dv=0 dx=0 dy=0 dh=0 dv=0
PairPos2: "'kern' Horizontal Kerning in Arabic lookup 6 subtable" uni062D dx=-5 dy=0 dh=-5 dv=0 dx=0 dy=0 dh=0 dv=0
PairPos2: "'kern' Horizontal Kerning in Arabic lookup 6 subtable" uniFB7C dx=-100 dy=0 dh=-100 dv=0 dx=0 dy=0 dh=0 dv=0
PairPos2: "'kern' Horizontal Kerning in Arabic lookup 6 subtable" uni0686 dx=-5 dy=0 dh=-5 dv=0 dx=0 dy=0 dh=0 dv=0
PairPos2: "'kern' Horizontal Kerning in Arabic lookup 6 subtable" uniFE9F dx=-120 dy=0 dh=-120 dv=0 dx=0 dy=0 dh=0 dv=0
PairPos2: "'kern' Horizontal Kerning in Arabic lookup 6 subtable" uni062C dx=-5 dy=0 dh=-5 dv=0 dx=0 dy=0 dh=0 dv=0
PairPos2: "'kern' Horizontal Kerning in Arabic lookup 6 subtable" uniFE9B dx=-140 dy=0 dh=-140 dv=0 dx=0 dy=0 dh=0 dv=0
PairPos2: "'kern' Horizontal Kerning in Arabic lookup 6 subtable" uni062B dx=-140 dy=0 dh=-140 dv=0 dx=0 dy=0 dh=0 dv=0
PairPos2: "'kern' Horizontal Kerning in Arabic lookup 6 subtable" uniFE97 dx=-140 dy=0 dh=-140 dv=0 dx=0 dy=0 dh=0 dv=0
PairPos2: "'kern' Horizontal Kerning in Arabic lookup 6 subtable" uni062A dx=-140 dy=0 dh=-140 dv=0 dx=0 dy=0 dh=0 dv=0
PairPos2: "'kern' Horizontal Kerning in Arabic lookup 6 subtable" uniFB58 dx=-60 dy=0 dh=-60 dv=0 dx=0 dy=0 dh=0 dv=0
PairPos2: "'kern' Horizontal Kerning in Arabic lookup 6 subtable" uni067E dx=-140 dy=0 dh=-140 dv=0 dx=0 dy=0 dh=0 dv=0
PairPos2: "'kern' Horizontal Kerning in Arabic lookup 6 subtable" uniFE91 dx=-110 dy=0 dh=-110 dv=0 dx=0 dy=0 dh=0 dv=0
PairPos2: "'kern' Horizontal Kerning in Arabic lookup 6 subtable" uni0628 dx=-140 dy=0 dh=-140 dv=0 dx=0 dy=0 dh=0 dv=0
PairPos2: "'kern' Horizontal Kerning in Arabic lookup 6 subtable" uni0622 dx=-140 dy=0 dh=-140 dv=0 dx=0 dy=0 dh=0 dv=0
PairPos2: "'kern' Horizontal Kerning in Arabic lookup 6 subtable" uni0623 dx=-140 dy=0 dh=-140 dv=0 dx=0 dy=0 dh=0 dv=0
PairPos2: "'kern' Horizontal Kerning in Arabic lookup 6 subtable" uni0627 dx=-140 dy=0 dh=-140 dv=0 dx=0 dy=0 dh=0 dv=0
EndChar

StartChar: uniFEAE
Encoding: 65198 65198 104
Width: 410
GlyphClass: 2
Flags: W
AnchorPoint: "Anchor-1" 150 -300 basechar 0
AnchorPoint: "Anchor-0" 180 -200 basechar 0
LayerCount: 2
Fore
SplineSet
-41 -129 m 1,0,-1
 122 -73 l 2,1,2
 156 -62 156 -62 175.5 -34 c 128,-1,3
 195 -6 195 -6 195 29 c 2,4,-1
 195 398 l 1,5,-1
 340 398 l 1,6,-1
 340 193 l 2,7,8
 340 182 340 182 347.5 176 c 128,-1,9
 355 170 355 170 366 170 c 2,10,-1
 410 170 l 2,11,12
 424 170 424 170 424 156 c 2,13,-1
 424 14 l 2,14,15
 424 0 424 0 410 0 c 2,16,-1
 390 0 l 2,17,18
 378 0 378 0 362.5 6.5 c 128,-1,19
 347 13 347 13 339 21 c 1,20,-1
 339 6 l 2,21,22
 339 -34 339 -34 325.5 -67.5 c 128,-1,23
 312 -101 312 -101 288 -128 c 128,-1,24
 264 -155 264 -155 231 -175 c 128,-1,25
 198 -195 198 -195 160 -208 c 2,26,-1
 3 -262 l 1,27,-1
 -41 -129 l 1,0,-1
EndSplineSet
PairPos2: "'kern' Horizontal Kerning in Arabic lookup 6 subtable" uniFB94.alt dx=-140 dy=0 dh=-140 dv=0 dx=0 dy=0 dh=0 dv=0
PairPos2: "'kern' Horizontal Kerning in Arabic lookup 6 subtable" uniFB92.alt dx=-140 dy=0 dh=-140 dv=0 dx=0 dy=0 dh=0 dv=0
PairPos2: "'kern' Horizontal Kerning in Arabic lookup 6 subtable" uniFB90.alt dx=-140 dy=0 dh=-140 dv=0 dx=0 dy=0 dh=0 dv=0
PairPos2: "'kern' Horizontal Kerning in Arabic lookup 6 subtable" uniFB8E.alt dx=-140 dy=0 dh=-140 dv=0 dx=0 dy=0 dh=0 dv=0
PairPos2: "'kern' Horizontal Kerning in Arabic lookup 6 subtable" uniFEBFFBFD dx=-80 dy=0 dh=-80 dv=0 dx=0 dy=0 dh=0 dv=0
PairPos2: "'kern' Horizontal Kerning in Arabic lookup 6 subtable" uniFEBBFBFD dx=-140 dy=0 dh=-140 dv=0 dx=0 dy=0 dh=0 dv=0
PairPos2: "'kern' Horizontal Kerning in Arabic lookup 6 subtable" uniFEB7FBFD dx=-80 dy=0 dh=-80 dv=0 dx=0 dy=0 dh=0 dv=0
PairPos2: "'kern' Horizontal Kerning in Arabic lookup 6 subtable" uniFEB3FBFD dx=-140 dy=0 dh=-140 dv=0 dx=0 dy=0 dh=0 dv=0
PairPos2: "'kern' Horizontal Kerning in Arabic lookup 6 subtable" uniFEF5 dx=-140 dy=0 dh=-140 dv=0 dx=0 dy=0 dh=0 dv=0
PairPos2: "'kern' Horizontal Kerning in Arabic lookup 6 subtable" uniFEF7 dx=-140 dy=0 dh=-140 dv=0 dx=0 dy=0 dh=0 dv=0
PairPos2: "'kern' Horizontal Kerning in Arabic lookup 6 subtable" uniFEFB dx=-140 dy=0 dh=-140 dv=0 dx=0 dy=0 dh=0 dv=0
PairPos2: "'kern' Horizontal Kerning in Arabic lookup 6 subtable" uniFBFE dx=-40 dy=0 dh=-40 dv=0 dx=0 dy=0 dh=0 dv=0
PairPos2: "'kern' Horizontal Kerning in Arabic lookup 6 subtable" uniFEF3 dx=-40 dy=0 dh=-40 dv=0 dx=0 dy=0 dh=0 dv=0
PairPos2: "'kern' Horizontal Kerning in Arabic lookup 6 subtable" uni0629 dx=-140 dy=0 dh=-140 dv=0 dx=0 dy=0 dh=0 dv=0
PairPos2: "'kern' Horizontal Kerning in Arabic lookup 6 subtable" uni06C0 dx=-140 dy=0 dh=-140 dv=0 dx=0 dy=0 dh=0 dv=0
PairPos2: "'kern' Horizontal Kerning in Arabic lookup 6 subtable" uniFEEB dx=-140 dy=0 dh=-140 dv=0 dx=0 dy=0 dh=0 dv=0
PairPos2: "'kern' Horizontal Kerning in Arabic lookup 6 subtable" uni0647 dx=-140 dy=0 dh=-140 dv=0 dx=0 dy=0 dh=0 dv=0
PairPos2: "'kern' Horizontal Kerning in Arabic lookup 6 subtable" uniFEE7 dx=-140 dy=0 dh=-140 dv=0 dx=0 dy=0 dh=0 dv=0
PairPos2: "'kern' Horizontal Kerning in Arabic lookup 6 subtable" uniFEE3 dx=-140 dy=0 dh=-140 dv=0 dx=0 dy=0 dh=0 dv=0
PairPos2: "'kern' Horizontal Kerning in Arabic lookup 6 subtable" uni0645 dx=-140 dy=0 dh=-140 dv=0 dx=0 dy=0 dh=0 dv=0
PairPos2: "'kern' Horizontal Kerning in Arabic lookup 6 subtable" uniFEDF dx=-140 dy=0 dh=-140 dv=0 dx=0 dy=0 dh=0 dv=0
PairPos2: "'kern' Horizontal Kerning in Arabic lookup 6 subtable" uniFB94 dx=-140 dy=0 dh=-140 dv=0 dx=0 dy=0 dh=0 dv=0
PairPos2: "'kern' Horizontal Kerning in Arabic lookup 6 subtable" uni06AF dx=-140 dy=0 dh=-140 dv=0 dx=0 dy=0 dh=0 dv=0
PairPos2: "'kern' Horizontal Kerning in Arabic lookup 6 subtable" uniFB90 dx=-160 dy=0 dh=-160 dv=0 dx=0 dy=0 dh=0 dv=0
PairPos2: "'kern' Horizontal Kerning in Arabic lookup 6 subtable" uni06A9 dx=-160 dy=0 dh=-160 dv=0 dx=0 dy=0 dh=0 dv=0
PairPos2: "'kern' Horizontal Kerning in Arabic lookup 6 subtable" uniFEDB dx=-160 dy=0 dh=-160 dv=0 dx=0 dy=0 dh=0 dv=0
PairPos2: "'kern' Horizontal Kerning in Arabic lookup 6 subtable" uniFED7 dx=-140 dy=0 dh=-140 dv=0 dx=0 dy=0 dh=0 dv=0
PairPos2: "'kern' Horizontal Kerning in Arabic lookup 6 subtable" uniFED3 dx=-140 dy=0 dh=-140 dv=0 dx=0 dy=0 dh=0 dv=0
PairPos2: "'kern' Horizontal Kerning in Arabic lookup 6 subtable" uni0641 dx=-140 dy=0 dh=-140 dv=0 dx=0 dy=0 dh=0 dv=0
PairPos2: "'kern' Horizontal Kerning in Arabic lookup 6 subtable" uniFECF dx=-140 dy=0 dh=-140 dv=0 dx=0 dy=0 dh=0 dv=0
PairPos2: "'kern' Horizontal Kerning in Arabic lookup 6 subtable" uni063A dx=-60 dy=0 dh=-60 dv=0 dx=0 dy=0 dh=0 dv=0
PairPos2: "'kern' Horizontal Kerning in Arabic lookup 6 subtable" uniFECB dx=-140 dy=0 dh=-140 dv=0 dx=0 dy=0 dh=0 dv=0
PairPos2: "'kern' Horizontal Kerning in Arabic lookup 6 subtable" uni0639 dx=-60 dy=0 dh=-60 dv=0 dx=0 dy=0 dh=0 dv=0
PairPos2: "'kern' Horizontal Kerning in Arabic lookup 6 subtable" uniFEC7 dx=-140 dy=0 dh=-140 dv=0 dx=0 dy=0 dh=0 dv=0
PairPos2: "'kern' Horizontal Kerning in Arabic lookup 6 subtable" uni0638 dx=-140 dy=0 dh=-140 dv=0 dx=0 dy=0 dh=0 dv=0
PairPos2: "'kern' Horizontal Kerning in Arabic lookup 6 subtable" uniFEC3 dx=-140 dy=0 dh=-140 dv=0 dx=0 dy=0 dh=0 dv=0
PairPos2: "'kern' Horizontal Kerning in Arabic lookup 6 subtable" uni0637 dx=-140 dy=0 dh=-140 dv=0 dx=0 dy=0 dh=0 dv=0
PairPos2: "'kern' Horizontal Kerning in Arabic lookup 6 subtable" uniFEBB dx=-140 dy=0 dh=-140 dv=0 dx=0 dy=0 dh=0 dv=0
PairPos2: "'kern' Horizontal Kerning in Arabic lookup 6 subtable" uni0635 dx=-140 dy=0 dh=-140 dv=0 dx=0 dy=0 dh=0 dv=0
PairPos2: "'kern' Horizontal Kerning in Arabic lookup 6 subtable" uniFEB7 dx=-140 dy=0 dh=-140 dv=0 dx=0 dy=0 dh=0 dv=0
PairPos2: "'kern' Horizontal Kerning in Arabic lookup 6 subtable" uni0634 dx=-80 dy=0 dh=-80 dv=0 dx=0 dy=0 dh=0 dv=0
PairPos2: "'kern' Horizontal Kerning in Arabic lookup 6 subtable" uniFEB3 dx=-140 dy=0 dh=-140 dv=0 dx=0 dy=0 dh=0 dv=0
PairPos2: "'kern' Horizontal Kerning in Arabic lookup 6 subtable" uni0633 dx=-140 dy=0 dh=-140 dv=0 dx=0 dy=0 dh=0 dv=0
PairPos2: "'kern' Horizontal Kerning in Arabic lookup 6 subtable" uni0630 dx=-140 dy=0 dh=-140 dv=0 dx=0 dy=0 dh=0 dv=0
PairPos2: "'kern' Horizontal Kerning in Arabic lookup 6 subtable" uni062F dx=-140 dy=0 dh=-140 dv=0 dx=0 dy=0 dh=0 dv=0
PairPos2: "'kern' Horizontal Kerning in Arabic lookup 6 subtable" uniFEA7 dx=-120 dy=0 dh=-120 dv=0 dx=0 dy=0 dh=0 dv=0
PairPos2: "'kern' Horizontal Kerning in Arabic lookup 6 subtable" uni062E dx=-5 dy=0 dh=-5 dv=0 dx=0 dy=0 dh=0 dv=0
PairPos2: "'kern' Horizontal Kerning in Arabic lookup 6 subtable" uniFEA3 dx=-120 dy=0 dh=-120 dv=0 dx=0 dy=0 dh=0 dv=0
PairPos2: "'kern' Horizontal Kerning in Arabic lookup 6 subtable" uni062D dx=-5 dy=0 dh=-5 dv=0 dx=0 dy=0 dh=0 dv=0
PairPos2: "'kern' Horizontal Kerning in Arabic lookup 6 subtable" uniFB7C dx=-100 dy=0 dh=-100 dv=0 dx=0 dy=0 dh=0 dv=0
PairPos2: "'kern' Horizontal Kerning in Arabic lookup 6 subtable" uni0686 dx=-5 dy=0 dh=-5 dv=0 dx=0 dy=0 dh=0 dv=0
PairPos2: "'kern' Horizontal Kerning in Arabic lookup 6 subtable" uniFE9F dx=-120 dy=0 dh=-120 dv=0 dx=0 dy=0 dh=0 dv=0
PairPos2: "'kern' Horizontal Kerning in Arabic lookup 6 subtable" uni062C dx=-5 dy=0 dh=-5 dv=0 dx=0 dy=0 dh=0 dv=0
PairPos2: "'kern' Horizontal Kerning in Arabic lookup 6 subtable" uniFE9B dx=-140 dy=0 dh=-140 dv=0 dx=0 dy=0 dh=0 dv=0
PairPos2: "'kern' Horizontal Kerning in Arabic lookup 6 subtable" uni062B dx=-140 dy=0 dh=-140 dv=0 dx=0 dy=0 dh=0 dv=0
PairPos2: "'kern' Horizontal Kerning in Arabic lookup 6 subtable" uniFE97 dx=-140 dy=0 dh=-140 dv=0 dx=0 dy=0 dh=0 dv=0
PairPos2: "'kern' Horizontal Kerning in Arabic lookup 6 subtable" uni062A dx=-140 dy=0 dh=-140 dv=0 dx=0 dy=0 dh=0 dv=0
PairPos2: "'kern' Horizontal Kerning in Arabic lookup 6 subtable" uniFB58 dx=-60 dy=0 dh=-60 dv=0 dx=0 dy=0 dh=0 dv=0
PairPos2: "'kern' Horizontal Kerning in Arabic lookup 6 subtable" uni067E dx=-140 dy=0 dh=-140 dv=0 dx=0 dy=0 dh=0 dv=0
PairPos2: "'kern' Horizontal Kerning in Arabic lookup 6 subtable" uniFE91 dx=-110 dy=0 dh=-110 dv=0 dx=0 dy=0 dh=0 dv=0
PairPos2: "'kern' Horizontal Kerning in Arabic lookup 6 subtable" uni0628 dx=-140 dy=0 dh=-140 dv=0 dx=0 dy=0 dh=0 dv=0
PairPos2: "'kern' Horizontal Kerning in Arabic lookup 6 subtable" uni0622 dx=-140 dy=0 dh=-140 dv=0 dx=0 dy=0 dh=0 dv=0
PairPos2: "'kern' Horizontal Kerning in Arabic lookup 6 subtable" uni0623 dx=-140 dy=0 dh=-140 dv=0 dx=0 dy=0 dh=0 dv=0
PairPos2: "'kern' Horizontal Kerning in Arabic lookup 6 subtable" uni0627 dx=-140 dy=0 dh=-140 dv=0 dx=0 dy=0 dh=0 dv=0
EndChar

StartChar: uni0632
Encoding: 1586 1586 105
AltUni2: 00feaf.ffffffff.0
Width: 379
GlyphClass: 2
Flags: W
AnchorPoint: "Anchor-1" 150 -300 basechar 0
AnchorPoint: "Anchor-0" 150 -50 basechar 0
LayerCount: 2
Fore
SplineSet
122 -75 m 2,0,1
 155 -64 155 -64 175 -36.5 c 128,-1,2
 195 -9 195 -9 195 26 c 2,3,-1
 195 396 l 1,4,-1
 339 396 l 1,5,-1
 339 41 l 2,6,7
 339 -2 339 -2 326 -41.5 c 128,-1,8
 313 -81 313 -81 289.5 -114 c 128,-1,9
 266 -147 266 -147 233 -172 c 128,-1,10
 200 -197 200 -197 160 -210 c 2,11,-1
 2 -264 l 1,12,-1
 -41 -131 l 1,13,-1
 122 -75 l 2,0,1
331 612 m 1,14,-1
 331 477 l 1,15,-1
 201 477 l 1,16,-1
 201 612 l 1,17,-1
 331 612 l 1,14,-1
EndSplineSet
Substitution2: "'fina' Terminal Forms in Arabic lookup 3 subtable" uniFEB0
Substitution2: "'medi' Medial Forms in Arabic lookup 2 subtable" uniFEB0
Substitution2: "'isol' Isolated Forms in Arabic lookup 1 subtable" uni0632
Substitution2: "'init' Initial Forms in Arabic lookup 0 subtable" uni0632
PairPos2: "'kern' Horizontal Kerning in Arabic lookup 6 subtable" uniFB94.alt dx=-140 dy=0 dh=-140 dv=0 dx=0 dy=0 dh=0 dv=0
PairPos2: "'kern' Horizontal Kerning in Arabic lookup 6 subtable" uniFB92.alt dx=-140 dy=0 dh=-140 dv=0 dx=0 dy=0 dh=0 dv=0
PairPos2: "'kern' Horizontal Kerning in Arabic lookup 6 subtable" uniFB90.alt dx=-140 dy=0 dh=-140 dv=0 dx=0 dy=0 dh=0 dv=0
PairPos2: "'kern' Horizontal Kerning in Arabic lookup 6 subtable" uniFB8E.alt dx=-140 dy=0 dh=-140 dv=0 dx=0 dy=0 dh=0 dv=0
PairPos2: "'kern' Horizontal Kerning in Arabic lookup 6 subtable" uniFEBFFBFD dx=-80 dy=0 dh=-80 dv=0 dx=0 dy=0 dh=0 dv=0
PairPos2: "'kern' Horizontal Kerning in Arabic lookup 6 subtable" uniFEBBFBFD dx=-140 dy=0 dh=-140 dv=0 dx=0 dy=0 dh=0 dv=0
PairPos2: "'kern' Horizontal Kerning in Arabic lookup 6 subtable" uniFEB7FBFD dx=-80 dy=0 dh=-80 dv=0 dx=0 dy=0 dh=0 dv=0
PairPos2: "'kern' Horizontal Kerning in Arabic lookup 6 subtable" uniFEB3FBFD dx=-140 dy=0 dh=-140 dv=0 dx=0 dy=0 dh=0 dv=0
PairPos2: "'kern' Horizontal Kerning in Arabic lookup 6 subtable" uniFEF5 dx=-140 dy=0 dh=-140 dv=0 dx=0 dy=0 dh=0 dv=0
PairPos2: "'kern' Horizontal Kerning in Arabic lookup 6 subtable" uniFEF7 dx=-140 dy=0 dh=-140 dv=0 dx=0 dy=0 dh=0 dv=0
PairPos2: "'kern' Horizontal Kerning in Arabic lookup 6 subtable" uniFEFB dx=-140 dy=0 dh=-140 dv=0 dx=0 dy=0 dh=0 dv=0
PairPos2: "'kern' Horizontal Kerning in Arabic lookup 6 subtable" uniFBFE dx=-40 dy=0 dh=-40 dv=0 dx=0 dy=0 dh=0 dv=0
PairPos2: "'kern' Horizontal Kerning in Arabic lookup 6 subtable" uniFEF3 dx=-40 dy=0 dh=-40 dv=0 dx=0 dy=0 dh=0 dv=0
PairPos2: "'kern' Horizontal Kerning in Arabic lookup 6 subtable" uni0629 dx=-140 dy=0 dh=-140 dv=0 dx=0 dy=0 dh=0 dv=0
PairPos2: "'kern' Horizontal Kerning in Arabic lookup 6 subtable" uni06C0 dx=-140 dy=0 dh=-140 dv=0 dx=0 dy=0 dh=0 dv=0
PairPos2: "'kern' Horizontal Kerning in Arabic lookup 6 subtable" uniFEEB dx=-140 dy=0 dh=-140 dv=0 dx=0 dy=0 dh=0 dv=0
PairPos2: "'kern' Horizontal Kerning in Arabic lookup 6 subtable" uni0647 dx=-140 dy=0 dh=-140 dv=0 dx=0 dy=0 dh=0 dv=0
PairPos2: "'kern' Horizontal Kerning in Arabic lookup 6 subtable" uniFEE7 dx=-140 dy=0 dh=-140 dv=0 dx=0 dy=0 dh=0 dv=0
PairPos2: "'kern' Horizontal Kerning in Arabic lookup 6 subtable" uniFEE3 dx=-140 dy=0 dh=-140 dv=0 dx=0 dy=0 dh=0 dv=0
PairPos2: "'kern' Horizontal Kerning in Arabic lookup 6 subtable" uni0645 dx=-140 dy=0 dh=-140 dv=0 dx=0 dy=0 dh=0 dv=0
PairPos2: "'kern' Horizontal Kerning in Arabic lookup 6 subtable" uniFEDF dx=-140 dy=0 dh=-140 dv=0 dx=0 dy=0 dh=0 dv=0
PairPos2: "'kern' Horizontal Kerning in Arabic lookup 6 subtable" uniFB94 dx=-140 dy=0 dh=-140 dv=0 dx=0 dy=0 dh=0 dv=0
PairPos2: "'kern' Horizontal Kerning in Arabic lookup 6 subtable" uni06AF dx=-140 dy=0 dh=-140 dv=0 dx=0 dy=0 dh=0 dv=0
PairPos2: "'kern' Horizontal Kerning in Arabic lookup 6 subtable" uniFB90 dx=-160 dy=0 dh=-160 dv=0 dx=0 dy=0 dh=0 dv=0
PairPos2: "'kern' Horizontal Kerning in Arabic lookup 6 subtable" uni06A9 dx=-160 dy=0 dh=-160 dv=0 dx=0 dy=0 dh=0 dv=0
PairPos2: "'kern' Horizontal Kerning in Arabic lookup 6 subtable" uniFEDB dx=-160 dy=0 dh=-160 dv=0 dx=0 dy=0 dh=0 dv=0
PairPos2: "'kern' Horizontal Kerning in Arabic lookup 6 subtable" uniFED7 dx=-140 dy=0 dh=-140 dv=0 dx=0 dy=0 dh=0 dv=0
PairPos2: "'kern' Horizontal Kerning in Arabic lookup 6 subtable" uniFED3 dx=-140 dy=0 dh=-140 dv=0 dx=0 dy=0 dh=0 dv=0
PairPos2: "'kern' Horizontal Kerning in Arabic lookup 6 subtable" uni0641 dx=-140 dy=0 dh=-140 dv=0 dx=0 dy=0 dh=0 dv=0
PairPos2: "'kern' Horizontal Kerning in Arabic lookup 6 subtable" uniFECF dx=-140 dy=0 dh=-140 dv=0 dx=0 dy=0 dh=0 dv=0
PairPos2: "'kern' Horizontal Kerning in Arabic lookup 6 subtable" uni063A dx=-60 dy=0 dh=-60 dv=0 dx=0 dy=0 dh=0 dv=0
PairPos2: "'kern' Horizontal Kerning in Arabic lookup 6 subtable" uniFECB dx=-140 dy=0 dh=-140 dv=0 dx=0 dy=0 dh=0 dv=0
PairPos2: "'kern' Horizontal Kerning in Arabic lookup 6 subtable" uni0639 dx=-60 dy=0 dh=-60 dv=0 dx=0 dy=0 dh=0 dv=0
PairPos2: "'kern' Horizontal Kerning in Arabic lookup 6 subtable" uniFEC7 dx=-140 dy=0 dh=-140 dv=0 dx=0 dy=0 dh=0 dv=0
PairPos2: "'kern' Horizontal Kerning in Arabic lookup 6 subtable" uni0638 dx=-140 dy=0 dh=-140 dv=0 dx=0 dy=0 dh=0 dv=0
PairPos2: "'kern' Horizontal Kerning in Arabic lookup 6 subtable" uniFEC3 dx=-140 dy=0 dh=-140 dv=0 dx=0 dy=0 dh=0 dv=0
PairPos2: "'kern' Horizontal Kerning in Arabic lookup 6 subtable" uni0637 dx=-140 dy=0 dh=-140 dv=0 dx=0 dy=0 dh=0 dv=0
PairPos2: "'kern' Horizontal Kerning in Arabic lookup 6 subtable" uniFEBB dx=-140 dy=0 dh=-140 dv=0 dx=0 dy=0 dh=0 dv=0
PairPos2: "'kern' Horizontal Kerning in Arabic lookup 6 subtable" uni0635 dx=-140 dy=0 dh=-140 dv=0 dx=0 dy=0 dh=0 dv=0
PairPos2: "'kern' Horizontal Kerning in Arabic lookup 6 subtable" uniFEB7 dx=-140 dy=0 dh=-140 dv=0 dx=0 dy=0 dh=0 dv=0
PairPos2: "'kern' Horizontal Kerning in Arabic lookup 6 subtable" uni0634 dx=-80 dy=0 dh=-80 dv=0 dx=0 dy=0 dh=0 dv=0
PairPos2: "'kern' Horizontal Kerning in Arabic lookup 6 subtable" uniFEB3 dx=-140 dy=0 dh=-140 dv=0 dx=0 dy=0 dh=0 dv=0
PairPos2: "'kern' Horizontal Kerning in Arabic lookup 6 subtable" uni0633 dx=-140 dy=0 dh=-140 dv=0 dx=0 dy=0 dh=0 dv=0
PairPos2: "'kern' Horizontal Kerning in Arabic lookup 6 subtable" uni0630 dx=-140 dy=0 dh=-140 dv=0 dx=0 dy=0 dh=0 dv=0
PairPos2: "'kern' Horizontal Kerning in Arabic lookup 6 subtable" uni062F dx=-140 dy=0 dh=-140 dv=0 dx=0 dy=0 dh=0 dv=0
PairPos2: "'kern' Horizontal Kerning in Arabic lookup 6 subtable" uniFEA7 dx=-120 dy=0 dh=-120 dv=0 dx=0 dy=0 dh=0 dv=0
PairPos2: "'kern' Horizontal Kerning in Arabic lookup 6 subtable" uni062E dx=-5 dy=0 dh=-5 dv=0 dx=0 dy=0 dh=0 dv=0
PairPos2: "'kern' Horizontal Kerning in Arabic lookup 6 subtable" uniFEA3 dx=-120 dy=0 dh=-120 dv=0 dx=0 dy=0 dh=0 dv=0
PairPos2: "'kern' Horizontal Kerning in Arabic lookup 6 subtable" uni062D dx=-5 dy=0 dh=-5 dv=0 dx=0 dy=0 dh=0 dv=0
PairPos2: "'kern' Horizontal Kerning in Arabic lookup 6 subtable" uniFB7C dx=-100 dy=0 dh=-100 dv=0 dx=0 dy=0 dh=0 dv=0
PairPos2: "'kern' Horizontal Kerning in Arabic lookup 6 subtable" uni0686 dx=-5 dy=0 dh=-5 dv=0 dx=0 dy=0 dh=0 dv=0
PairPos2: "'kern' Horizontal Kerning in Arabic lookup 6 subtable" uniFE9F dx=-120 dy=0 dh=-120 dv=0 dx=0 dy=0 dh=0 dv=0
PairPos2: "'kern' Horizontal Kerning in Arabic lookup 6 subtable" uni062C dx=-5 dy=0 dh=-5 dv=0 dx=0 dy=0 dh=0 dv=0
PairPos2: "'kern' Horizontal Kerning in Arabic lookup 6 subtable" uniFE9B dx=-140 dy=0 dh=-140 dv=0 dx=0 dy=0 dh=0 dv=0
PairPos2: "'kern' Horizontal Kerning in Arabic lookup 6 subtable" uni062B dx=-140 dy=0 dh=-140 dv=0 dx=0 dy=0 dh=0 dv=0
PairPos2: "'kern' Horizontal Kerning in Arabic lookup 6 subtable" uniFE97 dx=-140 dy=0 dh=-140 dv=0 dx=0 dy=0 dh=0 dv=0
PairPos2: "'kern' Horizontal Kerning in Arabic lookup 6 subtable" uni062A dx=-140 dy=0 dh=-140 dv=0 dx=0 dy=0 dh=0 dv=0
PairPos2: "'kern' Horizontal Kerning in Arabic lookup 6 subtable" uniFB58 dx=-60 dy=0 dh=-60 dv=0 dx=0 dy=0 dh=0 dv=0
PairPos2: "'kern' Horizontal Kerning in Arabic lookup 6 subtable" uni067E dx=-140 dy=0 dh=-140 dv=0 dx=0 dy=0 dh=0 dv=0
PairPos2: "'kern' Horizontal Kerning in Arabic lookup 6 subtable" uniFE91 dx=-110 dy=0 dh=-110 dv=0 dx=0 dy=0 dh=0 dv=0
PairPos2: "'kern' Horizontal Kerning in Arabic lookup 6 subtable" uni0628 dx=-140 dy=0 dh=-140 dv=0 dx=0 dy=0 dh=0 dv=0
PairPos2: "'kern' Horizontal Kerning in Arabic lookup 6 subtable" uni0622 dx=-140 dy=0 dh=-140 dv=0 dx=0 dy=0 dh=0 dv=0
PairPos2: "'kern' Horizontal Kerning in Arabic lookup 6 subtable" uni0623 dx=-140 dy=0 dh=-140 dv=0 dx=0 dy=0 dh=0 dv=0
PairPos2: "'kern' Horizontal Kerning in Arabic lookup 6 subtable" uni0627 dx=-140 dy=0 dh=-140 dv=0 dx=0 dy=0 dh=0 dv=0
EndChar

StartChar: uniFEB0
Encoding: 65200 65200 106
Width: 410
GlyphClass: 2
Flags: W
AnchorPoint: "Anchor-1" 150 -300 basechar 0
AnchorPoint: "Anchor-0" 200 -50 basechar 0
LayerCount: 2
Fore
SplineSet
122 -73 m 2,0,1
 156 -62 156 -62 175.5 -34 c 128,-1,2
 195 -6 195 -6 195 29 c 2,3,-1
 195 398 l 1,4,-1
 340 398 l 1,5,-1
 340 193 l 2,6,7
 340 182 340 182 347.5 176 c 128,-1,8
 355 170 355 170 366 170 c 2,9,-1
 410 170 l 2,10,11
 424 170 424 170 424 156 c 2,12,-1
 424 14 l 2,13,14
 424 0 424 0 410 0 c 2,15,-1
 390 0 l 2,16,17
 378 0 378 0 362.5 6.5 c 128,-1,18
 347 13 347 13 339 21 c 1,19,-1
 339 6 l 2,20,21
 339 -34 339 -34 325.5 -67.5 c 128,-1,22
 312 -101 312 -101 288 -128 c 128,-1,23
 264 -155 264 -155 231 -175 c 128,-1,24
 198 -195 198 -195 160 -208 c 2,25,-1
 3 -262 l 1,26,-1
 -41 -129 l 1,27,-1
 122 -73 l 2,0,1
201 612 m 1,28,-1
 331 612 l 1,29,-1
 331 477 l 1,30,-1
 201 477 l 1,31,-1
 201 612 l 1,28,-1
EndSplineSet
PairPos2: "'kern' Horizontal Kerning in Arabic lookup 6 subtable" uniFB94.alt dx=-140 dy=0 dh=-140 dv=0 dx=0 dy=0 dh=0 dv=0
PairPos2: "'kern' Horizontal Kerning in Arabic lookup 6 subtable" uniFB92.alt dx=-140 dy=0 dh=-140 dv=0 dx=0 dy=0 dh=0 dv=0
PairPos2: "'kern' Horizontal Kerning in Arabic lookup 6 subtable" uniFB90.alt dx=-140 dy=0 dh=-140 dv=0 dx=0 dy=0 dh=0 dv=0
PairPos2: "'kern' Horizontal Kerning in Arabic lookup 6 subtable" uniFB8E.alt dx=-140 dy=0 dh=-140 dv=0 dx=0 dy=0 dh=0 dv=0
PairPos2: "'kern' Horizontal Kerning in Arabic lookup 6 subtable" uniFEBFFBFD dx=-80 dy=0 dh=-80 dv=0 dx=0 dy=0 dh=0 dv=0
PairPos2: "'kern' Horizontal Kerning in Arabic lookup 6 subtable" uniFEBBFBFD dx=-140 dy=0 dh=-140 dv=0 dx=0 dy=0 dh=0 dv=0
PairPos2: "'kern' Horizontal Kerning in Arabic lookup 6 subtable" uniFEB7FBFD dx=-80 dy=0 dh=-80 dv=0 dx=0 dy=0 dh=0 dv=0
PairPos2: "'kern' Horizontal Kerning in Arabic lookup 6 subtable" uniFEB3FBFD dx=-140 dy=0 dh=-140 dv=0 dx=0 dy=0 dh=0 dv=0
PairPos2: "'kern' Horizontal Kerning in Arabic lookup 6 subtable" uniFEF5 dx=-140 dy=0 dh=-140 dv=0 dx=0 dy=0 dh=0 dv=0
PairPos2: "'kern' Horizontal Kerning in Arabic lookup 6 subtable" uniFEF7 dx=-140 dy=0 dh=-140 dv=0 dx=0 dy=0 dh=0 dv=0
PairPos2: "'kern' Horizontal Kerning in Arabic lookup 6 subtable" uniFEFB dx=-140 dy=0 dh=-140 dv=0 dx=0 dy=0 dh=0 dv=0
PairPos2: "'kern' Horizontal Kerning in Arabic lookup 6 subtable" uniFBFE dx=-40 dy=0 dh=-40 dv=0 dx=0 dy=0 dh=0 dv=0
PairPos2: "'kern' Horizontal Kerning in Arabic lookup 6 subtable" uniFEF3 dx=-40 dy=0 dh=-40 dv=0 dx=0 dy=0 dh=0 dv=0
PairPos2: "'kern' Horizontal Kerning in Arabic lookup 6 subtable" uni0629 dx=-140 dy=0 dh=-140 dv=0 dx=0 dy=0 dh=0 dv=0
PairPos2: "'kern' Horizontal Kerning in Arabic lookup 6 subtable" uni06C0 dx=-140 dy=0 dh=-140 dv=0 dx=0 dy=0 dh=0 dv=0
PairPos2: "'kern' Horizontal Kerning in Arabic lookup 6 subtable" uniFEEB dx=-140 dy=0 dh=-140 dv=0 dx=0 dy=0 dh=0 dv=0
PairPos2: "'kern' Horizontal Kerning in Arabic lookup 6 subtable" uni0647 dx=-140 dy=0 dh=-140 dv=0 dx=0 dy=0 dh=0 dv=0
PairPos2: "'kern' Horizontal Kerning in Arabic lookup 6 subtable" uniFEE7 dx=-140 dy=0 dh=-140 dv=0 dx=0 dy=0 dh=0 dv=0
PairPos2: "'kern' Horizontal Kerning in Arabic lookup 6 subtable" uniFEE3 dx=-140 dy=0 dh=-140 dv=0 dx=0 dy=0 dh=0 dv=0
PairPos2: "'kern' Horizontal Kerning in Arabic lookup 6 subtable" uni0645 dx=-140 dy=0 dh=-140 dv=0 dx=0 dy=0 dh=0 dv=0
PairPos2: "'kern' Horizontal Kerning in Arabic lookup 6 subtable" uniFEDF dx=-140 dy=0 dh=-140 dv=0 dx=0 dy=0 dh=0 dv=0
PairPos2: "'kern' Horizontal Kerning in Arabic lookup 6 subtable" uniFB94 dx=-140 dy=0 dh=-140 dv=0 dx=0 dy=0 dh=0 dv=0
PairPos2: "'kern' Horizontal Kerning in Arabic lookup 6 subtable" uni06AF dx=-140 dy=0 dh=-140 dv=0 dx=0 dy=0 dh=0 dv=0
PairPos2: "'kern' Horizontal Kerning in Arabic lookup 6 subtable" uniFB90 dx=-160 dy=0 dh=-160 dv=0 dx=0 dy=0 dh=0 dv=0
PairPos2: "'kern' Horizontal Kerning in Arabic lookup 6 subtable" uni06A9 dx=-160 dy=0 dh=-160 dv=0 dx=0 dy=0 dh=0 dv=0
PairPos2: "'kern' Horizontal Kerning in Arabic lookup 6 subtable" uniFEDB dx=-160 dy=0 dh=-160 dv=0 dx=0 dy=0 dh=0 dv=0
PairPos2: "'kern' Horizontal Kerning in Arabic lookup 6 subtable" uniFED7 dx=-140 dy=0 dh=-140 dv=0 dx=0 dy=0 dh=0 dv=0
PairPos2: "'kern' Horizontal Kerning in Arabic lookup 6 subtable" uniFED3 dx=-140 dy=0 dh=-140 dv=0 dx=0 dy=0 dh=0 dv=0
PairPos2: "'kern' Horizontal Kerning in Arabic lookup 6 subtable" uni0641 dx=-140 dy=0 dh=-140 dv=0 dx=0 dy=0 dh=0 dv=0
PairPos2: "'kern' Horizontal Kerning in Arabic lookup 6 subtable" uniFECF dx=-140 dy=0 dh=-140 dv=0 dx=0 dy=0 dh=0 dv=0
PairPos2: "'kern' Horizontal Kerning in Arabic lookup 6 subtable" uni063A dx=-60 dy=0 dh=-60 dv=0 dx=0 dy=0 dh=0 dv=0
PairPos2: "'kern' Horizontal Kerning in Arabic lookup 6 subtable" uniFECB dx=-140 dy=0 dh=-140 dv=0 dx=0 dy=0 dh=0 dv=0
PairPos2: "'kern' Horizontal Kerning in Arabic lookup 6 subtable" uni0639 dx=-60 dy=0 dh=-60 dv=0 dx=0 dy=0 dh=0 dv=0
PairPos2: "'kern' Horizontal Kerning in Arabic lookup 6 subtable" uniFEC7 dx=-140 dy=0 dh=-140 dv=0 dx=0 dy=0 dh=0 dv=0
PairPos2: "'kern' Horizontal Kerning in Arabic lookup 6 subtable" uni0638 dx=-140 dy=0 dh=-140 dv=0 dx=0 dy=0 dh=0 dv=0
PairPos2: "'kern' Horizontal Kerning in Arabic lookup 6 subtable" uniFEC3 dx=-140 dy=0 dh=-140 dv=0 dx=0 dy=0 dh=0 dv=0
PairPos2: "'kern' Horizontal Kerning in Arabic lookup 6 subtable" uni0637 dx=-140 dy=0 dh=-140 dv=0 dx=0 dy=0 dh=0 dv=0
PairPos2: "'kern' Horizontal Kerning in Arabic lookup 6 subtable" uniFEBB dx=-140 dy=0 dh=-140 dv=0 dx=0 dy=0 dh=0 dv=0
PairPos2: "'kern' Horizontal Kerning in Arabic lookup 6 subtable" uni0635 dx=-140 dy=0 dh=-140 dv=0 dx=0 dy=0 dh=0 dv=0
PairPos2: "'kern' Horizontal Kerning in Arabic lookup 6 subtable" uniFEB7 dx=-140 dy=0 dh=-140 dv=0 dx=0 dy=0 dh=0 dv=0
PairPos2: "'kern' Horizontal Kerning in Arabic lookup 6 subtable" uni0634 dx=-80 dy=0 dh=-80 dv=0 dx=0 dy=0 dh=0 dv=0
PairPos2: "'kern' Horizontal Kerning in Arabic lookup 6 subtable" uniFEB3 dx=-140 dy=0 dh=-140 dv=0 dx=0 dy=0 dh=0 dv=0
PairPos2: "'kern' Horizontal Kerning in Arabic lookup 6 subtable" uni0633 dx=-140 dy=0 dh=-140 dv=0 dx=0 dy=0 dh=0 dv=0
PairPos2: "'kern' Horizontal Kerning in Arabic lookup 6 subtable" uni0630 dx=-140 dy=0 dh=-140 dv=0 dx=0 dy=0 dh=0 dv=0
PairPos2: "'kern' Horizontal Kerning in Arabic lookup 6 subtable" uni062F dx=-140 dy=0 dh=-140 dv=0 dx=0 dy=0 dh=0 dv=0
PairPos2: "'kern' Horizontal Kerning in Arabic lookup 6 subtable" uniFEA7 dx=-120 dy=0 dh=-120 dv=0 dx=0 dy=0 dh=0 dv=0
PairPos2: "'kern' Horizontal Kerning in Arabic lookup 6 subtable" uni062E dx=-5 dy=0 dh=-5 dv=0 dx=0 dy=0 dh=0 dv=0
PairPos2: "'kern' Horizontal Kerning in Arabic lookup 6 subtable" uniFEA3 dx=-120 dy=0 dh=-120 dv=0 dx=0 dy=0 dh=0 dv=0
PairPos2: "'kern' Horizontal Kerning in Arabic lookup 6 subtable" uni062D dx=-5 dy=0 dh=-5 dv=0 dx=0 dy=0 dh=0 dv=0
PairPos2: "'kern' Horizontal Kerning in Arabic lookup 6 subtable" uniFB7C dx=-100 dy=0 dh=-100 dv=0 dx=0 dy=0 dh=0 dv=0
PairPos2: "'kern' Horizontal Kerning in Arabic lookup 6 subtable" uni0686 dx=-5 dy=0 dh=-5 dv=0 dx=0 dy=0 dh=0 dv=0
PairPos2: "'kern' Horizontal Kerning in Arabic lookup 6 subtable" uniFE9F dx=-120 dy=0 dh=-120 dv=0 dx=0 dy=0 dh=0 dv=0
PairPos2: "'kern' Horizontal Kerning in Arabic lookup 6 subtable" uni062C dx=-5 dy=0 dh=-5 dv=0 dx=0 dy=0 dh=0 dv=0
PairPos2: "'kern' Horizontal Kerning in Arabic lookup 6 subtable" uniFE9B dx=-140 dy=0 dh=-140 dv=0 dx=0 dy=0 dh=0 dv=0
PairPos2: "'kern' Horizontal Kerning in Arabic lookup 6 subtable" uni062B dx=-140 dy=0 dh=-140 dv=0 dx=0 dy=0 dh=0 dv=0
PairPos2: "'kern' Horizontal Kerning in Arabic lookup 6 subtable" uniFE97 dx=-140 dy=0 dh=-140 dv=0 dx=0 dy=0 dh=0 dv=0
PairPos2: "'kern' Horizontal Kerning in Arabic lookup 6 subtable" uni062A dx=-140 dy=0 dh=-140 dv=0 dx=0 dy=0 dh=0 dv=0
PairPos2: "'kern' Horizontal Kerning in Arabic lookup 6 subtable" uniFB58 dx=-60 dy=0 dh=-60 dv=0 dx=0 dy=0 dh=0 dv=0
PairPos2: "'kern' Horizontal Kerning in Arabic lookup 6 subtable" uni067E dx=-140 dy=0 dh=-140 dv=0 dx=0 dy=0 dh=0 dv=0
PairPos2: "'kern' Horizontal Kerning in Arabic lookup 6 subtable" uniFE91 dx=-110 dy=0 dh=-110 dv=0 dx=0 dy=0 dh=0 dv=0
PairPos2: "'kern' Horizontal Kerning in Arabic lookup 6 subtable" uni0628 dx=-140 dy=0 dh=-140 dv=0 dx=0 dy=0 dh=0 dv=0
PairPos2: "'kern' Horizontal Kerning in Arabic lookup 6 subtable" uni0622 dx=-140 dy=0 dh=-140 dv=0 dx=0 dy=0 dh=0 dv=0
PairPos2: "'kern' Horizontal Kerning in Arabic lookup 6 subtable" uni0623 dx=-140 dy=0 dh=-140 dv=0 dx=0 dy=0 dh=0 dv=0
PairPos2: "'kern' Horizontal Kerning in Arabic lookup 6 subtable" uni0627 dx=-140 dy=0 dh=-140 dv=0 dx=0 dy=0 dh=0 dv=0
EndChar

StartChar: uni0698
Encoding: 1688 1688 107
AltUni2: 00fb8a.ffffffff.0
Width: 436
GlyphClass: 2
Flags: W
LayerCount: 2
Fore
SplineSet
-41 -131 m 1,0,-1
 122 -75 l 2,1,2
 155 -64 155 -64 175 -36.5 c 128,-1,3
 195 -9 195 -9 195 26 c 2,4,-1
 195 396 l 1,5,-1
 339 396 l 1,6,-1
 339 41 l 2,7,8
 339 -2 339 -2 326 -41.5 c 128,-1,9
 313 -81 313 -81 289.5 -114 c 128,-1,10
 266 -147 266 -147 233 -172 c 128,-1,11
 200 -197 200 -197 160 -210 c 2,12,-1
 2 -264 l 1,13,-1
 -41 -131 l 1,0,-1
131 599 m 1,14,-1
 193 599 l 1,15,-1
 193 704 l 1,16,-1
 323 704 l 1,17,-1
 323 599 l 1,18,-1
 391 599 l 1,19,-1
 391 464 l 1,20,-1
 131 464 l 1,21,-1
 131 599 l 1,14,-1
EndSplineSet
Substitution2: "'fina' Terminal Forms in Arabic lookup 3 subtable" uniFB8B
Substitution2: "'medi' Medial Forms in Arabic lookup 2 subtable" uniFB8B
Substitution2: "'isol' Isolated Forms in Arabic lookup 1 subtable" uni0698
Substitution2: "'init' Initial Forms in Arabic lookup 0 subtable" uni0698
PairPos2: "'kern' Horizontal Kerning in Arabic lookup 6 subtable" uniFB94.alt dx=-140 dy=0 dh=-140 dv=0 dx=0 dy=0 dh=0 dv=0
PairPos2: "'kern' Horizontal Kerning in Arabic lookup 6 subtable" uniFB92.alt dx=-140 dy=0 dh=-140 dv=0 dx=0 dy=0 dh=0 dv=0
PairPos2: "'kern' Horizontal Kerning in Arabic lookup 6 subtable" uniFB90.alt dx=-140 dy=0 dh=-140 dv=0 dx=0 dy=0 dh=0 dv=0
PairPos2: "'kern' Horizontal Kerning in Arabic lookup 6 subtable" uniFB8E.alt dx=-140 dy=0 dh=-140 dv=0 dx=0 dy=0 dh=0 dv=0
PairPos2: "'kern' Horizontal Kerning in Arabic lookup 6 subtable" uniFEBFFBFD dx=-140 dy=0 dh=-140 dv=0 dx=0 dy=0 dh=0 dv=0
PairPos2: "'kern' Horizontal Kerning in Arabic lookup 6 subtable" uniFEBBFBFD dx=-140 dy=0 dh=-140 dv=0 dx=0 dy=0 dh=0 dv=0
PairPos2: "'kern' Horizontal Kerning in Arabic lookup 6 subtable" uniFEB7FBFD dx=-140 dy=0 dh=-140 dv=0 dx=0 dy=0 dh=0 dv=0
PairPos2: "'kern' Horizontal Kerning in Arabic lookup 6 subtable" uniFEB3FBFD dx=-140 dy=0 dh=-140 dv=0 dx=0 dy=0 dh=0 dv=0
PairPos2: "'kern' Horizontal Kerning in Arabic lookup 6 subtable" uniFEF5 dx=-100 dy=0 dh=-100 dv=0 dx=0 dy=0 dh=0 dv=0
PairPos2: "'kern' Horizontal Kerning in Arabic lookup 6 subtable" uniFEF7 dx=-100 dy=0 dh=-100 dv=0 dx=0 dy=0 dh=0 dv=0
PairPos2: "'kern' Horizontal Kerning in Arabic lookup 6 subtable" uniFEFB dx=-100 dy=0 dh=-100 dv=0 dx=0 dy=0 dh=0 dv=0
PairPos2: "'kern' Horizontal Kerning in Arabic lookup 6 subtable" uniFBFE dx=-40 dy=0 dh=-40 dv=0 dx=0 dy=0 dh=0 dv=0
PairPos2: "'kern' Horizontal Kerning in Arabic lookup 6 subtable" uniFEF3 dx=-40 dy=0 dh=-40 dv=0 dx=0 dy=0 dh=0 dv=0
PairPos2: "'kern' Horizontal Kerning in Arabic lookup 6 subtable" uni0629 dx=-140 dy=0 dh=-140 dv=0 dx=0 dy=0 dh=0 dv=0
PairPos2: "'kern' Horizontal Kerning in Arabic lookup 6 subtable" uni06C0 dx=-140 dy=0 dh=-140 dv=0 dx=0 dy=0 dh=0 dv=0
PairPos2: "'kern' Horizontal Kerning in Arabic lookup 6 subtable" uniFEEB dx=-140 dy=0 dh=-140 dv=0 dx=0 dy=0 dh=0 dv=0
PairPos2: "'kern' Horizontal Kerning in Arabic lookup 6 subtable" uni0647 dx=-140 dy=0 dh=-140 dv=0 dx=0 dy=0 dh=0 dv=0
PairPos2: "'kern' Horizontal Kerning in Arabic lookup 6 subtable" uniFEE7 dx=-120 dy=0 dh=-120 dv=0 dx=0 dy=0 dh=0 dv=0
PairPos2: "'kern' Horizontal Kerning in Arabic lookup 6 subtable" uniFEE3 dx=-140 dy=0 dh=-140 dv=0 dx=0 dy=0 dh=0 dv=0
PairPos2: "'kern' Horizontal Kerning in Arabic lookup 6 subtable" uni0645 dx=-140 dy=0 dh=-140 dv=0 dx=0 dy=0 dh=0 dv=0
PairPos2: "'kern' Horizontal Kerning in Arabic lookup 6 subtable" uniFB94 dx=-100 dy=0 dh=-100 dv=0 dx=0 dy=0 dh=0 dv=0
PairPos2: "'kern' Horizontal Kerning in Arabic lookup 6 subtable" uni06AF dx=-100 dy=0 dh=-100 dv=0 dx=0 dy=0 dh=0 dv=0
PairPos2: "'kern' Horizontal Kerning in Arabic lookup 6 subtable" uniFB90 dx=-100 dy=0 dh=-100 dv=0 dx=0 dy=0 dh=0 dv=0
PairPos2: "'kern' Horizontal Kerning in Arabic lookup 6 subtable" uni06A9 dx=-100 dy=0 dh=-100 dv=0 dx=0 dy=0 dh=0 dv=0
PairPos2: "'kern' Horizontal Kerning in Arabic lookup 6 subtable" uniFEDB dx=-100 dy=0 dh=-100 dv=0 dx=0 dy=0 dh=0 dv=0
PairPos2: "'kern' Horizontal Kerning in Arabic lookup 6 subtable" uniFED7 dx=-120 dy=0 dh=-120 dv=0 dx=0 dy=0 dh=0 dv=0
PairPos2: "'kern' Horizontal Kerning in Arabic lookup 6 subtable" uniFED3 dx=-120 dy=0 dh=-120 dv=0 dx=0 dy=0 dh=0 dv=0
PairPos2: "'kern' Horizontal Kerning in Arabic lookup 6 subtable" uni0641 dx=-120 dy=0 dh=-120 dv=0 dx=0 dy=0 dh=0 dv=0
PairPos2: "'kern' Horizontal Kerning in Arabic lookup 6 subtable" uniFECF dx=-140 dy=0 dh=-140 dv=0 dx=0 dy=0 dh=0 dv=0
PairPos2: "'kern' Horizontal Kerning in Arabic lookup 6 subtable" uni063A dx=-60 dy=0 dh=-60 dv=0 dx=0 dy=0 dh=0 dv=0
PairPos2: "'kern' Horizontal Kerning in Arabic lookup 6 subtable" uniFECB dx=-140 dy=0 dh=-140 dv=0 dx=0 dy=0 dh=0 dv=0
PairPos2: "'kern' Horizontal Kerning in Arabic lookup 6 subtable" uni0639 dx=-60 dy=0 dh=-60 dv=0 dx=0 dy=0 dh=0 dv=0
PairPos2: "'kern' Horizontal Kerning in Arabic lookup 6 subtable" uniFEC7 dx=-140 dy=0 dh=-140 dv=0 dx=0 dy=0 dh=0 dv=0
PairPos2: "'kern' Horizontal Kerning in Arabic lookup 6 subtable" uni0638 dx=-140 dy=0 dh=-140 dv=0 dx=0 dy=0 dh=0 dv=0
PairPos2: "'kern' Horizontal Kerning in Arabic lookup 6 subtable" uniFEC3 dx=-140 dy=0 dh=-140 dv=0 dx=0 dy=0 dh=0 dv=0
PairPos2: "'kern' Horizontal Kerning in Arabic lookup 6 subtable" uni0637 dx=-140 dy=0 dh=-140 dv=0 dx=0 dy=0 dh=0 dv=0
PairPos2: "'kern' Horizontal Kerning in Arabic lookup 6 subtable" uniFEBB dx=-140 dy=0 dh=-140 dv=0 dx=0 dy=0 dh=0 dv=0
PairPos2: "'kern' Horizontal Kerning in Arabic lookup 6 subtable" uni0635 dx=-140 dy=0 dh=-140 dv=0 dx=0 dy=0 dh=0 dv=0
PairPos2: "'kern' Horizontal Kerning in Arabic lookup 6 subtable" uniFEB7 dx=-140 dy=0 dh=-140 dv=0 dx=0 dy=0 dh=0 dv=0
PairPos2: "'kern' Horizontal Kerning in Arabic lookup 6 subtable" uni0634 dx=-140 dy=0 dh=-140 dv=0 dx=0 dy=0 dh=0 dv=0
PairPos2: "'kern' Horizontal Kerning in Arabic lookup 6 subtable" uniFEB3 dx=-140 dy=0 dh=-140 dv=0 dx=0 dy=0 dh=0 dv=0
PairPos2: "'kern' Horizontal Kerning in Arabic lookup 6 subtable" uni0633 dx=-140 dy=0 dh=-140 dv=0 dx=0 dy=0 dh=0 dv=0
PairPos2: "'kern' Horizontal Kerning in Arabic lookup 6 subtable" uni0630 dx=-140 dy=0 dh=-140 dv=0 dx=0 dy=0 dh=0 dv=0
PairPos2: "'kern' Horizontal Kerning in Arabic lookup 6 subtable" uni062F dx=-140 dy=0 dh=-140 dv=0 dx=0 dy=0 dh=0 dv=0
PairPos2: "'kern' Horizontal Kerning in Arabic lookup 6 subtable" uniFEA7 dx=-120 dy=0 dh=-120 dv=0 dx=0 dy=0 dh=0 dv=0
PairPos2: "'kern' Horizontal Kerning in Arabic lookup 6 subtable" uniFEA3 dx=-120 dy=0 dh=-120 dv=0 dx=0 dy=0 dh=0 dv=0
PairPos2: "'kern' Horizontal Kerning in Arabic lookup 6 subtable" uni062D dx=-5 dy=0 dh=-5 dv=0 dx=0 dy=0 dh=0 dv=0
PairPos2: "'kern' Horizontal Kerning in Arabic lookup 6 subtable" uniFB7C dx=-100 dy=0 dh=-100 dv=0 dx=0 dy=0 dh=0 dv=0
PairPos2: "'kern' Horizontal Kerning in Arabic lookup 6 subtable" uni0686 dx=-5 dy=0 dh=-5 dv=0 dx=0 dy=0 dh=0 dv=0
PairPos2: "'kern' Horizontal Kerning in Arabic lookup 6 subtable" uniFE9F dx=-120 dy=0 dh=-120 dv=0 dx=0 dy=0 dh=0 dv=0
PairPos2: "'kern' Horizontal Kerning in Arabic lookup 6 subtable" uni062C dx=-5 dy=0 dh=-5 dv=0 dx=0 dy=0 dh=0 dv=0
PairPos2: "'kern' Horizontal Kerning in Arabic lookup 6 subtable" uniFE9B dx=-100 dy=0 dh=-100 dv=0 dx=0 dy=0 dh=0 dv=0
PairPos2: "'kern' Horizontal Kerning in Arabic lookup 6 subtable" uni062B dx=-140 dy=0 dh=-140 dv=0 dx=0 dy=0 dh=0 dv=0
PairPos2: "'kern' Horizontal Kerning in Arabic lookup 6 subtable" uniFE97 dx=-100 dy=0 dh=-100 dv=0 dx=0 dy=0 dh=0 dv=0
PairPos2: "'kern' Horizontal Kerning in Arabic lookup 6 subtable" uni062A dx=-140 dy=0 dh=-140 dv=0 dx=0 dy=0 dh=0 dv=0
PairPos2: "'kern' Horizontal Kerning in Arabic lookup 6 subtable" uniFB58 dx=-60 dy=0 dh=-60 dv=0 dx=0 dy=0 dh=0 dv=0
PairPos2: "'kern' Horizontal Kerning in Arabic lookup 6 subtable" uni067E dx=-140 dy=0 dh=-140 dv=0 dx=0 dy=0 dh=0 dv=0
PairPos2: "'kern' Horizontal Kerning in Arabic lookup 6 subtable" uniFE91 dx=-110 dy=0 dh=-110 dv=0 dx=0 dy=0 dh=0 dv=0
PairPos2: "'kern' Horizontal Kerning in Arabic lookup 6 subtable" uni0622 dx=-100 dy=0 dh=-100 dv=0 dx=0 dy=0 dh=0 dv=0
PairPos2: "'kern' Horizontal Kerning in Arabic lookup 6 subtable" uni0623 dx=-80 dy=0 dh=-80 dv=0 dx=0 dy=0 dh=0 dv=0
PairPos2: "'kern' Horizontal Kerning in Arabic lookup 6 subtable" uni0627 dx=-80 dy=0 dh=-80 dv=0 dx=0 dy=0 dh=0 dv=0
EndChar

StartChar: uniFB8B
Encoding: 64395 64395 108
Width: 457
GlyphClass: 2
Flags: W
LayerCount: 2
Fore
SplineSet
122 -73 m 2,0,1
 156 -62 156 -62 175.5 -34 c 128,-1,2
 195 -6 195 -6 195 29 c 2,3,-1
 195 398 l 1,4,-1
 340 398 l 1,5,-1
 340 193 l 2,6,7
 340 182 340 182 347.5 176 c 128,-1,8
 355 170 355 170 366 170 c 2,9,-1
 457 170 l 2,10,11
 471 170 471 170 471 156 c 2,12,-1
 471 14 l 2,13,14
 471 0 471 0 457 0 c 2,15,-1
 390 0 l 2,16,17
 378 0 378 0 362.5 6.5 c 128,-1,18
 347 13 347 13 339 21 c 1,19,-1
 339 6 l 2,20,21
 339 -34 339 -34 325.5 -67.5 c 128,-1,22
 312 -101 312 -101 288 -128 c 128,-1,23
 264 -155 264 -155 231 -175 c 128,-1,24
 198 -195 198 -195 160 -208 c 2,25,-1
 3 -262 l 1,26,-1
 -41 -129 l 1,27,-1
 122 -73 l 2,0,1
193 599 m 1,28,-1
 193 704 l 1,29,-1
 323 704 l 1,30,-1
 323 599 l 1,31,-1
 391 599 l 1,32,-1
 391 464 l 1,33,-1
 131 464 l 1,34,-1
 131 599 l 1,35,-1
 193 599 l 1,28,-1
EndSplineSet
PairPos2: "'kern' Horizontal Kerning in Arabic lookup 6 subtable" uniFB94.alt dx=-140 dy=0 dh=-140 dv=0 dx=0 dy=0 dh=0 dv=0
PairPos2: "'kern' Horizontal Kerning in Arabic lookup 6 subtable" uniFB92.alt dx=-140 dy=0 dh=-140 dv=0 dx=0 dy=0 dh=0 dv=0
PairPos2: "'kern' Horizontal Kerning in Arabic lookup 6 subtable" uniFB90.alt dx=-140 dy=0 dh=-140 dv=0 dx=0 dy=0 dh=0 dv=0
PairPos2: "'kern' Horizontal Kerning in Arabic lookup 6 subtable" uniFB8E.alt dx=-140 dy=0 dh=-140 dv=0 dx=0 dy=0 dh=0 dv=0
PairPos2: "'kern' Horizontal Kerning in Arabic lookup 6 subtable" uniFEBFFBFD dx=-140 dy=0 dh=-140 dv=0 dx=0 dy=0 dh=0 dv=0
PairPos2: "'kern' Horizontal Kerning in Arabic lookup 6 subtable" uniFEBBFBFD dx=-140 dy=0 dh=-140 dv=0 dx=0 dy=0 dh=0 dv=0
PairPos2: "'kern' Horizontal Kerning in Arabic lookup 6 subtable" uniFEB7FBFD dx=-140 dy=0 dh=-140 dv=0 dx=0 dy=0 dh=0 dv=0
PairPos2: "'kern' Horizontal Kerning in Arabic lookup 6 subtable" uniFEB3FBFD dx=-140 dy=0 dh=-140 dv=0 dx=0 dy=0 dh=0 dv=0
PairPos2: "'kern' Horizontal Kerning in Arabic lookup 6 subtable" uniFEF5 dx=-100 dy=0 dh=-100 dv=0 dx=0 dy=0 dh=0 dv=0
PairPos2: "'kern' Horizontal Kerning in Arabic lookup 6 subtable" uniFEF7 dx=-100 dy=0 dh=-100 dv=0 dx=0 dy=0 dh=0 dv=0
PairPos2: "'kern' Horizontal Kerning in Arabic lookup 6 subtable" uniFEFB dx=-100 dy=0 dh=-100 dv=0 dx=0 dy=0 dh=0 dv=0
PairPos2: "'kern' Horizontal Kerning in Arabic lookup 6 subtable" uniFBFE dx=-40 dy=0 dh=-40 dv=0 dx=0 dy=0 dh=0 dv=0
PairPos2: "'kern' Horizontal Kerning in Arabic lookup 6 subtable" uniFEF3 dx=-40 dy=0 dh=-40 dv=0 dx=0 dy=0 dh=0 dv=0
PairPos2: "'kern' Horizontal Kerning in Arabic lookup 6 subtable" uni0629 dx=-140 dy=0 dh=-140 dv=0 dx=0 dy=0 dh=0 dv=0
PairPos2: "'kern' Horizontal Kerning in Arabic lookup 6 subtable" uni06C0 dx=-140 dy=0 dh=-140 dv=0 dx=0 dy=0 dh=0 dv=0
PairPos2: "'kern' Horizontal Kerning in Arabic lookup 6 subtable" uniFEEB dx=-140 dy=0 dh=-140 dv=0 dx=0 dy=0 dh=0 dv=0
PairPos2: "'kern' Horizontal Kerning in Arabic lookup 6 subtable" uni0647 dx=-140 dy=0 dh=-140 dv=0 dx=0 dy=0 dh=0 dv=0
PairPos2: "'kern' Horizontal Kerning in Arabic lookup 6 subtable" uniFEE7 dx=-120 dy=0 dh=-120 dv=0 dx=0 dy=0 dh=0 dv=0
PairPos2: "'kern' Horizontal Kerning in Arabic lookup 6 subtable" uniFEE3 dx=-140 dy=0 dh=-140 dv=0 dx=0 dy=0 dh=0 dv=0
PairPos2: "'kern' Horizontal Kerning in Arabic lookup 6 subtable" uni0645 dx=-140 dy=0 dh=-140 dv=0 dx=0 dy=0 dh=0 dv=0
PairPos2: "'kern' Horizontal Kerning in Arabic lookup 6 subtable" uniFB94 dx=-100 dy=0 dh=-100 dv=0 dx=0 dy=0 dh=0 dv=0
PairPos2: "'kern' Horizontal Kerning in Arabic lookup 6 subtable" uni06AF dx=-100 dy=0 dh=-100 dv=0 dx=0 dy=0 dh=0 dv=0
PairPos2: "'kern' Horizontal Kerning in Arabic lookup 6 subtable" uniFB90 dx=-100 dy=0 dh=-100 dv=0 dx=0 dy=0 dh=0 dv=0
PairPos2: "'kern' Horizontal Kerning in Arabic lookup 6 subtable" uni06A9 dx=-100 dy=0 dh=-100 dv=0 dx=0 dy=0 dh=0 dv=0
PairPos2: "'kern' Horizontal Kerning in Arabic lookup 6 subtable" uniFEDB dx=-100 dy=0 dh=-100 dv=0 dx=0 dy=0 dh=0 dv=0
PairPos2: "'kern' Horizontal Kerning in Arabic lookup 6 subtable" uniFED7 dx=-120 dy=0 dh=-120 dv=0 dx=0 dy=0 dh=0 dv=0
PairPos2: "'kern' Horizontal Kerning in Arabic lookup 6 subtable" uniFED3 dx=-120 dy=0 dh=-120 dv=0 dx=0 dy=0 dh=0 dv=0
PairPos2: "'kern' Horizontal Kerning in Arabic lookup 6 subtable" uni0641 dx=-120 dy=0 dh=-120 dv=0 dx=0 dy=0 dh=0 dv=0
PairPos2: "'kern' Horizontal Kerning in Arabic lookup 6 subtable" uniFECF dx=-140 dy=0 dh=-140 dv=0 dx=0 dy=0 dh=0 dv=0
PairPos2: "'kern' Horizontal Kerning in Arabic lookup 6 subtable" uni063A dx=-60 dy=0 dh=-60 dv=0 dx=0 dy=0 dh=0 dv=0
PairPos2: "'kern' Horizontal Kerning in Arabic lookup 6 subtable" uniFECB dx=-140 dy=0 dh=-140 dv=0 dx=0 dy=0 dh=0 dv=0
PairPos2: "'kern' Horizontal Kerning in Arabic lookup 6 subtable" uni0639 dx=-60 dy=0 dh=-60 dv=0 dx=0 dy=0 dh=0 dv=0
PairPos2: "'kern' Horizontal Kerning in Arabic lookup 6 subtable" uniFEC7 dx=-140 dy=0 dh=-140 dv=0 dx=0 dy=0 dh=0 dv=0
PairPos2: "'kern' Horizontal Kerning in Arabic lookup 6 subtable" uni0638 dx=-140 dy=0 dh=-140 dv=0 dx=0 dy=0 dh=0 dv=0
PairPos2: "'kern' Horizontal Kerning in Arabic lookup 6 subtable" uniFEC3 dx=-140 dy=0 dh=-140 dv=0 dx=0 dy=0 dh=0 dv=0
PairPos2: "'kern' Horizontal Kerning in Arabic lookup 6 subtable" uni0637 dx=-140 dy=0 dh=-140 dv=0 dx=0 dy=0 dh=0 dv=0
PairPos2: "'kern' Horizontal Kerning in Arabic lookup 6 subtable" uniFEBB dx=-140 dy=0 dh=-140 dv=0 dx=0 dy=0 dh=0 dv=0
PairPos2: "'kern' Horizontal Kerning in Arabic lookup 6 subtable" uni0635 dx=-140 dy=0 dh=-140 dv=0 dx=0 dy=0 dh=0 dv=0
PairPos2: "'kern' Horizontal Kerning in Arabic lookup 6 subtable" uniFEB7 dx=-140 dy=0 dh=-140 dv=0 dx=0 dy=0 dh=0 dv=0
PairPos2: "'kern' Horizontal Kerning in Arabic lookup 6 subtable" uni0634 dx=-140 dy=0 dh=-140 dv=0 dx=0 dy=0 dh=0 dv=0
PairPos2: "'kern' Horizontal Kerning in Arabic lookup 6 subtable" uniFEB3 dx=-140 dy=0 dh=-140 dv=0 dx=0 dy=0 dh=0 dv=0
PairPos2: "'kern' Horizontal Kerning in Arabic lookup 6 subtable" uni0633 dx=-140 dy=0 dh=-140 dv=0 dx=0 dy=0 dh=0 dv=0
PairPos2: "'kern' Horizontal Kerning in Arabic lookup 6 subtable" uni0630 dx=-140 dy=0 dh=-140 dv=0 dx=0 dy=0 dh=0 dv=0
PairPos2: "'kern' Horizontal Kerning in Arabic lookup 6 subtable" uni062F dx=-140 dy=0 dh=-140 dv=0 dx=0 dy=0 dh=0 dv=0
PairPos2: "'kern' Horizontal Kerning in Arabic lookup 6 subtable" uniFEA7 dx=-120 dy=0 dh=-120 dv=0 dx=0 dy=0 dh=0 dv=0
PairPos2: "'kern' Horizontal Kerning in Arabic lookup 6 subtable" uniFEA3 dx=-120 dy=0 dh=-120 dv=0 dx=0 dy=0 dh=0 dv=0
PairPos2: "'kern' Horizontal Kerning in Arabic lookup 6 subtable" uni062D dx=-5 dy=0 dh=-5 dv=0 dx=0 dy=0 dh=0 dv=0
PairPos2: "'kern' Horizontal Kerning in Arabic lookup 6 subtable" uniFB7C dx=-100 dy=0 dh=-100 dv=0 dx=0 dy=0 dh=0 dv=0
PairPos2: "'kern' Horizontal Kerning in Arabic lookup 6 subtable" uni0686 dx=-5 dy=0 dh=-5 dv=0 dx=0 dy=0 dh=0 dv=0
PairPos2: "'kern' Horizontal Kerning in Arabic lookup 6 subtable" uniFE9F dx=-120 dy=0 dh=-120 dv=0 dx=0 dy=0 dh=0 dv=0
PairPos2: "'kern' Horizontal Kerning in Arabic lookup 6 subtable" uni062C dx=-5 dy=0 dh=-5 dv=0 dx=0 dy=0 dh=0 dv=0
PairPos2: "'kern' Horizontal Kerning in Arabic lookup 6 subtable" uniFE9B dx=-100 dy=0 dh=-100 dv=0 dx=0 dy=0 dh=0 dv=0
PairPos2: "'kern' Horizontal Kerning in Arabic lookup 6 subtable" uni062B dx=-140 dy=0 dh=-140 dv=0 dx=0 dy=0 dh=0 dv=0
PairPos2: "'kern' Horizontal Kerning in Arabic lookup 6 subtable" uniFE97 dx=-100 dy=0 dh=-100 dv=0 dx=0 dy=0 dh=0 dv=0
PairPos2: "'kern' Horizontal Kerning in Arabic lookup 6 subtable" uni062A dx=-140 dy=0 dh=-140 dv=0 dx=0 dy=0 dh=0 dv=0
PairPos2: "'kern' Horizontal Kerning in Arabic lookup 6 subtable" uniFB58 dx=-60 dy=0 dh=-60 dv=0 dx=0 dy=0 dh=0 dv=0
PairPos2: "'kern' Horizontal Kerning in Arabic lookup 6 subtable" uni067E dx=-140 dy=0 dh=-140 dv=0 dx=0 dy=0 dh=0 dv=0
PairPos2: "'kern' Horizontal Kerning in Arabic lookup 6 subtable" uniFE91 dx=-110 dy=0 dh=-110 dv=0 dx=0 dy=0 dh=0 dv=0
PairPos2: "'kern' Horizontal Kerning in Arabic lookup 6 subtable" uni0622 dx=-100 dy=0 dh=-100 dv=0 dx=0 dy=0 dh=0 dv=0
PairPos2: "'kern' Horizontal Kerning in Arabic lookup 6 subtable" uni0623 dx=-80 dy=0 dh=-80 dv=0 dx=0 dy=0 dh=0 dv=0
PairPos2: "'kern' Horizontal Kerning in Arabic lookup 6 subtable" uni0627 dx=-80 dy=0 dh=-80 dv=0 dx=0 dy=0 dh=0 dv=0
EndChar

StartChar: uni0633
Encoding: 1587 1587 109
AltUni2: 00feb1.ffffffff.0
Width: 1219
GlyphClass: 2
Flags: W
AnchorPoint: "Anchor-1" 850 -150 basechar 0
AnchorPoint: "Anchor-0" 820 -150 basechar 0
LayerCount: 2
Fore
SplineSet
185 382 m 1,0,-1
 185 88 l 2,1,2
 185 69 185 69 192.5 52 c 128,-1,3
 200 35 200 35 213 22 c 128,-1,4
 226 9 226 9 243 2 c 128,-1,5
 260 -5 260 -5 279 -5 c 2,6,-1
 462 -5 l 2,7,8
 492 -5 492 -5 514 16.5 c 128,-1,9
 536 38 536 38 536 69 c 2,10,-1
 536 399 l 1,11,-1
 679 399 l 1,12,-1
 679 194 l 2,13,14
 679 183 679 183 687.5 176.5 c 128,-1,15
 696 170 696 170 706 170 c 2,16,-1
 741 170 l 2,17,18
 754 170 754 170 764 177.5 c 128,-1,19
 774 185 774 185 776 198 c 2,20,-1
 816 398 l 1,21,-1
 963 372 l 1,22,-1
 929 202 l 2,23,24
 929 199 929 199 929 197 c 0,25,26
 929 188 929 188 935.5 179.5 c 128,-1,27
 942 171 942 171 955 171 c 2,28,-1
 1044 171 l 1,29,-1
 1044 428 l 1,30,-1
 1189 428 l 1,31,-1
 1189 148 l 2,32,33
 1189 119 1189 119 1177 92 c 128,-1,34
 1165 65 1165 65 1144 44.5 c 128,-1,35
 1123 24 1123 24 1096 12 c 128,-1,36
 1069 0 1069 0 1039 0 c 2,37,-1
 970 0 l 2,38,39
 940 0 940 0 905 11.5 c 128,-1,40
 870 23 870 23 847 52 c 1,41,42
 821 23 821 23 797.5 11.5 c 128,-1,43
 774 0 774 0 742 0 c 0,44,45
 716 0 716 0 701 7 c 128,-1,46
 686 14 686 14 678 21 c 1,47,-1
 678 6 l 2,48,49
 678 -23 678 -23 663 -55 c 128,-1,50
 648 -87 648 -87 620.5 -113.5 c 128,-1,51
 593 -140 593 -140 552.5 -157.5 c 128,-1,52
 512 -175 512 -175 461 -175 c 2,53,-1
 284 -175 l 2,54,55
 233 -175 233 -175 188.5 -155.5 c 128,-1,56
 144 -136 144 -136 111 -103 c 128,-1,57
 78 -70 78 -70 59 -25.5 c 128,-1,58
 40 19 40 19 40 69 c 2,59,-1
 40 382 l 1,60,-1
 185 382 l 1,0,-1
EndSplineSet
Substitution2: "'fina' Terminal Forms in Arabic lookup 3 subtable" uniFEB2
Substitution2: "'medi' Medial Forms in Arabic lookup 2 subtable" uniFEB4
Substitution2: "'isol' Isolated Forms in Arabic lookup 1 subtable" uni0633
Substitution2: "'init' Initial Forms in Arabic lookup 0 subtable" uniFEB3
EndChar

StartChar: uniFEB2
Encoding: 65202 65202 110
Width: 1256
GlyphClass: 2
Flags: W
AnchorPoint: "Anchor-1" 850 -150 basechar 0
AnchorPoint: "Anchor-0" 820 -150 basechar 0
LayerCount: 2
Fore
SplineSet
185 381 m 1,0,-1
 185 87 l 2,1,2
 185 48 185 48 212 21 c 128,-1,3
 239 -6 239 -6 278 -6 c 2,4,-1
 461 -6 l 2,5,6
 492 -6 492 -6 513 15.5 c 128,-1,7
 534 37 534 37 535 68 c 2,8,-1
 535 398 l 1,9,-1
 680 398 l 1,10,-1
 680 200 l 2,11,12
 680 185 680 185 689.5 177.5 c 128,-1,13
 699 170 699 170 707 170 c 2,14,-1
 744 170 l 2,15,16
 756 170 756 170 765.5 177.5 c 128,-1,17
 775 185 775 185 777 198 c 2,18,-1
 817 397 l 1,19,-1
 964 373 l 1,20,-1
 930 205 l 2,21,22
 929 201 929 201 929 197 c 0,23,24
 929 187 929 187 935.5 178.5 c 128,-1,25
 942 170 942 170 956 170 c 2,26,-1
 1011 170 l 2,27,28
 1023 170 1023 170 1031 178.5 c 128,-1,29
 1039 187 1039 187 1039 198 c 2,30,-1
 1039 423 l 1,31,-1
 1184 423 l 1,32,-1
 1184 202 l 2,33,34
 1184 170 1184 170 1212 170 c 2,35,-1
 1256 170 l 2,36,37
 1270 170 1270 170 1270 156 c 2,38,-1
 1270 14 l 2,39,40
 1270 0 1270 0 1256 0 c 2,41,-1
 1236 0 l 2,42,43
 1200 0 1200 0 1168.5 11.5 c 128,-1,44
 1137 23 1137 23 1111 52 c 1,45,46
 1085 24 1085 24 1051 12 c 128,-1,47
 1017 0 1017 0 982 0 c 0,48,49
 967 0 967 0 948.5 2.5 c 128,-1,50
 930 5 930 5 911.5 11 c 128,-1,51
 893 17 893 17 876.5 27 c 128,-1,52
 860 37 860 37 848 52 c 1,53,54
 825 23 825 23 798.5 11.5 c 128,-1,55
 772 0 772 0 743 0 c 0,56,57
 726 0 726 0 710 4.5 c 128,-1,58
 694 9 694 9 679 21 c 1,59,-1
 679 13 l 2,60,61
 679 -27 679 -27 660.5 -61.5 c 128,-1,62
 642 -96 642 -96 611.5 -121.5 c 128,-1,63
 581 -147 581 -147 541 -161.5 c 128,-1,64
 501 -176 501 -176 459 -176 c 2,65,-1
 284 -176 l 2,66,67
 233 -176 233 -176 188.5 -156.5 c 128,-1,68
 144 -137 144 -137 111 -104 c 128,-1,69
 78 -71 78 -71 59 -26.5 c 128,-1,70
 40 18 40 18 40 68 c 2,71,-1
 40 381 l 1,72,-1
 185 381 l 1,0,-1
EndSplineSet
EndChar

StartChar: uniFEB4
Encoding: 65204 65204 111
Width: 790
GlyphClass: 2
Flags: W
AnchorPoint: "Anchor-1" 380 -150 basechar 0
AnchorPoint: "Anchor-0" 400 -150 basechar 0
LayerCount: 2
Fore
SplineSet
-14 155 m 2,0,1
 -14 161 -14 161 -9.5 165.5 c 128,-1,2
 -5 170 -5 170 0 170 c 2,3,-1
 42 170 l 2,4,5
 54 170 54 170 62 178.5 c 128,-1,6
 70 187 70 187 70 199 c 2,7,-1
 70 397 l 1,8,-1
 214 397 l 1,9,-1
 214 200 l 2,10,11
 214 186 214 186 223.5 178 c 128,-1,12
 233 170 233 170 241 170 c 2,13,-1
 278 170 l 2,14,15
 290 170 290 170 299.5 177.5 c 128,-1,16
 309 185 309 185 311 198 c 2,17,-1
 351 397 l 1,18,-1
 498 373 l 1,19,-1
 464 205 l 2,20,21
 463 200 463 200 463 196 c 0,22,23
 463 187 463 187 469.5 178.5 c 128,-1,24
 476 170 476 170 490 170 c 2,25,-1
 546 170 l 2,26,27
 558 170 558 170 566 178.5 c 128,-1,28
 574 187 574 187 574 198 c 2,29,-1
 574 423 l 1,30,-1
 718 423 l 1,31,-1
 718 202 l 2,32,33
 718 170 718 170 746 170 c 2,34,-1
 790 170 l 2,35,36
 804 170 804 170 804 156 c 2,37,-1
 804 14 l 2,38,39
 804 0 804 0 790 0 c 2,40,-1
 770 0 l 2,41,42
 734 0 734 0 702.5 11.5 c 128,-1,43
 671 23 671 23 645 52 c 1,44,45
 619 24 619 24 585 12 c 128,-1,46
 551 0 551 0 516 0 c 0,47,48
 501 0 501 0 482.5 2.5 c 128,-1,49
 464 5 464 5 445.5 11 c 128,-1,50
 427 17 427 17 410.5 27 c 128,-1,51
 394 37 394 37 382 52 c 1,52,53
 356 23 356 23 327.5 11.5 c 128,-1,54
 299 0 299 0 267 0 c 0,55,56
 233 0 233 0 200.5 11.5 c 128,-1,57
 168 23 168 23 142 52 c 1,58,59
 116 23 116 23 85.5 11.5 c 128,-1,60
 55 0 55 0 20 0 c 2,61,-1
 0 0 l 2,62,63
 -6 0 -6 0 -10 4.5 c 128,-1,64
 -14 9 -14 9 -14 14 c 2,65,-1
 -14 155 l 2,0,1
EndSplineSet
EndChar

StartChar: uniFEB3
Encoding: 65203 65203 112
Width: 752
GlyphClass: 2
Flags: W
AnchorPoint: "Anchor-1" 380 -150 basechar 0
AnchorPoint: "Anchor-0" 380 -150 basechar 0
LayerCount: 2
Fore
SplineSet
-14 155 m 2,0,1
 -14 161 -14 161 -9.5 165.5 c 128,-1,2
 -5 170 -5 170 0 170 c 2,3,-1
 46 170 l 2,4,5
 57 170 57 170 65.5 179.5 c 128,-1,6
 74 189 74 189 74 200 c 2,7,-1
 74 397 l 1,8,-1
 218 397 l 1,9,-1
 218 200 l 2,10,11
 218 188 218 188 226 179 c 128,-1,12
 234 170 234 170 246 170 c 2,13,-1
 280 170 l 2,14,15
 308 170 308 170 315 198 c 2,16,-1
 355 397 l 1,17,-1
 502 372 l 1,18,-1
 468 205 l 2,19,20
 467 201 467 201 467 197 c 0,21,22
 467 188 467 188 474 179 c 128,-1,23
 481 170 481 170 494 170 c 2,24,-1
 578 170 l 1,25,-1
 578 423 l 1,26,-1
 722 423 l 1,27,-1
 722 148 l 2,28,29
 722 119 722 119 710 92 c 128,-1,30
 698 65 698 65 677.5 44.5 c 128,-1,31
 657 24 657 24 630 12 c 128,-1,32
 603 0 603 0 573 0 c 2,33,-1
 493 0 l 2,34,35
 463 0 463 0 436 11 c 128,-1,36
 409 22 409 22 386 51 c 1,37,38
 360 22 360 22 331.5 11 c 128,-1,39
 303 0 303 0 271 0 c 0,40,41
 236 0 236 0 204 12 c 128,-1,42
 172 24 172 24 146 51 c 1,43,44
 120 24 120 24 87.5 12 c 128,-1,45
 55 0 55 0 20 0 c 2,46,-1
 0 0 l 2,47,48
 -6 0 -6 0 -10 4.5 c 128,-1,49
 -14 9 -14 9 -14 14 c 2,50,-1
 -14 155 l 2,0,1
EndSplineSet
EndChar

StartChar: uni0634
Encoding: 1588 1588 113
AltUni2: 00feb5.ffffffff.0
Width: 1219
GlyphClass: 2
Flags: W
AnchorPoint: "Anchor-1" 850 -150 basechar 0
AnchorPoint: "Anchor-0" 820 50 basechar 0
LayerCount: 2
Fore
SplineSet
185 385 m 1,0,-1
 185 88 l 2,1,2
 185 69 185 69 192.5 52 c 128,-1,3
 200 35 200 35 213 22 c 128,-1,4
 226 9 226 9 243 2 c 128,-1,5
 260 -5 260 -5 279 -5 c 2,6,-1
 460 -5 l 2,7,8
 490 -5 490 -5 512 16.5 c 128,-1,9
 534 38 534 38 534 69 c 2,10,-1
 534 402 l 1,11,-1
 679 402 l 1,12,-1
 679 194 l 2,13,14
 679 183 679 183 687.5 176.5 c 128,-1,15
 696 170 696 170 706 170 c 2,16,-1
 741 170 l 2,17,18
 754 170 754 170 764 177.5 c 128,-1,19
 774 185 774 185 776 198 c 2,20,-1
 816 401 l 1,21,-1
 963 375 l 1,22,-1
 929 202 l 2,23,24
 929 199 929 199 929 197 c 0,25,26
 929 188 929 188 935.5 179.5 c 128,-1,27
 942 171 942 171 955 171 c 2,28,-1
 1044 171 l 1,29,-1
 1044 431 l 1,30,-1
 1189 431 l 1,31,-1
 1189 148 l 2,32,33
 1189 119 1189 119 1177 92 c 128,-1,34
 1165 65 1165 65 1144 44.5 c 128,-1,35
 1123 24 1123 24 1096 12 c 128,-1,36
 1069 0 1069 0 1039 0 c 2,37,-1
 970 0 l 2,38,39
 940 0 940 0 905 11.5 c 128,-1,40
 870 23 870 23 847 52 c 1,41,42
 821 23 821 23 797.5 11.5 c 128,-1,43
 774 0 774 0 742 0 c 0,44,45
 716 0 716 0 701 7 c 128,-1,46
 686 14 686 14 678 21 c 1,47,-1
 678 6 l 2,48,49
 678 -23 678 -23 663 -55 c 128,-1,50
 648 -87 648 -87 620.5 -113.5 c 128,-1,51
 593 -140 593 -140 552.5 -157.5 c 128,-1,52
 512 -175 512 -175 461 -175 c 2,53,-1
 284 -175 l 2,54,55
 233 -175 233 -175 188.5 -155.5 c 128,-1,56
 144 -136 144 -136 111 -103 c 128,-1,57
 78 -70 78 -70 59 -25.5 c 128,-1,58
 40 19 40 19 40 69 c 2,59,-1
 40 385 l 1,60,-1
 185 385 l 1,0,-1
717 477 m 1,61,-1
 717 612 l 1,62,-1
 779 612 l 1,63,-1
 779 717 l 1,64,-1
 909 717 l 1,65,-1
 909 612 l 1,66,-1
 977 612 l 1,67,-1
 977 477 l 1,68,-1
 717 477 l 1,61,-1
EndSplineSet
Substitution2: "'fina' Terminal Forms in Arabic lookup 3 subtable" uniFEB6
Substitution2: "'medi' Medial Forms in Arabic lookup 2 subtable" uniFEB8
Substitution2: "'isol' Isolated Forms in Arabic lookup 1 subtable" uni0634
Substitution2: "'init' Initial Forms in Arabic lookup 0 subtable" uniFEB7
EndChar

StartChar: uniFEB6
Encoding: 65206 65206 114
Width: 1254
GlyphClass: 2
Flags: W
AnchorPoint: "Anchor-1" 850 -150 basechar 0
AnchorPoint: "Anchor-0" 820 50 basechar 0
LayerCount: 2
Fore
SplineSet
40 68 m 2,0,-1
 40 380 l 1,1,-1
 185 380 l 1,2,-1
 185 88 l 2,3,4
 185 49 185 49 212 22 c 128,-1,5
 239 -5 239 -5 278 -5 c 2,6,-1
 462 -5 l 2,7,8
 493 -5 493 -5 514.5 16.5 c 128,-1,9
 536 38 536 38 536 69 c 2,10,-1
 536 397 l 1,11,-1
 680 397 l 1,12,-1
 680 199 l 2,13,14
 680 185 680 185 689.5 177.5 c 128,-1,15
 699 170 699 170 707 170 c 2,16,-1
 744 170 l 2,17,18
 756 170 756 170 765.5 177 c 128,-1,19
 775 184 775 184 777 197 c 2,20,-1
 817 396 l 1,21,-1
 964 372 l 1,22,-1
 930 204 l 2,23,24
 929 199 929 199 929 195 c 0,25,26
 929 186 929 186 935.5 178 c 128,-1,27
 942 170 942 170 956 170 c 2,28,-1
 1011 170 l 2,29,30
 1023 170 1023 170 1031 178 c 128,-1,31
 1039 186 1039 186 1039 197 c 2,32,-1
 1039 422 l 1,33,-1
 1184 422 l 1,34,-1
 1184 201 l 2,35,36
 1184 170 1184 170 1212 170 c 2,37,-1
 1254 170 l 2,38,39
 1268 170 1268 170 1268 156 c 2,40,-1
 1268 14 l 2,41,42
 1268 0 1268 0 1254 0 c 2,43,-1
 1236 0 l 2,44,45
 1200 0 1200 0 1168.5 11.5 c 128,-1,46
 1137 23 1137 23 1111 52 c 1,47,48
 1085 24 1085 24 1051 12 c 128,-1,49
 1017 0 1017 0 982 0 c 0,50,51
 967 0 967 0 948.5 2.5 c 128,-1,52
 930 5 930 5 911.5 11 c 128,-1,53
 893 17 893 17 876.5 27 c 128,-1,54
 860 37 860 37 848 52 c 1,55,56
 825 23 825 23 798.5 11.5 c 128,-1,57
 772 0 772 0 743 0 c 0,58,59
 726 0 726 0 710 4.5 c 128,-1,60
 694 9 694 9 679 21 c 1,61,-1
 679 13 l 2,62,63
 679 -27 679 -27 660.5 -62 c 128,-1,64
 642 -97 642 -97 611.5 -122.5 c 128,-1,65
 581 -148 581 -148 541 -162.5 c 128,-1,66
 501 -177 501 -177 459 -177 c 2,67,-1
 284 -177 l 2,68,69
 233 -177 233 -177 188.5 -157.5 c 128,-1,70
 144 -138 144 -138 111 -105 c 128,-1,71
 78 -72 78 -72 59 -27.5 c 128,-1,72
 40 17 40 17 40 68 c 2,0,-1
779 612 m 1,73,-1
 779 717 l 1,74,-1
 909 717 l 1,75,-1
 909 612 l 1,76,-1
 977 612 l 1,77,-1
 977 477 l 1,78,-1
 717 477 l 1,79,-1
 717 612 l 1,80,-1
 779 612 l 1,73,-1
EndSplineSet
EndChar

StartChar: uniFEB8
Encoding: 65208 65208 115
Width: 790
GlyphClass: 2
Flags: W
AnchorPoint: "Anchor-1" 380 -150 basechar 0
AnchorPoint: "Anchor-0" 380 100 basechar 0
LayerCount: 2
Fore
SplineSet
-14 14 m 2,0,-1
 -14 155 l 2,1,2
 -14 161 -14 161 -9.5 165.5 c 128,-1,3
 -5 170 -5 170 0 170 c 2,4,-1
 42 170 l 2,5,6
 54 170 54 170 62 178.5 c 128,-1,7
 70 187 70 187 70 199 c 2,8,-1
 70 397 l 1,9,-1
 214 397 l 1,10,-1
 214 200 l 2,11,12
 214 186 214 186 223.5 178 c 128,-1,13
 233 170 233 170 241 170 c 2,14,-1
 278 170 l 2,15,16
 290 170 290 170 299.5 177.5 c 128,-1,17
 309 185 309 185 311 198 c 2,18,-1
 351 397 l 1,19,-1
 498 373 l 1,20,-1
 464 205 l 2,21,22
 463 200 463 200 463 196 c 0,23,24
 463 187 463 187 469.5 178.5 c 128,-1,25
 476 170 476 170 490 170 c 2,26,-1
 546 170 l 2,27,28
 558 170 558 170 566 178.5 c 128,-1,29
 574 187 574 187 574 198 c 2,30,-1
 574 423 l 1,31,-1
 718 423 l 1,32,-1
 718 202 l 2,33,34
 718 170 718 170 746 170 c 2,35,-1
 790 170 l 2,36,37
 804 170 804 170 804 156 c 2,38,-1
 804 14 l 2,39,40
 804 0 804 0 790 0 c 2,41,-1
 770 0 l 2,42,43
 734 0 734 0 702.5 11.5 c 128,-1,44
 671 23 671 23 645 52 c 1,45,46
 619 24 619 24 585 12 c 128,-1,47
 551 0 551 0 516 0 c 0,48,49
 501 0 501 0 482.5 2.5 c 128,-1,50
 464 5 464 5 445.5 11 c 128,-1,51
 427 17 427 17 410.5 27 c 128,-1,52
 394 37 394 37 382 52 c 1,53,54
 356 23 356 23 327.5 11.5 c 128,-1,55
 299 0 299 0 267 0 c 0,56,57
 233 0 233 0 200.5 11.5 c 128,-1,58
 168 23 168 23 142 52 c 1,59,60
 116 23 116 23 85.5 11.5 c 128,-1,61
 55 0 55 0 20 0 c 2,62,-1
 0 0 l 2,63,64
 -6 0 -6 0 -10 4.5 c 128,-1,65
 -14 9 -14 9 -14 14 c 2,0,-1
252 477 m 1,66,-1
 252 612 l 1,67,-1
 314 612 l 1,68,-1
 314 717 l 1,69,-1
 444 717 l 1,70,-1
 444 612 l 1,71,-1
 512 612 l 1,72,-1
 512 477 l 1,73,-1
 252 477 l 1,66,-1
EndSplineSet
EndChar

StartChar: uniFEB7
Encoding: 65207 65207 116
Width: 752
GlyphClass: 2
Flags: W
AnchorPoint: "Anchor-1" 380 -150 basechar 0
AnchorPoint: "Anchor-0" 380 100 basechar 0
LayerCount: 2
Fore
SplineSet
-14 155 m 2,0,1
 -14 161 -14 161 -9.5 165.5 c 128,-1,2
 -5 170 -5 170 0 170 c 2,3,-1
 46 170 l 2,4,5
 57 170 57 170 65.5 179.5 c 128,-1,6
 74 189 74 189 74 200 c 2,7,-1
 74 397 l 1,8,-1
 218 397 l 1,9,-1
 218 200 l 2,10,11
 218 188 218 188 226 179 c 128,-1,12
 234 170 234 170 246 170 c 2,13,-1
 280 170 l 2,14,15
 308 170 308 170 315 198 c 2,16,-1
 355 397 l 1,17,-1
 502 372 l 1,18,-1
 468 205 l 2,19,20
 467 201 467 201 467 197 c 0,21,22
 467 188 467 188 474 179 c 128,-1,23
 481 170 481 170 494 170 c 2,24,-1
 578 170 l 1,25,-1
 578 423 l 1,26,-1
 722 423 l 1,27,-1
 722 148 l 2,28,29
 722 119 722 119 710 92 c 128,-1,30
 698 65 698 65 677.5 44.5 c 128,-1,31
 657 24 657 24 630 12 c 128,-1,32
 603 0 603 0 573 0 c 2,33,-1
 493 0 l 2,34,35
 463 0 463 0 436 11 c 128,-1,36
 409 22 409 22 386 51 c 1,37,38
 360 22 360 22 331.5 11 c 128,-1,39
 303 0 303 0 271 0 c 0,40,41
 236 0 236 0 204 12 c 128,-1,42
 172 24 172 24 146 51 c 1,43,44
 120 24 120 24 87.5 12 c 128,-1,45
 55 0 55 0 20 0 c 2,46,-1
 0 0 l 2,47,48
 -6 0 -6 0 -10 4.5 c 128,-1,49
 -14 9 -14 9 -14 14 c 2,50,-1
 -14 155 l 2,0,1
256 477 m 1,51,-1
 256 612 l 1,52,-1
 318 612 l 1,53,-1
 318 717 l 1,54,-1
 448 717 l 1,55,-1
 448 612 l 1,56,-1
 516 612 l 1,57,-1
 516 477 l 1,58,-1
 256 477 l 1,51,-1
EndSplineSet
EndChar

StartChar: uni0635
Encoding: 1589 1589 117
AltUni2: 00feb9.ffffffff.0
Width: 1256
GlyphClass: 2
Flags: W
AnchorPoint: "Anchor-1" 850 -150 basechar 0
AnchorPoint: "Anchor-0" 950 -150 basechar 0
LayerCount: 2
Fore
SplineSet
185 384 m 1,0,-1
 185 89 l 2,1,2
 185 70 185 70 193 53 c 128,-1,3
 201 36 201 36 214 23.5 c 128,-1,4
 227 11 227 11 244.5 3.5 c 128,-1,5
 262 -4 262 -4 281 -4 c 2,6,-1
 463 -4 l 2,7,8
 492 -4 492 -4 513.5 17.5 c 128,-1,9
 535 39 535 39 535 70 c 2,10,-1
 535 398 l 1,11,-1
 680 398 l 1,12,-1
 680 288 l 2,13,14
 680 275 680 275 682 267.5 c 128,-1,15
 684 260 684 260 686 256 c 0,16,17
 688 251 688 251 691 249 c 2,18,-1
 799 364 l 2,19,20
 834 401 834 401 881 422 c 128,-1,21
 928 443 928 443 979 443 c 2,22,-1
 1041 443 l 2,23,24
 1079 443 1079 443 1113 428.5 c 128,-1,25
 1147 414 1147 414 1172 389 c 128,-1,26
 1197 364 1197 364 1211.5 330.5 c 128,-1,27
 1226 297 1226 297 1226 259 c 2,28,-1
 1226 207 l 2,29,30
 1226 164 1226 164 1209.5 126.5 c 128,-1,31
 1193 89 1193 89 1165 61 c 128,-1,32
 1137 33 1137 33 1099 16.5 c 128,-1,33
 1061 0 1061 0 1018 0 c 2,34,-1
 869 0 l 2,35,36
 850 0 850 0 821.5 3.5 c 128,-1,37
 793 7 793 7 765 13 c 128,-1,38
 737 19 737 19 713 28 c 128,-1,39
 689 37 689 37 678 47 c 1,40,-1
 678 14 l 2,41,42
 678 -27 678 -27 660 -61.5 c 128,-1,43
 642 -96 642 -96 612 -121 c 128,-1,44
 582 -146 582 -146 542.5 -160 c 128,-1,45
 503 -174 503 -174 461 -174 c 2,46,-1
 286 -174 l 2,47,48
 235 -174 235 -174 190 -154.5 c 128,-1,49
 145 -135 145 -135 111.5 -102 c 128,-1,50
 78 -69 78 -69 59 -24.5 c 128,-1,51
 40 20 40 20 40 70 c 2,52,-1
 40 384 l 1,53,-1
 185 384 l 1,0,-1
1048 170 m 2,54,55
 1062 170 1062 170 1072 180 c 128,-1,56
 1082 190 1082 190 1082 204 c 2,57,-1
 1082 247 l 2,58,59
 1082 259 1082 259 1073 268.5 c 128,-1,60
 1064 278 1064 278 1051 278 c 2,61,-1
 942 278 l 2,62,63
 901 278 901 278 871 246 c 2,64,-1
 799 170 l 1,65,-1
 1048 170 l 2,54,55
EndSplineSet
Substitution2: "'fina' Terminal Forms in Arabic lookup 3 subtable" uniFEBA
Substitution2: "'medi' Medial Forms in Arabic lookup 2 subtable" uniFEBC
Substitution2: "'isol' Isolated Forms in Arabic lookup 1 subtable" uni0635
Substitution2: "'init' Initial Forms in Arabic lookup 0 subtable" uniFEBB
EndChar

StartChar: uniFEBA
Encoding: 65210 65210 118
Width: 1293
GlyphClass: 2
Flags: W
AnchorPoint: "Anchor-1" 850 -150 basechar 0
AnchorPoint: "Anchor-0" 950 -150 basechar 0
LayerCount: 2
Fore
SplineSet
184 384 m 1,0,-1
 184 91 l 2,1,2
 184 72 184 72 191.5 54.5 c 128,-1,3
 199 37 199 37 211.5 24.5 c 128,-1,4
 224 12 224 12 241.5 4.5 c 128,-1,5
 259 -3 259 -3 278 -3 c 2,6,-1
 462 -3 l 2,7,8
 492 -3 492 -3 514 18.5 c 128,-1,9
 536 40 536 40 536 71 c 2,10,-1
 536 399 l 1,11,-1
 680 399 l 1,12,-1
 680 288 l 2,13,14
 680 276 680 276 682 268.5 c 128,-1,15
 684 261 684 261 686 257 c 0,16,17
 688 251 688 251 691 249 c 2,18,-1
 799 365 l 2,19,20
 833 402 833 402 880.5 422.5 c 128,-1,21
 928 443 928 443 979 443 c 2,22,-1
 1041 443 l 2,23,24
 1079 443 1079 443 1113 428.5 c 128,-1,25
 1147 414 1147 414 1172 389 c 128,-1,26
 1197 364 1197 364 1211.5 330.5 c 128,-1,27
 1226 297 1226 297 1226 259 c 2,28,-1
 1226 198 l 2,29,30
 1226 187 1226 187 1234 178.5 c 128,-1,31
 1242 170 1242 170 1253 170 c 2,32,-1
 1292 170 l 2,33,34
 1296 170 1296 170 1301.5 165.5 c 128,-1,35
 1307 161 1307 161 1307 155 c 2,36,-1
 1307 15 l 2,37,38
 1307 10 1307 10 1303 5 c 128,-1,39
 1299 0 1299 0 1293 0 c 2,40,-1
 1277 0 l 2,41,42
 1241 0 1241 0 1208.5 11.5 c 128,-1,43
 1176 23 1176 23 1150 44 c 1,44,45
 1122 23 1122 23 1088.5 11.5 c 128,-1,46
 1055 0 1055 0 1018 0 c 2,47,-1
 874 0 l 2,48,49
 841 0 841 0 808.5 4.5 c 128,-1,50
 776 9 776 9 749 16 c 128,-1,51
 722 23 722 23 703 31.5 c 128,-1,52
 684 40 684 40 678 47 c 1,53,-1
 678 14 l 2,54,55
 678 -26 678 -26 660 -60 c 128,-1,56
 642 -94 642 -94 612 -119 c 128,-1,57
 582 -144 582 -144 542.5 -158.5 c 128,-1,58
 503 -173 503 -173 460 -173 c 2,59,-1
 284 -173 l 2,60,61
 234 -173 234 -173 189.5 -154 c 128,-1,62
 145 -135 145 -135 112 -102 c 128,-1,63
 79 -69 79 -69 59.5 -24.5 c 128,-1,64
 40 20 40 20 40 71 c 2,65,-1
 40 384 l 1,66,-1
 184 384 l 1,0,-1
1048 171 m 2,67,68
 1062 171 1062 171 1071.5 181 c 128,-1,69
 1081 191 1081 191 1081 205 c 2,70,-1
 1081 247 l 2,71,72
 1081 260 1081 260 1072 268.5 c 128,-1,73
 1063 277 1063 277 1050 277 c 2,74,-1
 942 277 l 2,75,76
 922 277 922 277 903 269 c 128,-1,77
 884 261 884 261 870 246 c 2,78,-1
 799 171 l 1,79,-1
 1048 171 l 2,67,68
EndSplineSet
EndChar

StartChar: uniFEBC
Encoding: 65212 65212 119
Width: 835
GlyphClass: 2
Flags: W
AnchorPoint: "Anchor-1" 400 -150 basechar 0
AnchorPoint: "Anchor-0" 550 -150 basechar 0
LayerCount: 2
Fore
SplineSet
-14 154 m 2,0,1
 -14 160 -14 160 -10 165 c 128,-1,2
 -6 170 -6 170 0 170 c 2,3,-1
 47 170 l 2,4,5
 58 170 58 170 66.5 177.5 c 128,-1,6
 75 185 75 185 75 197 c 2,7,-1
 75 384 l 1,8,-1
 219 384 l 1,9,-1
 219 288 l 2,10,11
 219 265 219 265 224 257.5 c 128,-1,12
 229 250 229 250 229 249 c 1,13,-1
 337 365 l 2,14,15
 372 403 372 403 419.5 423.5 c 128,-1,16
 467 444 467 444 518 444 c 2,17,-1
 579 444 l 2,18,19
 617 444 617 444 651 429.5 c 128,-1,20
 685 415 685 415 710 390 c 128,-1,21
 735 365 735 365 749.5 331 c 128,-1,22
 764 297 764 297 764 259 c 2,23,-1
 764 198 l 2,24,25
 764 186 764 186 772 178 c 128,-1,26
 780 170 780 170 792 170 c 2,27,-1
 835 170 l 2,28,29
 841 170 841 170 845.5 165 c 128,-1,30
 850 160 850 160 850 154 c 2,31,-1
 850 14 l 2,32,33
 850 9 850 9 845.5 4.5 c 128,-1,34
 841 0 841 0 835 0 c 2,35,-1
 815 0 l 2,36,37
 779 0 779 0 746.5 11.5 c 128,-1,38
 714 23 714 23 688 44 c 1,39,40
 660 24 660 24 626.5 12 c 128,-1,41
 593 0 593 0 556 0 c 2,42,-1
 306 0 l 2,43,44
 288 0 288 0 266 3 c 128,-1,45
 244 6 244 6 221.5 12 c 128,-1,46
 199 18 199 18 179 28 c 128,-1,47
 159 38 159 38 146 52 c 1,48,49
 120 24 120 24 87.5 12 c 128,-1,50
 55 0 55 0 20 0 c 2,51,-1
 0 0 l 2,52,53
 -6 0 -6 0 -10 4.5 c 128,-1,54
 -14 9 -14 9 -14 14 c 2,55,-1
 -14 154 l 2,0,1
586 170 m 2,56,57
 600 170 600 170 610 180.5 c 128,-1,58
 620 191 620 191 620 205 c 2,59,-1
 620 248 l 2,60,61
 620 261 620 261 611 269.5 c 128,-1,62
 602 278 602 278 589 278 c 2,63,-1
 480 278 l 2,64,65
 437 278 437 278 409 247 c 2,66,-1
 339 170 l 1,67,-1
 586 170 l 2,56,57
EndSplineSet
EndChar

StartChar: uniFEBB
Encoding: 65211 65211 120
Width: 794
GlyphClass: 2
Flags: W
AnchorPoint: "Anchor-1" 400 -150 basechar 0
AnchorPoint: "Anchor-0" 550 -150 basechar 0
LayerCount: 2
Fore
SplineSet
-14 15 m 2,0,-1
 -14 153 l 2,1,2
 -14 159 -14 159 -10.5 164.5 c 128,-1,3
 -7 170 -7 170 0 170 c 2,4,-1
 46 170 l 2,5,6
 58 170 58 170 66 178.5 c 128,-1,7
 74 187 74 187 74 198 c 2,8,-1
 74 383 l 1,9,-1
 218 383 l 1,10,-1
 218 288 l 2,11,12
 218 277 218 277 220 269.5 c 128,-1,13
 222 262 222 262 224 257 c 256,14,15
 226 252 226 252 229 249 c 1,16,-1
 336 365 l 2,17,18
 371 403 371 403 419 423 c 128,-1,19
 467 443 467 443 518 443 c 2,20,-1
 579 443 l 2,21,22
 617 443 617 443 651 428.5 c 128,-1,23
 685 414 685 414 710 389 c 128,-1,24
 735 364 735 364 749.5 330.5 c 128,-1,25
 764 297 764 297 764 259 c 2,26,-1
 764 208 l 2,27,28
 764 165 764 165 747.5 127 c 128,-1,29
 731 89 731 89 703 61 c 128,-1,30
 675 33 675 33 637 16.5 c 128,-1,31
 599 0 599 0 556 0 c 2,32,-1
 306 0 l 2,33,34
 288 0 288 0 265.5 3 c 128,-1,35
 243 6 243 6 220.5 12 c 128,-1,36
 198 18 198 18 178 28 c 128,-1,37
 158 38 158 38 145 52 c 1,38,39
 119 24 119 24 87 12 c 128,-1,40
 55 0 55 0 20 0 c 2,41,-1
 0 0 l 2,42,43
 -6 0 -6 0 -10 4.5 c 128,-1,44
 -14 9 -14 9 -14 15 c 2,0,-1
586 170 m 2,45,46
 600 170 600 170 610 181 c 128,-1,47
 620 192 620 192 620 206 c 2,48,-1
 620 247 l 2,49,50
 620 260 620 260 611 269 c 128,-1,51
 602 278 602 278 589 278 c 2,52,-1
 480 278 l 2,53,54
 439 278 439 278 409 246 c 2,55,-1
 338 170 l 1,56,-1
 586 170 l 2,45,46
EndSplineSet
EndChar

StartChar: uni0636
Encoding: 1590 1590 121
AltUni2: 00febd.ffffffff.0
Width: 1256
GlyphClass: 2
Flags: W
AnchorPoint: "Anchor-1" 850 -150 basechar 0
AnchorPoint: "Anchor-0" 950 0 basechar 0
LayerCount: 2
Fore
SplineSet
185 384 m 1,0,-1
 185 89 l 2,1,2
 185 70 185 70 193 53 c 128,-1,3
 201 36 201 36 214 23.5 c 128,-1,4
 227 11 227 11 244.5 3.5 c 128,-1,5
 262 -4 262 -4 281 -4 c 2,6,-1
 463 -4 l 2,7,8
 492 -4 492 -4 513.5 17.5 c 128,-1,9
 535 39 535 39 535 70 c 2,10,-1
 535 398 l 1,11,-1
 680 398 l 1,12,-1
 680 288 l 2,13,14
 680 275 680 275 682 267.5 c 128,-1,15
 684 260 684 260 686 256 c 0,16,17
 688 251 688 251 691 249 c 2,18,-1
 799 364 l 2,19,20
 834 401 834 401 881 422 c 128,-1,21
 928 443 928 443 979 443 c 2,22,-1
 1041 443 l 2,23,24
 1079 443 1079 443 1113 428.5 c 128,-1,25
 1147 414 1147 414 1172 389 c 128,-1,26
 1197 364 1197 364 1211.5 330.5 c 128,-1,27
 1226 297 1226 297 1226 259 c 2,28,-1
 1226 207 l 2,29,30
 1226 164 1226 164 1209.5 126.5 c 128,-1,31
 1193 89 1193 89 1165 61 c 128,-1,32
 1137 33 1137 33 1099 16.5 c 128,-1,33
 1061 0 1061 0 1018 0 c 2,34,-1
 869 0 l 2,35,36
 850 0 850 0 821.5 3.5 c 128,-1,37
 793 7 793 7 765 13 c 128,-1,38
 737 19 737 19 713 28 c 128,-1,39
 689 37 689 37 678 47 c 1,40,-1
 678 14 l 2,41,42
 678 -27 678 -27 660 -61.5 c 128,-1,43
 642 -96 642 -96 612 -121 c 128,-1,44
 582 -146 582 -146 542.5 -160 c 128,-1,45
 503 -174 503 -174 461 -174 c 2,46,-1
 286 -174 l 2,47,48
 235 -174 235 -174 190 -154.5 c 128,-1,49
 145 -135 145 -135 111.5 -102 c 128,-1,50
 78 -69 78 -69 59 -24.5 c 128,-1,51
 40 20 40 20 40 70 c 2,52,-1
 40 384 l 1,53,-1
 185 384 l 1,0,-1
799 170 m 1,54,-1
 1048 170 l 2,55,56
 1062 170 1062 170 1072 180 c 128,-1,57
 1082 190 1082 190 1082 204 c 2,58,-1
 1082 247 l 2,59,60
 1082 259 1082 259 1073 268.5 c 128,-1,61
 1064 278 1064 278 1051 278 c 2,62,-1
 942 278 l 2,63,64
 901 278 901 278 871 246 c 2,65,-1
 799 170 l 1,54,-1
892 649 m 1,66,-1
 1022 649 l 1,67,-1
 1022 514 l 1,68,-1
 892 514 l 1,69,-1
 892 649 l 1,66,-1
EndSplineSet
Substitution2: "'fina' Terminal Forms in Arabic lookup 3 subtable" uniFEBE
Substitution2: "'medi' Medial Forms in Arabic lookup 2 subtable" uniFEC0
Substitution2: "'isol' Isolated Forms in Arabic lookup 1 subtable" uni0636
Substitution2: "'init' Initial Forms in Arabic lookup 0 subtable" uniFEBF
EndChar

StartChar: uniFEBE
Encoding: 65214 65214 122
Width: 1297
GlyphClass: 2
Flags: W
AnchorPoint: "Anchor-1" 850 -150 basechar 0
AnchorPoint: "Anchor-0" 950 0 basechar 0
LayerCount: 2
Fore
SplineSet
184 384 m 1,0,-1
 184 91 l 2,1,2
 184 72 184 72 191.5 54.5 c 128,-1,3
 199 37 199 37 211.5 24.5 c 128,-1,4
 224 12 224 12 241.5 4.5 c 128,-1,5
 259 -3 259 -3 278 -3 c 2,6,-1
 462 -3 l 2,7,8
 492 -3 492 -3 514 18.5 c 128,-1,9
 536 40 536 40 536 71 c 2,10,-1
 536 399 l 1,11,-1
 680 399 l 1,12,-1
 680 288 l 2,13,14
 680 276 680 276 682 268.5 c 128,-1,15
 684 261 684 261 686 257 c 0,16,17
 688 251 688 251 691 249 c 2,18,-1
 799 365 l 2,19,20
 833 402 833 402 880.5 422.5 c 128,-1,21
 928 443 928 443 979 443 c 2,22,-1
 1041 443 l 2,23,24
 1079 443 1079 443 1113 428.5 c 128,-1,25
 1147 414 1147 414 1172 389 c 128,-1,26
 1197 364 1197 364 1211.5 330.5 c 128,-1,27
 1226 297 1226 297 1226 259 c 2,28,-1
 1226 198 l 2,29,30
 1226 187 1226 187 1234 178.5 c 128,-1,31
 1242 170 1242 170 1253 170 c 2,32,-1
 1297 170 l 2,33,34
 1303 170 1303 170 1307 165.5 c 128,-1,35
 1311 161 1311 161 1311 155 c 2,36,-1
 1311 15 l 2,37,38
 1311 10 1311 10 1307 5 c 128,-1,39
 1303 0 1303 0 1297 0 c 2,40,-1
 1277 0 l 2,41,42
 1241 0 1241 0 1208.5 11.5 c 128,-1,43
 1176 23 1176 23 1150 44 c 1,44,45
 1122 23 1122 23 1088.5 11.5 c 128,-1,46
 1055 0 1055 0 1018 0 c 2,47,-1
 874 0 l 2,48,49
 841 0 841 0 808.5 4.5 c 128,-1,50
 776 9 776 9 749 16 c 128,-1,51
 722 23 722 23 703 31.5 c 128,-1,52
 684 40 684 40 678 47 c 1,53,-1
 678 14 l 2,54,55
 678 -26 678 -26 660 -60 c 128,-1,56
 642 -94 642 -94 612 -119 c 128,-1,57
 582 -144 582 -144 542.5 -158.5 c 128,-1,58
 503 -173 503 -173 460 -173 c 2,59,-1
 284 -173 l 2,60,61
 234 -173 234 -173 189.5 -154 c 128,-1,62
 145 -135 145 -135 112 -102 c 128,-1,63
 79 -69 79 -69 59.5 -24.5 c 128,-1,64
 40 20 40 20 40 71 c 2,65,-1
 40 384 l 1,66,-1
 184 384 l 1,0,-1
799 171 m 1,67,-1
 1048 171 l 2,68,69
 1062 171 1062 171 1071.5 181 c 128,-1,70
 1081 191 1081 191 1081 205 c 2,71,-1
 1081 247 l 2,72,73
 1081 260 1081 260 1072 268.5 c 128,-1,74
 1063 277 1063 277 1050 277 c 2,75,-1
 942 277 l 2,76,77
 922 277 922 277 903 269 c 128,-1,78
 884 261 884 261 870 246 c 2,79,-1
 799 171 l 1,67,-1
1023 647 m 1,80,-1
 1023 512 l 1,81,-1
 893 512 l 1,82,-1
 893 647 l 1,83,-1
 1023 647 l 1,80,-1
EndSplineSet
EndChar

StartChar: uniFEC0
Encoding: 65216 65216 123
Width: 835
GlyphClass: 2
Flags: W
AnchorPoint: "Anchor-1" 400 -150 basechar 0
AnchorPoint: "Anchor-0" 550 0 basechar 0
LayerCount: 2
Fore
SplineSet
-14 154 m 2,0,1
 -14 160 -14 160 -10 165 c 128,-1,2
 -6 170 -6 170 0 170 c 2,3,-1
 47 170 l 2,4,5
 58 170 58 170 66.5 177.5 c 128,-1,6
 75 185 75 185 75 197 c 2,7,-1
 75 384 l 1,8,-1
 219 384 l 1,9,-1
 219 288 l 2,10,11
 219 265 219 265 224 257.5 c 128,-1,12
 229 250 229 250 229 249 c 1,13,-1
 337 365 l 2,14,15
 372 403 372 403 419.5 423.5 c 128,-1,16
 467 444 467 444 518 444 c 2,17,-1
 579 444 l 2,18,19
 617 444 617 444 651 429.5 c 128,-1,20
 685 415 685 415 710 390 c 128,-1,21
 735 365 735 365 749.5 331 c 128,-1,22
 764 297 764 297 764 259 c 2,23,-1
 764 198 l 2,24,25
 764 186 764 186 772 178 c 128,-1,26
 780 170 780 170 792 170 c 2,27,-1
 835 170 l 2,28,29
 841 170 841 170 845.5 165 c 128,-1,30
 850 160 850 160 850 154 c 2,31,-1
 850 14 l 2,32,33
 850 9 850 9 845.5 4.5 c 128,-1,34
 841 0 841 0 835 0 c 2,35,-1
 815 0 l 2,36,37
 779 0 779 0 746.5 11.5 c 128,-1,38
 714 23 714 23 688 44 c 1,39,40
 660 24 660 24 626.5 12 c 128,-1,41
 593 0 593 0 556 0 c 2,42,-1
 306 0 l 2,43,44
 288 0 288 0 266 3 c 128,-1,45
 244 6 244 6 221.5 12 c 128,-1,46
 199 18 199 18 179 28 c 128,-1,47
 159 38 159 38 146 52 c 1,48,49
 120 24 120 24 87.5 12 c 128,-1,50
 55 0 55 0 20 0 c 2,51,-1
 0 0 l 2,52,53
 -6 0 -6 0 -10 4.5 c 128,-1,54
 -14 9 -14 9 -14 14 c 2,55,-1
 -14 154 l 2,0,1
586 170 m 2,56,57
 600 170 600 170 610 180.5 c 128,-1,58
 620 191 620 191 620 205 c 2,59,-1
 620 248 l 2,60,61
 620 261 620 261 611 269.5 c 128,-1,62
 602 278 602 278 589 278 c 2,63,-1
 480 278 l 2,64,65
 437 278 437 278 409 247 c 2,66,-1
 339 170 l 1,67,-1
 586 170 l 2,56,57
616 647 m 1,68,-1
 616 512 l 1,69,-1
 486 512 l 1,70,-1
 486 647 l 1,71,-1
 616 647 l 1,68,-1
EndSplineSet
EndChar

StartChar: uniFEBF
Encoding: 65215 65215 124
Width: 794
GlyphClass: 2
Flags: W
AnchorPoint: "Anchor-1" 400 -150 basechar 0
AnchorPoint: "Anchor-0" 550 0 basechar 0
LayerCount: 2
Fore
SplineSet
-14 153 m 2,0,1
 -14 159 -14 159 -10.5 164.5 c 128,-1,2
 -7 170 -7 170 0 170 c 2,3,-1
 46 170 l 2,4,5
 58 170 58 170 66 178.5 c 128,-1,6
 74 187 74 187 74 198 c 2,7,-1
 74 383 l 1,8,-1
 218 383 l 1,9,-1
 218 288 l 2,10,11
 218 277 218 277 220 269.5 c 128,-1,12
 222 262 222 262 224 257 c 256,13,14
 226 252 226 252 229 249 c 1,15,-1
 336 365 l 2,16,17
 371 403 371 403 419 423 c 128,-1,18
 467 443 467 443 518 443 c 2,19,-1
 579 443 l 2,20,21
 617 443 617 443 651 428.5 c 128,-1,22
 685 414 685 414 710 389 c 128,-1,23
 735 364 735 364 749.5 330.5 c 128,-1,24
 764 297 764 297 764 259 c 2,25,-1
 764 208 l 2,26,27
 764 165 764 165 747.5 127 c 128,-1,28
 731 89 731 89 703 61 c 128,-1,29
 675 33 675 33 637 16.5 c 128,-1,30
 599 0 599 0 556 0 c 2,31,-1
 306 0 l 2,32,33
 288 0 288 0 265.5 3 c 128,-1,34
 243 6 243 6 220.5 12 c 128,-1,35
 198 18 198 18 178 28 c 128,-1,36
 158 38 158 38 145 52 c 1,37,38
 119 24 119 24 87 12 c 128,-1,39
 55 0 55 0 20 0 c 2,40,-1
 0 0 l 2,41,42
 -6 0 -6 0 -10 4.5 c 128,-1,43
 -14 9 -14 9 -14 15 c 2,44,-1
 -14 153 l 2,0,1
338 170 m 1,45,-1
 586 170 l 2,46,47
 600 170 600 170 610 181 c 128,-1,48
 620 192 620 192 620 206 c 2,49,-1
 620 247 l 2,50,51
 620 260 620 260 611 269 c 128,-1,52
 602 278 602 278 589 278 c 2,53,-1
 480 278 l 2,54,55
 439 278 439 278 409 246 c 2,56,-1
 338 170 l 1,45,-1
632 647 m 1,57,-1
 632 512 l 1,58,-1
 502 512 l 1,59,-1
 502 647 l 1,60,-1
 632 647 l 1,57,-1
EndSplineSet
EndChar

StartChar: uni0637
Encoding: 1591 1591 125
AltUni2: 00fec1.ffffffff.0
Width: 733
GlyphClass: 2
Flags: W
AnchorPoint: "Anchor-1" 400 -150 basechar 0
AnchorPoint: "Anchor-0" 600 -150 basechar 0
LayerCount: 2
Fore
SplineSet
96 170 m 1,0,-1
 196 279 l 1,1,-1
 196 707 l 1,2,-1
 340 707 l 1,3,-1
 340 482 l 2,4,5
 340 470 340 470 337.5 458 c 128,-1,6
 335 446 335 446 331.5 436 c 128,-1,7
 328 426 328 426 325 419.5 c 128,-1,8
 322 413 322 413 321 411 c 0,9,10
 321 409 321 409 319 407 c 2,11,-1
 318 404 l 1,12,13
 349 423 349 423 384 433.5 c 128,-1,14
 419 444 419 444 457 444 c 2,15,-1
 518 444 l 2,16,17
 557 444 557 444 591 429.5 c 128,-1,18
 625 415 625 415 649.5 390 c 128,-1,19
 674 365 674 365 688.5 331.5 c 128,-1,20
 703 298 703 298 703 259 c 2,21,-1
 703 208 l 2,22,23
 703 165 703 165 686.5 127 c 128,-1,24
 670 89 670 89 642 61 c 128,-1,25
 614 33 614 33 576 16.5 c 128,-1,26
 538 0 538 0 495 0 c 2,27,-1
 40 0 l 1,28,-1
 40 170 l 1,29,-1
 96 170 l 1,0,-1
525 170 m 2,30,31
 539 170 539 170 549 179.5 c 128,-1,32
 559 189 559 189 559 203 c 2,33,-1
 559 248 l 2,34,35
 559 261 559 261 550 269.5 c 128,-1,36
 541 278 541 278 528 278 c 2,37,-1
 429 278 l 2,38,39
 386 278 386 278 358 247 c 2,40,-1
 289 170 l 1,41,-1
 525 170 l 2,30,31
EndSplineSet
Substitution2: "'fina' Terminal Forms in Arabic lookup 3 subtable" uniFEC2
Substitution2: "'medi' Medial Forms in Arabic lookup 2 subtable" uniFEC4
Substitution2: "'isol' Isolated Forms in Arabic lookup 1 subtable" uni0637
Substitution2: "'init' Initial Forms in Arabic lookup 0 subtable" uniFEC3
EndChar

StartChar: uniFEC2
Encoding: 65218 65218 126
Width: 759
GlyphClass: 2
Flags: W
AnchorPoint: "Anchor-1" 400 -150 basechar 0
AnchorPoint: "Anchor-0" 600 -150 basechar 0
LayerCount: 2
Fore
SplineSet
80 170 m 1,0,-1
 180 279 l 1,1,-1
 180 707 l 1,2,-1
 324 707 l 1,3,-1
 324 482 l 2,4,5
 324 470 324 470 321 457.5 c 128,-1,6
 318 445 318 445 314.5 434.5 c 128,-1,7
 311 424 311 424 309 417 c 2,8,-1
 306 410 l 1,9,10
 306 410 306 410 306 410 c 257,11,12
 306 410 306 410 306 410 c 257,13,14
 306 410 306 410 304 407 c 128,-1,15
 302 404 302 404 302 403 c 1,16,17
 302 403 302 403 302 403 c 1,18,19
 333 423 333 423 368.5 433.5 c 128,-1,20
 404 444 404 444 441 444 c 2,21,-1
 502 444 l 2,22,23
 541 444 541 444 575 429.5 c 128,-1,24
 609 415 609 415 633.5 390 c 128,-1,25
 658 365 658 365 672.5 331.5 c 128,-1,26
 687 298 687 298 687 259 c 2,27,-1
 687 196 l 2,28,29
 688 185 688 185 696 178 c 128,-1,30
 704 171 704 171 715 171 c 2,31,-1
 759 171 l 2,32,33
 773 171 773 171 773 157 c 2,34,-1
 773 14 l 2,35,36
 773 0 773 0 759 0 c 2,37,-1
 739 0 l 2,38,39
 703 0 703 0 670 12.5 c 128,-1,40
 637 25 637 25 611 52 c 1,41,42
 583 25 583 25 549.5 12.5 c 128,-1,43
 516 0 516 0 479 0 c 2,44,-1
 40 0 l 1,45,-1
 40 170 l 1,46,-1
 80 170 l 1,0,-1
509 170 m 2,47,48
 523 170 523 170 533 180 c 128,-1,49
 543 190 543 190 543 204 c 2,50,-1
 543 247 l 2,51,52
 543 261 543 261 534 269.5 c 128,-1,53
 525 278 525 278 512 278 c 2,54,-1
 413 278 l 2,55,56
 370 278 370 278 342 247 c 2,57,-1
 273 170 l 1,58,-1
 509 170 l 2,47,48
EndSplineSet
EndChar

StartChar: uniFEC4
Encoding: 65220 65220 127
Width: 699
GlyphClass: 2
Flags: W
AnchorPoint: "Anchor-1" 300 -150 basechar 0
AnchorPoint: "Anchor-0" 500 -150 basechar 0
LayerCount: 2
Fore
SplineSet
-14 156 m 2,0,1
 -14 162 -14 162 -10 166.5 c 128,-1,2
 -6 171 -6 171 0 171 c 2,3,-1
 20 171 l 1,4,-1
 120 279 l 1,5,-1
 120 707 l 1,6,-1
 264 707 l 1,7,-1
 264 482 l 2,8,9
 264 470 264 470 261.5 458 c 128,-1,10
 259 446 259 446 256 435.5 c 128,-1,11
 253 425 253 425 250 418.5 c 128,-1,12
 247 412 247 412 246 410 c 0,13,14
 244 406 244 406 243 405 c 0,15,16
 243 404 243 404 242 403 c 1,17,18
 273 423 273 423 308.5 433.5 c 128,-1,19
 344 444 344 444 381 444 c 2,20,-1
 442 444 l 2,21,22
 481 444 481 444 515 429.5 c 128,-1,23
 549 415 549 415 573.5 390 c 128,-1,24
 598 365 598 365 612.5 331.5 c 128,-1,25
 627 298 627 298 627 259 c 2,26,-1
 627 195 l 2,27,28
 628 184 628 184 636 177 c 128,-1,29
 644 170 644 170 655 170 c 2,30,-1
 699 170 l 2,31,32
 713 170 713 170 713 156 c 2,33,-1
 713 14 l 2,34,35
 713 0 713 0 699 0 c 2,36,-1
 679 0 l 2,37,38
 643 0 643 0 610 12.5 c 128,-1,39
 577 25 577 25 551 53 c 1,40,41
 523 25 523 25 489.5 12.5 c 128,-1,42
 456 0 456 0 419 0 c 2,43,-1
 0 0 l 2,44,45
 -1 0 -1 0 -2 0 c 0,46,47
 -7 0 -7 0 -10.5 4 c 128,-1,48
 -14 8 -14 8 -14 14 c 2,49,-1
 -14 156 l 2,0,1
449 170 m 2,50,51
 463 170 463 170 473 179.5 c 128,-1,52
 483 189 483 189 483 203 c 2,53,-1
 483 247 l 2,54,55
 483 261 483 261 474 269.5 c 128,-1,56
 465 278 465 278 452 278 c 2,57,-1
 353 278 l 2,58,59
 310 278 310 278 282 247 c 2,60,-1
 213 170 l 1,61,-1
 449 170 l 2,50,51
EndSplineSet
EndChar

